<?xml version="1.0" encoding="utf-8"?>
<!-- Generator: Adobe Illustrator 17.0.0, SVG Export Plug-In . SVG Version: 6.00 Build 0)  -->
<!DOCTYPE svg PUBLIC "-//W3C//DTD SVG 1.1//EN" "http://www.w3.org/Graphics/SVG/1.1/DTD/svg11.dtd">
<svg version="1.1" xmlns="http://www.w3.org/2000/svg" xmlns:xlink="http://www.w3.org/1999/xlink" x="0px" y="0px"
	 width="502.667px" height="38.333px" viewBox="0 0 502.667 38.333" enable-background="new 0 0 502.667 38.333"
	 xml:space="preserve">
<g id="Layer_2" display="none">
</g>
<g id="Layer_1" display="none">
	<rect y="10.737" display="inline" fill="none" width="502.667" height="23.663"/>
	<text transform="matrix(1 0 0 1 1.697540e-04 19.197)" display="inline"><tspan x="0" y="0" fill="#FFFFFF" font-family="'RataczakRoman'" font-size="12">KEY COMMANDS</tspan><tspan x="0" y="14.399" fill="#FFFFFF" font-family="'RataczakRoman'" font-size="12">R</tspan><tspan x="7.353" y="14.399" fill="#DDDDDD" font-family="'RataczakRoman'" font-size="12"> </tspan><tspan x="11.118" y="14.399" fill="#969696" font-family="'RataczakRoman'" font-size="12">RED </tspan><tspan x="36.517" y="14.399" fill="#FFFFFF" font-family="'RataczakRoman'" font-size="12">Y</tspan><tspan x="44.235" y="14.399" fill="#DDDDDD" font-family="'RataczakRoman'" font-size="12"> </tspan><tspan x="48" y="14.399" fill="#969696" font-family="'RataczakRoman'" font-size="12">YELLOW </tspan><tspan x="97.811" y="14.399" fill="#FFFFFF" font-family="'RataczakRoman'" font-size="12">B</tspan><tspan x="105.458" y="14.399" fill="#DDDDDD" font-family="'RataczakRoman'" font-size="12"> </tspan><tspan x="109.223" y="14.399" fill="#969696" font-family="'RataczakRoman'" font-size="12">BLUE </tspan><tspan x="141.54" y="14.399" fill="#FFFFFF" font-family="'RataczakRoman'" font-size="12">X</tspan><tspan x="149.199" y="14.399" fill="#DDDDDD" font-family="'RataczakRoman'" font-size="12"> </tspan><tspan x="152.963" y="14.399" fill="#969696" font-family="'RataczakRoman'" font-size="12">BLACK </tspan><tspan x="194.081" y="14.399" fill="#FFFFFF" font-family="'RataczakRoman'" font-size="12">ENTER </tspan><tspan x="233.421" y="14.399" fill="#969696" font-family="'RataczakRoman'" font-size="12">SAVE </tspan><tspan x="266.292" y="14.399" fill="#FFFFFF" font-family="'RataczakRoman'" font-size="12">BACKSPACE </tspan><tspan x="336.385" y="14.399" fill="#969696" font-family="'RataczakRoman'" font-size="12">CLEAR ALL </tspan><tspan x="400.419" y="14.399" fill="#FFFFFF" font-family="'RataczakRoman'" font-size="12">S</tspan><tspan x="407.254" y="14.399" fill="#969696" font-family="'RataczakRoman'" font-size="12"> SHOW CON</tspan><tspan x="471.747" y="14.399" fill="#969696" font-family="'RataczakRoman'" font-size="12">-</tspan></text>
</g>
<g id="outlines">
	<g>
		<path fill="#FFFFFF" d="M2.118,15.401v2.506c0,0.569,0.31,0.854,0.929,0.854v0.424H0.188v-0.424
			c0.619-0.008,0.929-0.293,0.929-0.857v-5.873c0-0.563-0.31-0.85-0.929-0.857V10.75h2.858v0.424
			c-0.62,0.008-0.929,0.294-0.929,0.858v2.788l3.294-2.729c0.086-0.071,0.129-0.169,0.129-0.295c0-0.36-0.247-0.568-0.741-0.623
			V10.75h2.765v0.424c-0.322,0.031-1.004,0.494-2.047,1.388C5.016,13.017,4.51,13.476,4,13.938l2.506,3.906
			c0.306,0.465,0.678,0.771,1.118,0.917v0.424H4.741v-0.424l0.035,0.012c0.22,0.016,0.41-0.029,0.571-0.136
			c0.161-0.105,0.241-0.269,0.241-0.489c0-0.103-0.03-0.204-0.091-0.307l-2.14-3.422L2.118,15.401z"/>
		<path fill="#FFFFFF" d="M12.223,13.221v2.541h-0.341c-0.142-0.564-0.269-0.876-0.382-0.935c-0.114-0.06-0.555-0.101-1.324-0.124
			v4.059h2.106c0.376,0,0.678-0.094,0.906-0.282c0.078-0.062,0.18-0.267,0.306-0.611c0.125-0.346,0.185-0.577,0.177-0.694h0.577
			l-0.459,2.012H8.247v-0.424c0.619-0.023,0.929-0.31,0.929-0.857V12.03c0-0.289-0.083-0.501-0.247-0.634
			c-0.141-0.109-0.369-0.185-0.682-0.224V10.75h5.458v2.023h-0.576c0.007-0.118-0.051-0.35-0.177-0.693s-0.228-0.551-0.306-0.622
			c-0.228-0.189-0.53-0.284-0.906-0.284h-1.564v3.094c0.769-0.023,1.204-0.062,1.306-0.117c0.071-0.039,0.153-0.181,0.247-0.424
			c0.086-0.22,0.137-0.388,0.153-0.506H12.223z"/>
		<path fill="#FFFFFF" d="M21.812,11.174c-0.33,0.094-0.67,0.4-1.023,0.918l-2.106,3.117v2.706c0,0.564,0.31,0.851,0.929,0.858
			v0.412h-2.858v-0.412c0.611,0,0.917-0.286,0.917-0.858v-2.612l-1.93-3.211c-0.329-0.542-0.674-0.848-1.035-0.918V10.75h2.859
			v0.424h-0.035c-0.235-0.016-0.428,0.035-0.577,0.153c-0.172,0.117-0.259,0.29-0.259,0.518c0,0.117,0.016,0.199,0.047,0.247
			l1.683,2.658l1.706-2.658c0.055-0.087,0.082-0.169,0.082-0.247c0-0.212-0.106-0.381-0.317-0.506
			c-0.181-0.11-0.385-0.165-0.612-0.165V10.75h2.529V11.174z"/>
		<path fill="#FFFFFF" d="M27.505,14.833c0,0.925,0.165,1.772,0.494,2.541c0.431,0.996,1.051,1.494,1.858,1.494
			c0.588,0,1.118-0.301,1.588-0.902c0.431-0.546,0.674-1.124,0.729-1.733h0.553c-0.274,0.98-0.564,1.683-0.871,2.106
			c-0.478,0.635-1.141,0.952-1.988,0.952c-1.129,0-2.02-0.458-2.671-1.376c-0.588-0.823-0.882-1.823-0.882-3
			c0-1.161,0.29-2.142,0.871-2.941c0.643-0.895,1.521-1.342,2.635-1.342c0.267,0,0.592,0.048,0.977,0.143
			c0.431,0.109,0.726,0.234,0.882,0.376l0.282-0.353h0.565v2.199h-0.541c-0.134-0.481-0.4-0.915-0.8-1.302
			c-0.439-0.426-0.886-0.64-1.341-0.64c-0.792,0-1.404,0.459-1.835,1.377C27.674,13.146,27.505,13.946,27.505,14.833z"/>
		<path fill="#FFFFFF" d="M37.035,10.632c1.129,0,2.023,0.455,2.682,1.365c0.596,0.808,0.894,1.796,0.894,2.965
			s-0.298,2.161-0.894,2.977c-0.659,0.902-1.553,1.353-2.682,1.353c-1.122,0-2.012-0.45-2.671-1.353
			c-0.596-0.815-0.894-1.808-0.894-2.977s0.298-2.157,0.894-2.965C35.023,11.087,35.913,10.632,37.035,10.632z M37.011,18.868
			c0.847,0,1.486-0.487,1.918-1.461c0.329-0.746,0.494-1.603,0.494-2.569c0-0.871-0.185-1.677-0.553-2.415
			c-0.463-0.911-1.09-1.367-1.882-1.367c-0.784,0-1.392,0.46-1.823,1.379c-0.337,0.715-0.506,1.517-0.506,2.403
			c0,0.975,0.157,1.826,0.47,2.558C35.544,18.377,36.172,18.868,37.011,18.868z"/>
		<path fill="#FFFFFF" d="M49.193,10.75h1.924v0.424c-0.62,0.016-0.929,0.302-0.929,0.857v5.873c0,0.557,0.31,0.842,0.929,0.857
			v0.424h-2.859v-0.424c0.62-0.016,0.93-0.301,0.93-0.857V12.15l-2.906,7.035h-0.376l-2.906-7.035v5.754
			c0,0.557,0.31,0.842,0.93,0.857v0.424h-2.506v-0.424c0.619-0.016,0.929-0.301,0.929-0.857v-5.873c0-0.267-0.086-0.481-0.259-0.646
			c-0.173-0.164-0.396-0.234-0.67-0.211V10.75h1.939l2.941,6.935L49.193,10.75z"/>
		<path fill="#FFFFFF" d="M59.534,10.75h1.924v0.424c-0.62,0.016-0.929,0.302-0.929,0.857v5.873c0,0.557,0.31,0.842,0.929,0.857
			v0.424h-2.859v-0.424c0.62-0.016,0.93-0.301,0.93-0.857V12.15l-2.906,7.035h-0.376L53.34,12.15v5.754
			c0,0.557,0.31,0.842,0.93,0.857v0.424h-2.506v-0.424c0.619-0.016,0.929-0.301,0.929-0.857v-5.873c0-0.267-0.086-0.481-0.259-0.646
			c-0.173-0.164-0.396-0.234-0.67-0.211V10.75h1.939l2.941,6.935L59.534,10.75z"/>
		<path fill="#FFFFFF" d="M63.975,16.88c-0.219,0.639-0.329,0.981-0.329,1.028c0,0.266,0.086,0.468,0.259,0.608
			c0.204,0.163,0.404,0.245,0.6,0.245v0.424h-2.436v-0.424c0.502-0.086,0.847-0.396,1.036-0.928l2.141-6.143
			c0.007-0.023,0.012-0.047,0.012-0.07c0-0.134-0.096-0.259-0.289-0.377c-0.192-0.118-0.358-0.177-0.5-0.177V10.75h1.694l2.47,7.095
			c0.149,0.434,0.49,0.739,1.024,0.917v0.424h-2.765v-0.424c0.196-0.008,0.375-0.074,0.535-0.198
			c0.161-0.125,0.241-0.28,0.241-0.468c0-0.141-0.051-0.347-0.153-0.62c-0.086-0.194-0.169-0.394-0.247-0.596H63.975z
			 M67.117,16.456l-1.509-4.263l-1.471,4.263H67.117z"/>
		<path fill="#FFFFFF" d="M75.963,12.032c0-0.549-0.31-0.835-0.929-0.858V10.75h2.494v0.424c-0.314,0.039-0.537,0.113-0.67,0.224
			c-0.165,0.133-0.247,0.345-0.247,0.635v7.153h-0.665l-4.277-7.107v5.828c0,0.289,0.066,0.492,0.2,0.609
			c0.07,0.062,0.186,0.121,0.347,0.176c0.161,0.055,0.285,0.078,0.371,0.07l0.012,0.424h-2.506l-0.012-0.424
			c0.627-0.008,0.941-0.293,0.941-0.857v-5.873c0-0.548-0.31-0.834-0.929-0.857V10.75h1.929l3.941,6.529V12.032z"/>
		<path fill="#FFFFFF" d="M78.128,18.773c0.619-0.039,0.929-0.325,0.929-0.858v-5.883c0-0.298-0.083-0.514-0.247-0.646
			c-0.133-0.11-0.361-0.185-0.682-0.224v-0.424h3.611c0.274,0,0.625,0.071,1.053,0.212c0.427,0.141,0.739,0.294,0.935,0.459
			c0.91,0.776,1.365,1.918,1.365,3.424c0,1.129-0.263,2.102-0.788,2.917c-0.612,0.957-1.451,1.436-2.518,1.436h-3.659V18.773z
			 M81.74,18.762c0.714,0,1.271-0.502,1.671-1.506c0.298-0.769,0.447-1.576,0.447-2.423c0-0.809-0.165-1.573-0.494-2.295
			c-0.416-0.917-0.976-1.376-1.682-1.376c-0.016,0-0.557,0.004-1.624,0.012v7.576C81.062,18.758,81.622,18.762,81.74,18.762z"/>
		<path fill="#FFFFFF" d="M88.952,18.809c1.419,0,2.129-0.607,2.129-1.823c0-0.689-0.733-1.341-2.2-1.953
			c-0.917-0.384-1.518-0.678-1.8-0.882c-0.612-0.447-0.917-1.008-0.917-1.683c0-0.588,0.25-1.043,0.753-1.365
			c0.431-0.273,0.957-0.411,1.576-0.411c0.306,0,0.631,0.047,0.977,0.142c0.392,0.102,0.694,0.234,0.906,0.399l0.271-0.376h0.565
			v2.199h-0.529c-0.008-0.109-0.063-0.271-0.165-0.481c-0.479-0.988-1.133-1.483-1.964-1.483c-0.988,0-1.482,0.404-1.482,1.212
			c0,0.486,0.427,0.91,1.282,1.271c1.506,0.643,2.298,0.992,2.376,1.047c0.855,0.525,1.282,1.228,1.282,2.105
			c0,0.784-0.317,1.412-0.953,1.883c-0.573,0.415-1.267,0.623-2.083,0.623c-0.824,0-1.475-0.188-1.953-0.564l-0.271,0.376h-0.564
			v-2.199h0.529c0,0.211,0.059,0.451,0.176,0.717C87.253,18.394,87.94,18.809,88.952,18.809z"/>
		<path fill="#FFFFFF" d="M7.059,31.75h0.177c-0.086,0.438-0.216,0.831-0.388,1.176c-0.251,0.486-0.542,0.729-0.871,0.729
			c-0.393,0-0.698-0.137-0.918-0.411c-0.157-0.212-0.278-0.53-0.364-0.953c-0.063-0.337-0.122-0.679-0.177-1.023
			c-0.157-0.792-0.718-1.188-1.682-1.188H2.106v2.227c0,0.539,0.31,0.824,0.929,0.855v0.424H0.176v-0.424
			c0.62-0.031,0.93-0.316,0.93-0.857V26.43c0-0.556-0.31-0.842-0.93-0.857v-0.423h3.906c0.282,0,0.592,0.047,0.929,0.142
			c0.376,0.109,0.647,0.247,0.812,0.411c0.533,0.526,0.8,1.169,0.8,1.93c0,0.722-0.237,1.313-0.712,1.776s-1.072,0.683-1.794,0.659
			c0.345,0.141,0.545,0.228,0.6,0.259c0.196,0.109,0.353,0.255,0.471,0.436c0.086,0.133,0.188,0.396,0.306,0.788
			c0.125,0.416,0.228,0.702,0.306,0.858c0.142,0.267,0.314,0.4,0.518,0.4C6.624,32.809,6.871,32.455,7.059,31.75z M2.106,29.655
			h1.635c0.502,0,0.937-0.232,1.306-0.698c0.345-0.441,0.518-0.919,0.518-1.432c0-0.521-0.187-0.976-0.559-1.366
			s-0.814-0.586-1.324-0.586H2.106V29.655z"/>
		<path fill="#969696" d="M18.176,31.75h0.177c-0.086,0.438-0.216,0.831-0.388,1.176c-0.251,0.486-0.542,0.729-0.871,0.729
			c-0.393,0-0.698-0.137-0.918-0.411c-0.157-0.212-0.278-0.53-0.364-0.953c-0.063-0.337-0.122-0.679-0.177-1.023
			c-0.157-0.792-0.718-1.188-1.682-1.188h-0.729v2.227c0,0.539,0.31,0.824,0.929,0.855v0.424h-2.859v-0.424
			c0.62-0.031,0.93-0.316,0.93-0.857V26.43c0-0.556-0.31-0.842-0.93-0.857v-0.423H15.2c0.282,0,0.592,0.047,0.929,0.142
			c0.376,0.109,0.647,0.247,0.812,0.411c0.533,0.526,0.8,1.169,0.8,1.93c0,0.722-0.237,1.313-0.712,1.776s-1.072,0.683-1.794,0.659
			c0.345,0.141,0.545,0.228,0.6,0.259c0.196,0.109,0.353,0.255,0.471,0.436c0.086,0.133,0.188,0.396,0.306,0.788
			c0.125,0.416,0.228,0.702,0.306,0.858c0.142,0.267,0.314,0.4,0.518,0.4C17.741,32.809,17.988,32.455,18.176,31.75z M13.224,29.655
			h1.635c0.502,0,0.937-0.232,1.306-0.698c0.345-0.441,0.518-0.919,0.518-1.432c0-0.521-0.187-0.976-0.559-1.366
			s-0.814-0.586-1.324-0.586h-1.576V29.655z"/>
		<path fill="#969696" d="M22.635,27.62v2.541h-0.341c-0.142-0.564-0.269-0.876-0.382-0.935c-0.114-0.06-0.555-0.101-1.324-0.124
			v4.059h2.106c0.376,0,0.678-0.094,0.906-0.282c0.078-0.062,0.18-0.267,0.306-0.611c0.125-0.346,0.185-0.577,0.177-0.694h0.577
			L24.2,33.585h-5.541v-0.424c0.619-0.023,0.929-0.31,0.929-0.857V26.43c0-0.289-0.083-0.501-0.247-0.634
			c-0.141-0.109-0.369-0.185-0.682-0.224v-0.423h5.458v2.023h-0.576c0.007-0.118-0.051-0.35-0.177-0.693s-0.228-0.551-0.306-0.622
			c-0.228-0.189-0.53-0.284-0.906-0.284h-1.564v3.094c0.769-0.023,1.204-0.062,1.306-0.117c0.071-0.039,0.153-0.181,0.247-0.424
			c0.086-0.22,0.137-0.388,0.153-0.506H22.635z"/>
		<path fill="#969696" d="M25.165,33.173c0.619-0.039,0.929-0.325,0.929-0.858v-5.883c0-0.298-0.083-0.514-0.247-0.646
			c-0.133-0.11-0.361-0.185-0.682-0.224v-0.424h3.611c0.274,0,0.625,0.07,1.053,0.212c0.427,0.142,0.739,0.294,0.935,0.459
			c0.91,0.776,1.365,1.918,1.365,3.424c0,1.129-0.263,2.102-0.788,2.917c-0.612,0.957-1.451,1.436-2.518,1.436h-3.659V33.173z
			 M28.776,33.161c0.714,0,1.271-0.502,1.671-1.506c0.298-0.769,0.447-1.576,0.447-2.423c0-0.809-0.165-1.573-0.494-2.295
			c-0.416-0.917-0.976-1.376-1.682-1.376c-0.016,0-0.557,0.004-1.624,0.012v7.576C28.098,33.157,28.658,33.161,28.776,33.161z"/>
		<path fill="#FFFFFF" d="M43.764,25.573c-0.33,0.094-0.67,0.4-1.023,0.918l-2.106,3.117v2.706c0,0.564,0.31,0.851,0.929,0.858
			v0.412h-2.858v-0.412c0.611,0,0.917-0.286,0.917-0.858v-2.612l-1.93-3.211c-0.329-0.542-0.674-0.848-1.035-0.918v-0.424h2.859
			v0.424h-0.035c-0.235-0.016-0.428,0.035-0.577,0.153c-0.172,0.117-0.259,0.29-0.259,0.518c0,0.117,0.016,0.199,0.047,0.247
			l1.683,2.658l1.706-2.658c0.055-0.087,0.082-0.169,0.082-0.247c0-0.212-0.106-0.381-0.317-0.506
			c-0.181-0.11-0.385-0.165-0.612-0.165v-0.424h2.529V25.573z"/>
		<path fill="#969696" d="M55.247,25.573c-0.33,0.094-0.67,0.4-1.023,0.918l-2.106,3.117v2.706c0,0.564,0.31,0.851,0.929,0.858
			v0.412h-2.858v-0.412c0.611,0,0.917-0.286,0.917-0.858v-2.612l-1.93-3.211c-0.329-0.542-0.674-0.848-1.035-0.918v-0.424H51v0.424
			h-0.035c-0.235-0.016-0.428,0.035-0.577,0.153c-0.172,0.117-0.259,0.29-0.259,0.518c0,0.117,0.016,0.199,0.047,0.247l1.683,2.658
			l1.706-2.658c0.055-0.087,0.082-0.169,0.082-0.247c0-0.212-0.106-0.381-0.317-0.506c-0.181-0.11-0.385-0.165-0.612-0.165v-0.424
			h2.529V25.573z"/>
		<path fill="#969696" d="M59.882,27.62v2.541h-0.341c-0.142-0.564-0.269-0.876-0.382-0.935c-0.114-0.06-0.555-0.101-1.324-0.124
			v4.059h2.106c0.376,0,0.678-0.094,0.906-0.282c0.078-0.062,0.18-0.267,0.306-0.611c0.125-0.346,0.185-0.577,0.177-0.694h0.577
			l-0.459,2.012h-5.541v-0.424c0.619-0.023,0.929-0.31,0.929-0.857V26.43c0-0.289-0.083-0.501-0.247-0.634
			c-0.141-0.109-0.369-0.185-0.682-0.224v-0.423h5.458v2.023h-0.576c0.007-0.118-0.051-0.35-0.177-0.693s-0.228-0.551-0.306-0.622
			c-0.228-0.189-0.53-0.284-0.906-0.284h-1.564v3.094c0.769-0.023,1.204-0.062,1.306-0.117c0.071-0.039,0.153-0.181,0.247-0.424
			c0.086-0.22,0.137-0.388,0.153-0.506H59.882z"/>
		<path fill="#969696" d="M66.447,33.161c0.376,0,0.678-0.094,0.906-0.282c0.078-0.062,0.18-0.269,0.306-0.617
			c0.125-0.35,0.185-0.579,0.177-0.688h0.577l-0.458,2.012h-5.53v-0.412c0.611-0.008,0.917-0.294,0.917-0.858v-5.883
			c0-0.557-0.306-0.843-0.917-0.858v-0.424h2.858v0.424c-0.627,0.023-0.941,0.31-0.941,0.858v6.729H66.447z"/>
		<path fill="#969696" d="M72.953,33.161c0.376,0,0.678-0.094,0.906-0.282c0.078-0.062,0.18-0.269,0.306-0.617
			c0.125-0.35,0.185-0.579,0.177-0.688h0.577l-0.458,2.012h-5.53v-0.412c0.611-0.008,0.917-0.294,0.917-0.858v-5.883
			c0-0.557-0.306-0.843-0.917-0.858v-0.424h2.858v0.424c-0.627,0.023-0.941,0.31-0.941,0.858v6.729H72.953z"/>
		<path fill="#969696" d="M78.682,25.032c1.129,0,2.023,0.455,2.682,1.364c0.596,0.808,0.894,1.796,0.894,2.965
			s-0.298,2.161-0.894,2.977c-0.659,0.902-1.553,1.353-2.682,1.353c-1.122,0-2.012-0.45-2.671-1.353
			c-0.596-0.815-0.894-1.808-0.894-2.977s0.298-2.157,0.894-2.965C76.67,25.487,77.56,25.032,78.682,25.032z M78.658,33.268
			c0.847,0,1.486-0.487,1.918-1.461c0.329-0.746,0.494-1.603,0.494-2.569c0-0.871-0.185-1.677-0.553-2.415
			c-0.463-0.911-1.09-1.367-1.882-1.367c-0.784,0-1.392,0.46-1.823,1.379c-0.337,0.715-0.506,1.517-0.506,2.403
			c0,0.975,0.157,1.826,0.47,2.558C77.192,32.776,77.819,33.268,78.658,33.268z"/>
		<path fill="#969696" d="M88.235,26.22c0,0.103,0.027,0.252,0.083,0.447l1.406,5.334l1.44-5.51
			c0.024-0.087,0.036-0.169,0.036-0.247c0-0.408-0.282-0.632-0.847-0.671v-0.424h2.494v0.424c-0.196,0.016-0.404,0.123-0.624,0.323
			c-0.22,0.2-0.357,0.398-0.412,0.595l-1.965,7.094l-0.582-0.002l-1.603-5.617l-1.574,5.617l-0.583,0.002l-1.976-7.094
			c-0.125-0.439-0.471-0.745-1.036-0.918v-0.424h2.859v0.424c-0.573,0.055-0.859,0.271-0.859,0.646c0,0.087,0.012,0.177,0.037,0.271
			l1.444,5.535l1.331-5.064c0.11-0.423,0.165-0.666,0.165-0.729c0-0.432-0.291-0.651-0.871-0.659v-0.424h2.506v0.424
			C88.525,25.573,88.235,25.789,88.235,26.22z"/>
		<path fill="#FFFFFF" d="M104.058,31.021c0,0.878-0.313,1.549-0.941,2.012c-0.188,0.141-0.479,0.269-0.871,0.382
			c-0.393,0.114-0.718,0.171-0.977,0.171h-4.188v-0.424c0.619-0.031,0.929-0.316,0.929-0.857V26.43c0-0.54-0.31-0.826-0.929-0.857
			v-0.423h3.906c0.596,0,1.141,0.165,1.635,0.494c0.557,0.361,0.835,0.823,0.835,1.389c0,0.368-0.099,0.714-0.294,1.035
			c-0.204,0.353-0.471,0.58-0.8,0.683c0.518,0.133,0.929,0.411,1.235,0.835C103.905,30.009,104.058,30.487,104.058,31.021z
			 M99.011,28.573h1.882c0.471,0,0.851-0.12,1.141-0.36s0.436-0.593,0.436-1.057c0-0.418-0.159-0.786-0.477-1.104
			c-0.318-0.319-0.685-0.479-1.1-0.479h-1.882V28.573z M99.011,33.161h1.859c0.572,0,1.072-0.21,1.5-0.629
			c0.427-0.42,0.641-0.92,0.641-1.5c0-0.557-0.212-1.031-0.635-1.424c-0.424-0.392-0.917-0.588-1.482-0.588h-1.882V33.161z"/>
		<path fill="#969696" d="M115.47,31.021c0,0.878-0.313,1.549-0.941,2.012c-0.188,0.141-0.479,0.269-0.871,0.382
			c-0.393,0.114-0.718,0.171-0.977,0.171h-4.188v-0.424c0.619-0.031,0.929-0.316,0.929-0.857V26.43c0-0.54-0.31-0.826-0.929-0.857
			v-0.423h3.906c0.596,0,1.141,0.165,1.635,0.494c0.557,0.361,0.835,0.823,0.835,1.389c0,0.368-0.099,0.714-0.294,1.035
			c-0.204,0.353-0.471,0.58-0.8,0.683c0.518,0.133,0.929,0.411,1.235,0.835C115.317,30.009,115.47,30.487,115.47,31.021z
			 M110.423,28.573h1.882c0.471,0,0.851-0.12,1.141-0.36s0.436-0.593,0.436-1.057c0-0.418-0.159-0.786-0.477-1.104
			c-0.318-0.319-0.685-0.479-1.1-0.479h-1.882V28.573z M110.423,33.161h1.859c0.572,0,1.072-0.21,1.5-0.629
			c0.427-0.42,0.641-0.92,0.641-1.5c0-0.557-0.212-1.031-0.635-1.424c-0.424-0.392-0.917-0.588-1.482-0.588h-1.882V33.161z"/>
		<path fill="#969696" d="M120.176,33.161c0.376,0,0.678-0.094,0.906-0.282c0.078-0.062,0.18-0.269,0.306-0.617
			c0.125-0.35,0.185-0.579,0.177-0.688h0.577l-0.458,2.012h-5.53v-0.412c0.611-0.008,0.917-0.294,0.917-0.858v-5.883
			c0-0.557-0.306-0.843-0.917-0.858v-0.424h2.858v0.424c-0.627,0.023-0.941,0.31-0.941,0.858v6.729H120.176z"/>
		<path fill="#969696" d="M125.917,33.632c-1.247,0-2.086-0.51-2.518-1.529c-0.141-0.329-0.212-0.631-0.212-0.906v-4.67
			c0-0.612-0.31-0.93-0.929-0.953v-0.424h2.858v0.424c-0.62,0.023-0.929,0.341-0.929,0.953v4.635c0,0.541,0.149,1.008,0.447,1.4
			c0.329,0.432,0.756,0.646,1.282,0.646c0.572,0,1.059-0.197,1.458-0.594c0.4-0.396,0.6-0.88,0.6-1.453v-4.635
			c0-0.322-0.07-0.555-0.211-0.7c-0.142-0.146-0.381-0.229-0.718-0.253v-0.424h2.506v0.424c-0.62,0.023-0.93,0.341-0.93,0.953v4.67
			c0,0.275-0.062,0.573-0.188,0.895C128.027,33.118,127.188,33.632,125.917,33.632z"/>
		<path fill="#969696" d="M134.128,27.62v2.541h-0.341c-0.142-0.564-0.269-0.876-0.382-0.935c-0.114-0.06-0.555-0.101-1.324-0.124
			v4.059h2.106c0.376,0,0.678-0.094,0.906-0.282c0.078-0.062,0.18-0.267,0.306-0.611c0.125-0.346,0.185-0.577,0.177-0.694h0.577
			l-0.459,2.012h-5.541v-0.424c0.619-0.023,0.929-0.31,0.929-0.857V26.43c0-0.289-0.083-0.501-0.247-0.634
			c-0.141-0.109-0.369-0.185-0.682-0.224v-0.423h5.458v2.023h-0.576c0.007-0.118-0.051-0.35-0.177-0.693s-0.228-0.551-0.306-0.622
			c-0.228-0.189-0.53-0.284-0.906-0.284h-1.564v3.094c0.769-0.023,1.204-0.062,1.306-0.117c0.071-0.039,0.153-0.181,0.247-0.424
			c0.086-0.22,0.137-0.388,0.153-0.506H134.128z"/>
		<path fill="#FFFFFF" d="M143.505,29.491l-1.977-3c-0.251-0.385-0.635-0.69-1.153-0.918v-0.424h2.859v0.424
			c-0.008,0-0.023,0-0.047,0c-0.188,0-0.357,0.043-0.506,0.129c-0.181,0.103-0.271,0.239-0.271,0.412
			c0,0.125,0.04,0.251,0.118,0.376l1.491,2.285l1.579-2.285c0.063-0.086,0.095-0.18,0.095-0.282c0-0.368-0.294-0.58-0.882-0.635
			v-0.424h2.529v0.424c-0.361,0.102-0.722,0.406-1.083,0.914l-1.93,2.73l2.006,3.022c0.102,0.155,0.277,0.336,0.527,0.542
			s0.453,0.332,0.609,0.379v0.424h-2.882v-0.424c0.204-0.008,0.388-0.05,0.553-0.128c0.196-0.108,0.294-0.251,0.294-0.43
			c0-0.124-0.04-0.243-0.118-0.359l-1.517-2.27l-1.554,2.269c-0.055,0.086-0.083,0.198-0.083,0.337c0,0.187,0.092,0.336,0.277,0.448
			c0.184,0.112,0.375,0.156,0.57,0.133v0.424h-2.506v-0.424c0.393-0.131,0.758-0.437,1.095-0.917L143.505,29.491z"/>
		<path fill="#969696" d="M158.822,31.021c0,0.878-0.313,1.549-0.941,2.012c-0.188,0.141-0.479,0.269-0.871,0.382
			c-0.393,0.114-0.718,0.171-0.977,0.171h-4.188v-0.424c0.619-0.031,0.929-0.316,0.929-0.857V26.43c0-0.54-0.31-0.826-0.929-0.857
			v-0.423h3.906c0.596,0,1.141,0.165,1.635,0.494c0.557,0.361,0.835,0.823,0.835,1.389c0,0.368-0.099,0.714-0.294,1.035
			c-0.204,0.353-0.471,0.58-0.8,0.683c0.518,0.133,0.929,0.411,1.235,0.835C158.669,30.009,158.822,30.487,158.822,31.021z
			 M153.775,28.573h1.882c0.471,0,0.851-0.12,1.141-0.36s0.436-0.593,0.436-1.057c0-0.418-0.159-0.786-0.477-1.104
			c-0.318-0.319-0.685-0.479-1.1-0.479h-1.882V28.573z M153.775,33.161h1.859c0.572,0,1.072-0.21,1.5-0.629
			c0.427-0.42,0.641-0.92,0.641-1.5c0-0.557-0.212-1.031-0.635-1.424c-0.424-0.392-0.917-0.588-1.482-0.588h-1.882V33.161z"/>
		<path fill="#969696" d="M163.528,33.161c0.376,0,0.678-0.094,0.906-0.282c0.078-0.062,0.18-0.269,0.306-0.617
			c0.125-0.35,0.185-0.579,0.177-0.688h0.577l-0.458,2.012h-5.53v-0.412c0.611-0.008,0.917-0.294,0.917-0.858v-5.883
			c0-0.557-0.306-0.843-0.917-0.858v-0.424h2.858v0.424c-0.627,0.023-0.941,0.31-0.941,0.858v6.729H163.528z"/>
		<path fill="#969696" d="M167.869,31.279c-0.219,0.639-0.329,0.981-0.329,1.028c0,0.266,0.086,0.468,0.259,0.608
			c0.204,0.163,0.404,0.245,0.6,0.245v0.424h-2.436v-0.424c0.502-0.086,0.847-0.396,1.036-0.928l2.141-6.143
			c0.007-0.023,0.012-0.047,0.012-0.07c0-0.134-0.096-0.259-0.289-0.377c-0.192-0.117-0.358-0.177-0.5-0.177v-0.317h1.694
			l2.47,7.095c0.149,0.434,0.49,0.739,1.024,0.917v0.424h-2.765v-0.424c0.196-0.008,0.375-0.074,0.535-0.198
			c0.161-0.125,0.241-0.28,0.241-0.468c0-0.141-0.051-0.347-0.153-0.62c-0.086-0.194-0.169-0.394-0.247-0.596H167.869z
			 M171.011,30.855l-1.509-4.263l-1.471,4.263H171.011z"/>
		<path fill="#969696" d="M174.87,29.232c0,0.925,0.165,1.772,0.494,2.541c0.431,0.996,1.051,1.494,1.858,1.494
			c0.588,0,1.118-0.301,1.588-0.902c0.431-0.546,0.674-1.124,0.729-1.733h0.553c-0.274,0.98-0.564,1.683-0.871,2.106
			c-0.478,0.635-1.141,0.952-1.988,0.952c-1.129,0-2.02-0.458-2.671-1.376c-0.588-0.823-0.882-1.823-0.882-3
			c0-1.161,0.29-2.142,0.871-2.941c0.643-0.894,1.521-1.341,2.635-1.341c0.267,0,0.592,0.047,0.977,0.141
			c0.431,0.11,0.726,0.235,0.882,0.377l0.282-0.354h0.565v2.2h-0.541c-0.134-0.481-0.4-0.915-0.8-1.302
			c-0.439-0.426-0.886-0.64-1.341-0.64c-0.792,0-1.404,0.459-1.835,1.377C175.038,27.546,174.87,28.346,174.87,29.232z"/>
		<path fill="#969696" d="M182.681,29.801v2.506c0,0.569,0.31,0.854,0.929,0.854v0.424h-2.858v-0.424
			c0.619-0.008,0.929-0.293,0.929-0.857v-5.873c0-0.563-0.31-0.85-0.929-0.857v-0.424h2.858v0.424
			c-0.62,0.008-0.929,0.294-0.929,0.858v2.788l3.294-2.729c0.086-0.071,0.129-0.169,0.129-0.295c0-0.36-0.247-0.568-0.741-0.623
			v-0.424h2.765v0.424c-0.322,0.031-1.004,0.494-2.047,1.388c-0.502,0.455-1.008,0.914-1.518,1.377l2.506,3.906
			c0.306,0.465,0.678,0.771,1.118,0.917v0.424h-2.882v-0.424l0.035,0.012c0.22,0.016,0.41-0.029,0.571-0.136
			c0.161-0.105,0.241-0.269,0.241-0.489c0-0.103-0.03-0.204-0.091-0.307l-2.14-3.422L182.681,29.801z"/>
		<path fill="#FFFFFF" d="M196.551,27.62v2.541h-0.341c-0.142-0.564-0.269-0.876-0.382-0.935c-0.114-0.06-0.555-0.101-1.324-0.124
			v4.059h2.106c0.376,0,0.678-0.094,0.906-0.282c0.078-0.062,0.18-0.267,0.306-0.611c0.125-0.346,0.185-0.577,0.177-0.694h0.577
			l-0.459,2.012h-5.541v-0.424c0.619-0.023,0.929-0.31,0.929-0.857V26.43c0-0.289-0.083-0.501-0.247-0.634
			c-0.141-0.109-0.369-0.185-0.682-0.224v-0.423h5.458v2.023h-0.576c0.007-0.118-0.051-0.35-0.177-0.693s-0.228-0.551-0.306-0.622
			c-0.228-0.189-0.53-0.284-0.906-0.284h-1.564v3.094c0.769-0.023,1.204-0.062,1.306-0.117c0.071-0.039,0.153-0.181,0.247-0.424
			c0.086-0.22,0.137-0.388,0.153-0.506H196.551z"/>
		<path fill="#FFFFFF" d="M204.951,26.432c0-0.549-0.31-0.835-0.929-0.858v-0.424h2.494v0.424c-0.314,0.039-0.537,0.113-0.67,0.224
			c-0.165,0.133-0.247,0.345-0.247,0.635v7.153h-0.665l-4.277-7.107v5.828c0,0.289,0.066,0.492,0.2,0.609
			c0.07,0.062,0.186,0.121,0.347,0.176c0.161,0.055,0.285,0.078,0.371,0.07l0.012,0.424h-2.506l-0.012-0.424
			c0.627-0.008,0.941-0.293,0.941-0.857v-5.873c0-0.548-0.31-0.834-0.929-0.857v-0.424h1.929l3.941,6.529V26.432z"/>
		<path fill="#FFFFFF" d="M209.151,25.573c-0.125,0-0.287,0.031-0.482,0.094c-0.196,0.063-0.335,0.128-0.417,0.194
			c-0.083,0.066-0.187,0.274-0.312,0.624c-0.125,0.349-0.185,0.578-0.176,0.688h-0.577v-2.023h6.4v2.023h-0.576
			c0.007-0.109-0.051-0.339-0.177-0.688c-0.125-0.35-0.229-0.558-0.312-0.624c-0.083-0.066-0.224-0.131-0.424-0.194
			c-0.2-0.062-0.359-0.094-0.476-0.094h-0.729v6.73c0,0.557,0.31,0.842,0.929,0.857v0.424h-2.859v-0.424
			c0.314-0.039,0.537-0.113,0.671-0.223c0.165-0.134,0.247-0.345,0.247-0.635v-6.73H209.151z"/>
		<path fill="#FFFFFF" d="M218.269,27.62v2.541h-0.341c-0.142-0.564-0.269-0.876-0.382-0.935c-0.114-0.06-0.555-0.101-1.324-0.124
			v4.059h2.106c0.376,0,0.678-0.094,0.906-0.282c0.078-0.062,0.18-0.267,0.306-0.611c0.125-0.346,0.185-0.577,0.177-0.694h0.577
			l-0.459,2.012h-5.541v-0.424c0.619-0.023,0.929-0.31,0.929-0.857V26.43c0-0.289-0.083-0.501-0.247-0.634
			c-0.141-0.109-0.369-0.185-0.682-0.224v-0.423h5.458v2.023h-0.576c0.007-0.118-0.051-0.35-0.177-0.693s-0.228-0.551-0.306-0.622
			c-0.228-0.189-0.53-0.284-0.906-0.284h-1.564v3.094c0.769-0.023,1.204-0.062,1.306-0.117c0.071-0.039,0.153-0.181,0.247-0.424
			c0.086-0.22,0.137-0.388,0.153-0.506H218.269z"/>
		<path fill="#FFFFFF" d="M227.668,31.75h0.177c-0.086,0.438-0.216,0.831-0.388,1.176c-0.251,0.486-0.542,0.729-0.871,0.729
			c-0.393,0-0.698-0.137-0.918-0.411c-0.157-0.212-0.278-0.53-0.364-0.953c-0.063-0.337-0.122-0.679-0.177-1.023
			c-0.157-0.792-0.718-1.188-1.682-1.188h-0.729v2.227c0,0.539,0.31,0.824,0.929,0.855v0.424h-2.859v-0.424
			c0.62-0.031,0.93-0.316,0.93-0.857V26.43c0-0.556-0.31-0.842-0.93-0.857v-0.423h3.906c0.282,0,0.592,0.047,0.929,0.142
			c0.376,0.109,0.647,0.247,0.812,0.411c0.533,0.526,0.8,1.169,0.8,1.93c0,0.722-0.237,1.313-0.712,1.776s-1.072,0.683-1.794,0.659
			c0.345,0.141,0.545,0.228,0.6,0.259c0.196,0.109,0.353,0.255,0.471,0.436c0.086,0.133,0.188,0.396,0.306,0.788
			c0.125,0.416,0.228,0.702,0.306,0.858c0.142,0.267,0.314,0.4,0.518,0.4C227.233,32.809,227.48,32.455,227.668,31.75z
			 M222.716,29.655h1.635c0.502,0,0.937-0.232,1.306-0.698c0.345-0.441,0.518-0.919,0.518-1.432c0-0.521-0.187-0.976-0.559-1.366
			s-0.814-0.586-1.324-0.586h-1.576V29.655z"/>
		<path fill="#969696" d="M234.963,33.208c1.419,0,2.129-0.607,2.129-1.823c0-0.689-0.733-1.341-2.2-1.953
			c-0.917-0.384-1.518-0.678-1.8-0.882c-0.612-0.447-0.917-1.008-0.917-1.683c0-0.588,0.25-1.043,0.753-1.364
			c0.431-0.274,0.957-0.412,1.576-0.412c0.306,0,0.631,0.047,0.977,0.142c0.392,0.102,0.694,0.234,0.906,0.399l0.271-0.376h0.565
			v2.199h-0.529c-0.008-0.109-0.063-0.271-0.165-0.481c-0.479-0.988-1.133-1.482-1.964-1.482c-0.988,0-1.482,0.403-1.482,1.211
			c0,0.486,0.427,0.91,1.282,1.271c1.506,0.643,2.298,0.992,2.376,1.047c0.855,0.525,1.282,1.228,1.282,2.105
			c0,0.784-0.317,1.412-0.953,1.883c-0.573,0.415-1.267,0.623-2.083,0.623c-0.824,0-1.475-0.188-1.953-0.564l-0.271,0.376h-0.564
			v-2.199h0.529c0,0.211,0.059,0.451,0.176,0.717C233.265,32.793,233.951,33.208,234.963,33.208z"/>
		<path fill="#969696" d="M240.174,31.279c-0.219,0.639-0.329,0.981-0.329,1.028c0,0.266,0.086,0.468,0.259,0.608
			c0.204,0.163,0.404,0.245,0.6,0.245v0.424h-2.436v-0.424c0.502-0.086,0.847-0.396,1.036-0.928l2.141-6.143
			c0.007-0.023,0.012-0.047,0.012-0.07c0-0.134-0.096-0.259-0.289-0.377c-0.192-0.117-0.358-0.177-0.5-0.177v-0.317h1.694
			l2.47,7.095c0.149,0.434,0.49,0.739,1.024,0.917v0.424h-2.765v-0.424c0.196-0.008,0.375-0.074,0.535-0.198
			c0.161-0.125,0.241-0.28,0.241-0.468c0-0.141-0.051-0.347-0.153-0.62c-0.086-0.194-0.169-0.394-0.247-0.596H240.174z
			 M243.316,30.855l-1.509-4.263l-1.471,4.263H243.316z"/>
		<path fill="#969696" d="M251.692,25.573c-0.196,0.008-0.398,0.111-0.606,0.312c-0.208,0.2-0.347,0.402-0.418,0.606l-2.376,7.094
			h-0.588l-2.294-7.094c-0.157-0.479-0.502-0.784-1.035-0.918v-0.424h2.859v0.424h-0.035c-0.196-0.008-0.384,0.047-0.565,0.165
			c-0.18,0.118-0.271,0.271-0.271,0.461c0,0.094,0.013,0.192,0.038,0.295l1.822,5.596l1.813-5.599
			c0.022-0.078,0.033-0.156,0.033-0.235c0-0.204-0.098-0.373-0.294-0.506c-0.165-0.11-0.361-0.169-0.588-0.177v-0.424h2.506V25.573z
			"/>
		<path fill="#969696" d="M256.174,27.62v2.541h-0.341c-0.142-0.564-0.269-0.876-0.382-0.935c-0.114-0.06-0.555-0.101-1.324-0.124
			v4.059h2.106c0.376,0,0.678-0.094,0.906-0.282c0.078-0.062,0.18-0.267,0.306-0.611c0.125-0.346,0.185-0.577,0.177-0.694h0.577
			l-0.459,2.012h-5.541v-0.424c0.619-0.023,0.929-0.31,0.929-0.857V26.43c0-0.289-0.083-0.501-0.247-0.634
			c-0.141-0.109-0.369-0.185-0.682-0.224v-0.423h5.458v2.023h-0.576c0.007-0.118-0.051-0.35-0.177-0.693s-0.228-0.551-0.306-0.622
			c-0.228-0.189-0.53-0.284-0.906-0.284h-1.564v3.094c0.769-0.023,1.204-0.062,1.306-0.117c0.071-0.039,0.153-0.181,0.247-0.424
			c0.086-0.22,0.137-0.388,0.153-0.506H256.174z"/>
		<path fill="#FFFFFF" d="M269.445,31.021c0,0.878-0.313,1.549-0.941,2.012c-0.188,0.141-0.479,0.269-0.871,0.382
			c-0.393,0.114-0.718,0.171-0.977,0.171h-4.188v-0.424c0.619-0.031,0.929-0.316,0.929-0.857V26.43c0-0.54-0.31-0.826-0.929-0.857
			v-0.423h3.906c0.596,0,1.141,0.165,1.635,0.494c0.557,0.361,0.835,0.823,0.835,1.389c0,0.368-0.099,0.714-0.294,1.035
			c-0.204,0.353-0.471,0.58-0.8,0.683c0.518,0.133,0.929,0.411,1.235,0.835C269.292,30.009,269.445,30.487,269.445,31.021z
			 M264.398,28.573h1.882c0.471,0,0.851-0.12,1.141-0.36s0.436-0.593,0.436-1.057c0-0.418-0.159-0.786-0.477-1.104
			c-0.318-0.319-0.685-0.479-1.1-0.479h-1.882V28.573z M264.398,33.161h1.859c0.572,0,1.072-0.21,1.5-0.629
			c0.427-0.42,0.641-0.92,0.641-1.5c0-0.557-0.212-1.031-0.635-1.424c-0.424-0.392-0.917-0.588-1.482-0.588h-1.882V33.161z"/>
		<path fill="#FFFFFF" d="M271.468,31.279c-0.219,0.639-0.329,0.981-0.329,1.028c0,0.266,0.086,0.468,0.259,0.608
			c0.204,0.163,0.404,0.245,0.6,0.245v0.424h-2.436v-0.424c0.502-0.086,0.847-0.396,1.036-0.928l2.141-6.143
			c0.007-0.023,0.012-0.047,0.012-0.07c0-0.134-0.096-0.259-0.289-0.377c-0.192-0.117-0.358-0.177-0.5-0.177v-0.317h1.694
			l2.47,7.095c0.149,0.434,0.49,0.739,1.024,0.917v0.424h-2.765v-0.424c0.196-0.008,0.375-0.074,0.535-0.198
			c0.161-0.125,0.241-0.28,0.241-0.468c0-0.141-0.051-0.347-0.153-0.62c-0.086-0.194-0.169-0.394-0.247-0.596H271.468z
			 M274.61,30.855l-1.509-4.263l-1.471,4.263H274.61z"/>
		<path fill="#FFFFFF" d="M278.469,29.232c0,0.925,0.165,1.772,0.494,2.541c0.431,0.996,1.051,1.494,1.858,1.494
			c0.588,0,1.118-0.301,1.588-0.902c0.431-0.546,0.674-1.124,0.729-1.733h0.553c-0.274,0.98-0.564,1.683-0.871,2.106
			c-0.478,0.635-1.141,0.952-1.988,0.952c-1.129,0-2.02-0.458-2.671-1.376c-0.588-0.823-0.882-1.823-0.882-3
			c0-1.161,0.29-2.142,0.871-2.941c0.643-0.894,1.521-1.341,2.635-1.341c0.267,0,0.592,0.047,0.977,0.141
			c0.431,0.11,0.726,0.235,0.882,0.377l0.282-0.354h0.565v2.2h-0.541c-0.134-0.481-0.4-0.915-0.8-1.302
			c-0.439-0.426-0.886-0.64-1.341-0.64c-0.792,0-1.404,0.459-1.835,1.377C278.637,27.546,278.469,28.346,278.469,29.232z"/>
		<path fill="#FFFFFF" d="M286.28,29.801v2.506c0,0.569,0.31,0.854,0.929,0.854v0.424h-2.858v-0.424
			c0.619-0.008,0.929-0.293,0.929-0.857v-5.873c0-0.563-0.31-0.85-0.929-0.857v-0.424h2.858v0.424
			c-0.62,0.008-0.929,0.294-0.929,0.858v2.788l3.294-2.729c0.086-0.071,0.129-0.169,0.129-0.295c0-0.36-0.247-0.568-0.741-0.623
			v-0.424h2.765v0.424c-0.322,0.031-1.004,0.494-2.047,1.388c-0.502,0.455-1.008,0.914-1.518,1.377l2.506,3.906
			c0.306,0.465,0.678,0.771,1.118,0.917v0.424h-2.882v-0.424l0.035,0.012c0.22,0.016,0.41-0.029,0.571-0.136
			c0.161-0.105,0.241-0.269,0.241-0.489c0-0.103-0.03-0.204-0.091-0.307l-2.14-3.422L286.28,29.801z"/>
		<path fill="#FFFFFF" d="M295.457,33.208c1.419,0,2.129-0.607,2.129-1.823c0-0.689-0.733-1.341-2.2-1.953
			c-0.917-0.384-1.518-0.678-1.8-0.882c-0.612-0.447-0.917-1.008-0.917-1.683c0-0.588,0.25-1.043,0.753-1.364
			c0.431-0.274,0.957-0.412,1.576-0.412c0.306,0,0.631,0.047,0.977,0.142c0.392,0.102,0.694,0.234,0.906,0.399l0.271-0.376h0.565
			v2.199h-0.529c-0.008-0.109-0.063-0.271-0.165-0.481c-0.479-0.988-1.133-1.482-1.964-1.482c-0.988,0-1.482,0.403-1.482,1.211
			c0,0.486,0.427,0.91,1.282,1.271c1.506,0.643,2.298,0.992,2.376,1.047c0.855,0.525,1.282,1.228,1.282,2.105
			c0,0.784-0.317,1.412-0.953,1.883c-0.573,0.415-1.267,0.623-2.083,0.623c-0.824,0-1.475-0.188-1.953-0.564l-0.271,0.376h-0.564
			v-2.199h0.529c0,0.211,0.059,0.451,0.176,0.717C293.758,32.793,294.445,33.208,295.457,33.208z"/>
		<path fill="#FFFFFF" d="M301.174,32.312c0,0.287,0.083,0.496,0.247,0.628c0.141,0.108,0.369,0.183,0.682,0.221v0.424h-2.858
			v-0.424c0.619-0.023,0.929-0.31,0.929-0.857V26.43c0-0.289-0.083-0.501-0.247-0.634c-0.141-0.109-0.369-0.185-0.682-0.224v-0.423
			h3.906c0.282,0,0.592,0.047,0.929,0.142c0.376,0.109,0.647,0.247,0.812,0.411c0.525,0.526,0.788,1.169,0.788,1.93
			c0,0.745-0.263,1.369-0.788,1.871c-0.424,0.407-1.271,0.611-2.542,0.611c-0.172,0-0.39,0-0.653,0s-0.437,0-0.523,0V32.312z
			 M301.174,29.655h1.388c0.588,0,1.081-0.198,1.477-0.596s0.594-0.891,0.594-1.48c0-0.551-0.208-1.022-0.624-1.416
			c-0.416-0.394-0.898-0.59-1.447-0.59h-1.388V29.655z"/>
		<path fill="#FFFFFF" d="M306.703,31.279c-0.219,0.639-0.329,0.981-0.329,1.028c0,0.266,0.086,0.468,0.259,0.608
			c0.204,0.163,0.404,0.245,0.6,0.245v0.424h-2.436v-0.424c0.502-0.086,0.847-0.396,1.036-0.928l2.141-6.143
			c0.007-0.023,0.012-0.047,0.012-0.07c0-0.134-0.096-0.259-0.289-0.377c-0.192-0.117-0.358-0.177-0.5-0.177v-0.317h1.694
			l2.47,7.095c0.149,0.434,0.49,0.739,1.024,0.917v0.424h-2.765v-0.424c0.196-0.008,0.375-0.074,0.535-0.198
			c0.161-0.125,0.241-0.28,0.241-0.468c0-0.141-0.051-0.347-0.153-0.62c-0.086-0.194-0.169-0.394-0.247-0.596H306.703z
			 M309.844,30.855l-1.509-4.263l-1.471,4.263H309.844z"/>
		<path fill="#FFFFFF" d="M313.704,29.232c0,0.925,0.165,1.772,0.494,2.541c0.431,0.996,1.051,1.494,1.858,1.494
			c0.588,0,1.118-0.301,1.588-0.902c0.431-0.546,0.674-1.124,0.729-1.733h0.553c-0.274,0.98-0.564,1.683-0.871,2.106
			c-0.478,0.635-1.141,0.952-1.988,0.952c-1.129,0-2.02-0.458-2.671-1.376c-0.588-0.823-0.882-1.823-0.882-3
			c0-1.161,0.29-2.142,0.871-2.941c0.643-0.894,1.521-1.341,2.635-1.341c0.267,0,0.592,0.047,0.977,0.141
			c0.431,0.11,0.726,0.235,0.882,0.377l0.282-0.354h0.565v2.2h-0.541c-0.134-0.481-0.4-0.915-0.8-1.302
			c-0.439-0.426-0.886-0.64-1.341-0.64c-0.792,0-1.404,0.459-1.835,1.377C313.872,27.546,313.704,28.346,313.704,29.232z"/>
		<path fill="#FFFFFF" d="M323.562,27.62v2.541h-0.341c-0.142-0.564-0.269-0.876-0.382-0.935c-0.114-0.06-0.555-0.101-1.324-0.124
			v4.059h2.106c0.376,0,0.678-0.094,0.906-0.282c0.078-0.062,0.18-0.267,0.306-0.611c0.125-0.346,0.185-0.577,0.177-0.694h0.577
			l-0.459,2.012h-5.541v-0.424c0.619-0.023,0.929-0.31,0.929-0.857V26.43c0-0.289-0.083-0.501-0.247-0.634
			c-0.141-0.109-0.369-0.185-0.682-0.224v-0.423h5.458v2.023h-0.576c0.007-0.118-0.051-0.35-0.177-0.693s-0.228-0.551-0.306-0.622
			c-0.228-0.189-0.53-0.284-0.906-0.284h-1.564v3.094c0.769-0.023,1.204-0.062,1.306-0.117c0.071-0.039,0.153-0.181,0.247-0.424
			c0.086-0.22,0.137-0.388,0.153-0.506H323.562z"/>
		<path fill="#969696" d="M331.126,29.232c0,0.925,0.165,1.772,0.494,2.541c0.431,0.996,1.051,1.494,1.858,1.494
			c0.588,0,1.118-0.301,1.588-0.902c0.431-0.546,0.674-1.124,0.729-1.733h0.553c-0.274,0.98-0.564,1.683-0.871,2.106
			c-0.478,0.635-1.141,0.952-1.988,0.952c-1.129,0-2.02-0.458-2.671-1.376c-0.588-0.823-0.882-1.823-0.882-3
			c0-1.161,0.29-2.142,0.871-2.941c0.643-0.894,1.521-1.341,2.635-1.341c0.267,0,0.592,0.047,0.977,0.141
			c0.431,0.11,0.726,0.235,0.882,0.377l0.282-0.354h0.565v2.2h-0.541c-0.134-0.481-0.4-0.915-0.8-1.302
			c-0.439-0.426-0.886-0.64-1.341-0.64c-0.792,0-1.404,0.459-1.835,1.377C331.295,27.546,331.126,28.346,331.126,29.232z"/>
		<path fill="#969696" d="M341.044,33.161c0.376,0,0.678-0.094,0.906-0.282c0.078-0.062,0.18-0.269,0.306-0.617
			c0.125-0.35,0.185-0.579,0.177-0.688h0.577l-0.458,2.012h-5.53v-0.412c0.611-0.008,0.917-0.294,0.917-0.858v-5.883
			c0-0.557-0.306-0.843-0.917-0.858v-0.424h2.858v0.424c-0.627,0.023-0.941,0.31-0.941,0.858v6.729H341.044z"/>
		<path fill="#969696" d="M347.491,27.62v2.541h-0.341c-0.142-0.564-0.269-0.876-0.382-0.935c-0.114-0.06-0.555-0.101-1.324-0.124
			v4.059h2.106c0.376,0,0.678-0.094,0.906-0.282c0.078-0.062,0.18-0.267,0.306-0.611c0.125-0.346,0.185-0.577,0.177-0.694h0.577
			l-0.459,2.012h-5.541v-0.424c0.619-0.023,0.929-0.31,0.929-0.857V26.43c0-0.289-0.083-0.501-0.247-0.634
			c-0.141-0.109-0.369-0.185-0.682-0.224v-0.423h5.458v2.023h-0.576c0.007-0.118-0.051-0.35-0.177-0.693s-0.228-0.551-0.306-0.622
			c-0.228-0.189-0.53-0.284-0.906-0.284h-1.564v3.094c0.769-0.023,1.204-0.062,1.306-0.117c0.071-0.039,0.153-0.181,0.247-0.424
			c0.086-0.22,0.137-0.388,0.153-0.506H347.491z"/>
		<path fill="#969696" d="M351.891,31.279c-0.219,0.639-0.329,0.981-0.329,1.028c0,0.266,0.086,0.468,0.259,0.608
			c0.204,0.163,0.404,0.245,0.6,0.245v0.424h-2.436v-0.424c0.502-0.086,0.847-0.396,1.036-0.928l2.141-6.143
			c0.007-0.023,0.012-0.047,0.012-0.07c0-0.134-0.096-0.259-0.289-0.377c-0.192-0.117-0.358-0.177-0.5-0.177v-0.317h1.694
			l2.47,7.095c0.149,0.434,0.49,0.739,1.024,0.917v0.424h-2.765v-0.424c0.196-0.008,0.375-0.074,0.535-0.198
			c0.161-0.125,0.241-0.28,0.241-0.468c0-0.141-0.051-0.347-0.153-0.62c-0.086-0.194-0.169-0.394-0.247-0.596H351.891z
			 M355.033,30.855l-1.509-4.263l-1.471,4.263H355.033z"/>
		<path fill="#969696" d="M364.879,31.75h0.177c-0.086,0.438-0.216,0.831-0.388,1.176c-0.251,0.486-0.542,0.729-0.871,0.729
			c-0.393,0-0.698-0.137-0.918-0.411c-0.157-0.212-0.278-0.53-0.364-0.953c-0.063-0.337-0.122-0.679-0.177-1.023
			c-0.157-0.792-0.718-1.188-1.682-1.188h-0.729v2.227c0,0.539,0.31,0.824,0.929,0.855v0.424h-2.859v-0.424
			c0.62-0.031,0.93-0.316,0.93-0.857V26.43c0-0.556-0.31-0.842-0.93-0.857v-0.423h3.906c0.282,0,0.592,0.047,0.929,0.142
			c0.376,0.109,0.647,0.247,0.812,0.411c0.533,0.526,0.8,1.169,0.8,1.93c0,0.722-0.237,1.313-0.712,1.776s-1.072,0.683-1.794,0.659
			c0.345,0.141,0.545,0.228,0.6,0.259c0.196,0.109,0.353,0.255,0.471,0.436c0.086,0.133,0.188,0.396,0.306,0.788
			c0.125,0.416,0.228,0.702,0.306,0.858c0.142,0.267,0.314,0.4,0.518,0.4C364.444,32.809,364.691,32.455,364.879,31.75z
			 M359.927,29.655h1.635c0.502,0,0.937-0.232,1.306-0.698c0.345-0.441,0.518-0.919,0.518-1.432c0-0.521-0.187-0.976-0.559-1.366
			s-0.814-0.586-1.324-0.586h-1.576V29.655z"/>
		<path fill="#969696" d="M370.997,31.279c-0.219,0.639-0.329,0.981-0.329,1.028c0,0.266,0.086,0.468,0.259,0.608
			c0.204,0.163,0.404,0.245,0.6,0.245v0.424h-2.436v-0.424c0.502-0.086,0.847-0.396,1.036-0.928l2.141-6.143
			c0.007-0.023,0.012-0.047,0.012-0.07c0-0.134-0.096-0.259-0.289-0.377c-0.192-0.117-0.358-0.177-0.5-0.177v-0.317h1.694
			l2.47,7.095c0.149,0.434,0.49,0.739,1.024,0.917v0.424h-2.765v-0.424c0.196-0.008,0.375-0.074,0.535-0.198
			c0.161-0.125,0.241-0.28,0.241-0.468c0-0.141-0.051-0.347-0.153-0.62c-0.086-0.194-0.169-0.394-0.247-0.596H370.997z
			 M374.138,30.855l-1.509-4.263l-1.471,4.263H374.138z"/>
		<path fill="#969696" d="M381.15,33.161c0.376,0,0.678-0.094,0.906-0.282c0.078-0.062,0.18-0.269,0.306-0.617
			c0.125-0.35,0.184-0.579,0.176-0.688h0.577l-0.458,2.012h-5.53v-0.412c0.611-0.008,0.917-0.294,0.917-0.858v-5.883
			c0-0.557-0.306-0.843-0.917-0.858v-0.424h2.858v0.424c-0.627,0.023-0.941,0.31-0.941,0.858v6.729H381.15z"/>
		<path fill="#969696" d="M387.656,33.161c0.376,0,0.678-0.094,0.906-0.282c0.078-0.062,0.18-0.269,0.306-0.617
			c0.125-0.35,0.184-0.579,0.176-0.688h0.577l-0.458,2.012h-5.53v-0.412c0.611-0.008,0.917-0.294,0.917-0.858v-5.883
			c0-0.557-0.306-0.843-0.917-0.858v-0.424h2.858v0.424c-0.627,0.023-0.941,0.31-0.941,0.858v6.729H387.656z"/>
		<path fill="#FFFFFF" d="M396.938,33.208c1.419,0,2.129-0.607,2.129-1.823c0-0.689-0.733-1.341-2.199-1.953
			c-0.918-0.384-1.518-0.678-1.801-0.882c-0.611-0.447-0.917-1.008-0.917-1.683c0-0.588,0.251-1.043,0.753-1.364
			c0.431-0.274,0.957-0.412,1.576-0.412c0.306,0,0.632,0.047,0.977,0.142c0.393,0.102,0.694,0.234,0.906,0.399l0.271-0.376h0.564
			v2.199h-0.529c-0.008-0.109-0.063-0.271-0.165-0.481c-0.479-0.988-1.133-1.482-1.965-1.482c-0.988,0-1.482,0.403-1.482,1.211
			c0,0.486,0.428,0.91,1.283,1.271c1.506,0.643,2.298,0.992,2.376,1.047c0.854,0.525,1.282,1.228,1.282,2.105
			c0,0.784-0.317,1.412-0.953,1.883c-0.572,0.415-1.267,0.623-2.082,0.623c-0.823,0-1.475-0.188-1.953-0.564l-0.271,0.376h-0.564
			v-2.199h0.529c0,0.211,0.059,0.451,0.177,0.717C395.24,32.793,395.926,33.208,396.938,33.208z"/>
		<path fill="#969696" d="M407.538,33.208c1.419,0,2.129-0.607,2.129-1.823c0-0.689-0.733-1.341-2.199-1.953
			c-0.918-0.384-1.518-0.678-1.801-0.882c-0.611-0.447-0.917-1.008-0.917-1.683c0-0.588,0.251-1.043,0.753-1.364
			c0.431-0.274,0.957-0.412,1.576-0.412c0.306,0,0.632,0.047,0.977,0.142c0.393,0.102,0.694,0.234,0.906,0.399l0.271-0.376h0.564
			v2.199h-0.529c-0.008-0.109-0.063-0.271-0.165-0.481c-0.479-0.988-1.133-1.482-1.965-1.482c-0.988,0-1.482,0.403-1.482,1.211
			c0,0.486,0.428,0.91,1.283,1.271c1.506,0.643,2.298,0.992,2.376,1.047c0.854,0.525,1.282,1.228,1.282,2.105
			c0,0.784-0.317,1.412-0.953,1.883c-0.572,0.415-1.267,0.623-2.082,0.623c-0.823,0-1.475-0.188-1.953-0.564l-0.271,0.376h-0.564
			v-2.199h0.529c0,0.211,0.059,0.451,0.177,0.717C405.84,32.793,406.526,33.208,407.538,33.208z"/>
		<path fill="#969696" d="M416.891,29.021h-3.636v3.282c0,0.572,0.311,0.858,0.93,0.858v0.424h-2.858v-0.424
			c0.619-0.008,0.929-0.293,0.929-0.857v-5.873c0-0.563-0.31-0.85-0.929-0.857v-0.424h2.858v0.424c-0.619,0-0.93,0.286-0.93,0.858
			v2.165h3.636v-2.165c0-0.572-0.31-0.858-0.93-0.858v-0.424h2.859v0.424c-0.612,0.008-0.918,0.294-0.918,0.857v5.873
			c0,0.572,0.306,0.857,0.918,0.857v0.424h-2.859v-0.424c0.62,0,0.93-0.286,0.93-0.858V29.021z"/>
		<path fill="#969696" d="M423.066,25.032c1.13,0,2.023,0.455,2.683,1.364c0.596,0.808,0.895,1.796,0.895,2.965
			s-0.299,2.161-0.895,2.977c-0.659,0.902-1.553,1.353-2.683,1.353c-1.121,0-2.012-0.45-2.67-1.353
			c-0.597-0.815-0.895-1.808-0.895-2.977s0.298-2.157,0.895-2.965C421.055,25.487,421.945,25.032,423.066,25.032z M423.043,33.268
			c0.848,0,1.486-0.487,1.918-1.461c0.329-0.746,0.494-1.603,0.494-2.569c0-0.871-0.185-1.677-0.553-2.415
			c-0.463-0.911-1.091-1.367-1.883-1.367c-0.784,0-1.393,0.46-1.823,1.379c-0.338,0.715-0.506,1.517-0.506,2.403
			c0,0.975,0.156,1.826,0.471,2.558C421.576,32.776,422.204,33.268,423.043,33.268z"/>
		<path fill="#969696" d="M432.62,26.22c0,0.103,0.027,0.252,0.082,0.447l1.406,5.334l1.44-5.51
			c0.023-0.087,0.035-0.169,0.035-0.247c0-0.408-0.282-0.632-0.847-0.671v-0.424h2.494v0.424c-0.196,0.016-0.404,0.123-0.624,0.323
			c-0.219,0.2-0.356,0.398-0.411,0.595l-1.965,7.094l-0.582-0.002l-1.603-5.617l-1.573,5.617l-0.583,0.002l-1.977-7.094
			c-0.126-0.439-0.471-0.745-1.035-0.918v-0.424h2.858v0.424c-0.572,0.055-0.858,0.271-0.858,0.646c0,0.087,0.012,0.177,0.036,0.271
			l1.444,5.535l1.331-5.064c0.109-0.423,0.164-0.666,0.164-0.729c0-0.432-0.29-0.651-0.87-0.659v-0.424h2.506v0.424
			C432.91,25.573,432.62,25.789,432.62,26.22z"/>
		<path fill="#969696" d="M442.737,29.232c0,0.925,0.164,1.772,0.494,2.541c0.431,0.996,1.051,1.494,1.858,1.494
			c0.589,0,1.118-0.301,1.589-0.902c0.431-0.546,0.674-1.124,0.729-1.733h0.553c-0.274,0.98-0.565,1.683-0.871,2.106
			c-0.479,0.635-1.141,0.952-1.988,0.952c-1.129,0-2.02-0.458-2.67-1.376c-0.589-0.823-0.883-1.823-0.883-3
			c0-1.161,0.29-2.142,0.871-2.941c0.643-0.894,1.521-1.341,2.635-1.341c0.267,0,0.592,0.047,0.977,0.141
			c0.432,0.11,0.726,0.235,0.883,0.377l0.282-0.354h0.564v2.2h-0.541c-0.134-0.481-0.4-0.915-0.8-1.302
			c-0.439-0.426-0.887-0.64-1.342-0.64c-0.792,0-1.404,0.459-1.835,1.377C442.905,27.546,442.737,28.346,442.737,29.232z"/>
		<path fill="#969696" d="M452.266,25.032c1.13,0,2.023,0.455,2.683,1.364c0.596,0.808,0.895,1.796,0.895,2.965
			s-0.299,2.161-0.895,2.977c-0.659,0.902-1.553,1.353-2.683,1.353c-1.121,0-2.012-0.45-2.67-1.353
			c-0.597-0.815-0.895-1.808-0.895-2.977s0.298-2.157,0.895-2.965C450.254,25.487,451.145,25.032,452.266,25.032z M452.242,33.268
			c0.848,0,1.486-0.487,1.918-1.461c0.329-0.746,0.494-1.603,0.494-2.569c0-0.871-0.185-1.677-0.553-2.415
			c-0.463-0.911-1.091-1.367-1.883-1.367c-0.784,0-1.393,0.46-1.823,1.379c-0.338,0.715-0.506,1.517-0.506,2.403
			c0,0.975,0.156,1.826,0.471,2.558C450.775,32.776,451.403,33.268,452.242,33.268z"/>
		<path fill="#969696" d="M462.524,26.432c0-0.549-0.31-0.835-0.929-0.858v-0.424h2.493v0.424c-0.313,0.039-0.537,0.113-0.67,0.224
			c-0.165,0.133-0.247,0.345-0.247,0.635v7.153h-0.665l-4.276-7.107v5.828c0,0.289,0.066,0.492,0.2,0.609
			c0.07,0.062,0.187,0.121,0.347,0.176c0.161,0.055,0.284,0.078,0.371,0.07l0.012,0.424h-2.506l-0.012-0.424
			c0.627-0.008,0.94-0.293,0.94-0.857v-5.873c0-0.548-0.31-0.834-0.929-0.857v-0.424h1.929l3.941,6.529V26.432z"/>
		<path fill="#969696" d="M466.725,25.573c-0.126,0-0.286,0.031-0.482,0.094c-0.196,0.063-0.335,0.128-0.418,0.194
			c-0.082,0.066-0.187,0.274-0.312,0.624c-0.126,0.349-0.185,0.578-0.177,0.688h-0.576v-2.023h6.4v2.023h-0.577
			c0.008-0.109-0.051-0.339-0.176-0.688c-0.126-0.35-0.229-0.558-0.312-0.624c-0.082-0.066-0.224-0.131-0.423-0.194
			c-0.2-0.062-0.359-0.094-0.477-0.094h-0.729v6.73c0,0.557,0.31,0.842,0.93,0.857v0.424h-2.859v-0.424
			c0.313-0.039,0.537-0.113,0.671-0.223c0.164-0.134,0.247-0.345,0.247-0.635v-6.73H466.725z"/>
		<path fill="#969696" d="M478.736,31.75h0.177c-0.087,0.438-0.216,0.831-0.389,1.176c-0.251,0.486-0.541,0.729-0.87,0.729
			c-0.393,0-0.698-0.137-0.918-0.411c-0.157-0.212-0.278-0.53-0.364-0.953c-0.063-0.337-0.122-0.679-0.177-1.023
			c-0.157-0.792-0.718-1.188-1.683-1.188h-0.729v2.227c0,0.539,0.311,0.824,0.93,0.855v0.424h-2.858v-0.424
			c0.619-0.031,0.929-0.316,0.929-0.857V26.43c0-0.556-0.31-0.842-0.929-0.857v-0.423h3.905c0.282,0,0.593,0.047,0.93,0.142
			c0.377,0.109,0.647,0.247,0.812,0.411c0.533,0.526,0.8,1.169,0.8,1.93c0,0.722-0.237,1.313-0.711,1.776
			c-0.475,0.463-1.073,0.683-1.795,0.659c0.346,0.141,0.546,0.228,0.601,0.259c0.196,0.109,0.353,0.255,0.471,0.436
			c0.086,0.133,0.188,0.396,0.306,0.788c0.125,0.416,0.228,0.702,0.306,0.858c0.142,0.267,0.313,0.4,0.518,0.4
			C478.301,32.809,478.548,32.455,478.736,31.75z M473.783,29.655h1.636c0.502,0,0.938-0.232,1.306-0.698
			c0.346-0.441,0.518-0.919,0.518-1.432c0-0.521-0.187-0.976-0.559-1.366c-0.373-0.391-0.813-0.586-1.323-0.586h-1.577V29.655z"/>
		<path fill="#969696" d="M482.865,25.032c1.13,0,2.023,0.455,2.683,1.364c0.596,0.808,0.895,1.796,0.895,2.965
			s-0.299,2.161-0.895,2.977c-0.659,0.902-1.553,1.353-2.683,1.353c-1.121,0-2.012-0.45-2.67-1.353
			c-0.597-0.815-0.895-1.808-0.895-2.977s0.298-2.157,0.895-2.965C480.854,25.487,481.744,25.032,482.865,25.032z M482.842,33.268
			c0.848,0,1.486-0.487,1.918-1.461c0.329-0.746,0.494-1.603,0.494-2.569c0-0.871-0.185-1.677-0.553-2.415
			c-0.463-0.911-1.091-1.367-1.883-1.367c-0.784,0-1.393,0.46-1.823,1.379c-0.338,0.715-0.506,1.517-0.506,2.403
			c0,0.975,0.156,1.826,0.471,2.558C481.375,32.776,482.003,33.268,482.842,33.268z"/>
		<path fill="#969696" d="M491.289,33.161c0.376,0,0.678-0.094,0.906-0.282c0.078-0.062,0.18-0.269,0.306-0.617
			c0.125-0.35,0.184-0.579,0.176-0.688h0.577l-0.458,2.012h-5.53v-0.412c0.611-0.008,0.917-0.294,0.917-0.858v-5.883
			c0-0.557-0.306-0.843-0.917-0.858v-0.424h2.858v0.424c-0.627,0.023-0.941,0.31-0.941,0.858v6.729H491.289z"/>
		<path fill="#969696" d="M496.807,33.208c1.419,0,2.129-0.607,2.129-1.823c0-0.689-0.733-1.341-2.199-1.953
			c-0.918-0.384-1.518-0.678-1.801-0.882c-0.611-0.447-0.917-1.008-0.917-1.683c0-0.588,0.251-1.043,0.753-1.364
			c0.431-0.274,0.957-0.412,1.576-0.412c0.306,0,0.632,0.047,0.977,0.142c0.393,0.102,0.694,0.234,0.906,0.399l0.271-0.376h0.564
			v2.199h-0.529c-0.008-0.109-0.063-0.271-0.165-0.481c-0.479-0.988-1.133-1.482-1.965-1.482c-0.988,0-1.482,0.403-1.482,1.211
			c0,0.486,0.428,0.91,1.283,1.271c1.506,0.643,2.298,0.992,2.376,1.047c0.854,0.525,1.282,1.228,1.282,2.105
			c0,0.784-0.317,1.412-0.953,1.883c-0.572,0.415-1.267,0.623-2.082,0.623c-0.823,0-1.475-0.188-1.953-0.564l-0.271,0.376h-0.564
			v-2.199h0.529c0,0.211,0.059,0.451,0.177,0.717C495.108,32.793,495.795,33.208,496.807,33.208z"/>
	</g>
</g>
</svg>
