<?xml version="1.0" encoding="utf-8"?>
<!-- Generator: Adobe Illustrator 17.0.0, SVG Export Plug-In . SVG Version: 6.00 Build 0)  -->
<!DOCTYPE svg PUBLIC "-//W3C//DTD SVG 1.1//EN" "http://www.w3.org/Graphics/SVG/1.1/DTD/svg11.dtd">
<svg version="1.1" xmlns="http://www.w3.org/2000/svg" xmlns:xlink="http://www.w3.org/1999/xlink" x="0px" y="0px"
	 width="375.159px" height="155.494px" viewBox="0 0 375.159 155.494" enable-background="new 0 0 375.159 155.494"
	 xml:space="preserve">
<g id="Layer_2" display="none">
	<rect x="-62.508" y="-35.543" display="inline" width="502" height="228"/>
</g>
<g id="Layer_1" display="none">
	<rect x="140.766" y="32.791" display="inline" fill="none" width="104.787" height="61.878"/>
	
		<text transform="matrix(1.1353 0 0 1.5817 149.656 41.2508)" display="inline" fill="#FFFFFF" font-family="'RataczakRoman'" font-size="12">S</text>
	
		<text transform="matrix(1 0 0 1 157.6883 41.2508)" display="inline" fill="#FFFFFF" font-family="'RataczakRoman'" font-size="12">HAR</text>
	
		<text transform="matrix(1 0 0 1 182.5633 41.2508)" display="inline" fill="#FFFFFF" font-family="'RataczakRoman'" font-size="12">P </text>
	
		<text transform="matrix(1.1397 0 0 1.5454 193.3279 41.2508)" display="inline" fill="#FFFFFF" font-family="'RataczakRoman'" font-size="12">D</text>
	
		<text transform="matrix(1 0 0 1 202.7376 41.2508)" display="inline" fill="#FFFFFF" font-family="'RataczakRoman'" font-size="12">R</text>
	
		<text transform="matrix(1 0 0 1 210.5701 41.2508)" display="inline" fill="#FFFFFF" font-family="'RataczakRoman'" font-size="12" letter-spacing="-1">A</text>
	
		<text transform="matrix(1 0 0 1 217.5022 41.2508)" display="inline" fill="#FFFFFF" font-family="'RataczakRoman'" font-size="12" letter-spacing="-1">W</text>
	
		<text transform="matrix(0.8183 -0.1368 0.1648 0.9863 228.885 37.8182)" display="inline" fill="#FFFFFF" font-family="'RataczakRoman'" font-size="12" letter-spacing="1.205">®</text>
	
		<text transform="matrix(1 0 0 1 171.99 55.6502)" display="inline" fill="#FFFFFF" font-family="'RataczakRoman'" font-size="12" letter-spacing="-7"> </text>
	
		<text transform="matrix(1 0 0 1 168.4705 55.6502)" display="inline" fill="#FFFFFF" font-family="'RataczakRoman'" font-size="12" letter-spacing="-3"> </text>
	
		<text transform="matrix(1.3984 0 0 1.4566 171.99 59.6649)" display="inline" fill="#FFFFFF" font-family="'RataczakRoman'" font-size="12">D</text>
	<text transform="matrix(1 0 0 1 182.864 55.6502)" display="inline" fill="#FFFFFF" font-family="'RataczakRoman'" font-size="12">E</text>
	
		<text transform="matrix(1.3475 0 0 1.5324 189.9461 60.1385)" display="inline" fill="#FFFFFF" font-family="'RataczakRoman'" font-size="12" letter-spacing="-2.226">L</text>
	
		<text transform="matrix(1 0 0 1 195.1551 55.6502)" display="inline" fill="#FFFFFF" font-family="'RataczakRoman'" font-size="12">U</text>
	
		<text transform="matrix(1.4554 0 0 1.4634 203.1809 59.4129)" display="inline" fill="#FFFFFF" font-family="'RataczakRoman'" font-size="12">X</text>
	<rect x="282.326" y="18.752" display="inline" fill="none" width="152.333" height="89.955"/>
	
		<text transform="matrix(1.1353 0 0 1.5817 342.6793 27.2122)" display="inline" fill="#FFFFFF" font-family="'RataczakRoman'" font-size="12">v1.07</text>
	<polygon display="inline" fill="none" points="273.162,161.457 64.829,161.457 90.823,81.457 299.156,81.457 	"/>
	
		<text transform="matrix(1.2933 0 -0.5337 1.6425 165.2966 90.6512)" display="inline" fill="#00FFFF" font-family="'GiddyupStd'" font-size="12.6175" letter-spacing="-0.773">H</text>
	
		<text transform="matrix(0.9511 0 -0.309 0.9511 176.8267 89.0648)" display="inline" fill="#00FFFF" font-family="'GiddyupStd'" font-size="12.6175">om</text>
	
		<text transform="matrix(0.9511 0 -0.309 0.9511 186.9897 89.0648)" display="inline" fill="#00FFFF" font-family="'GiddyupStd'" font-size="12.6175">e</text>
	
		<text transform="matrix(0.9511 0 -0.309 0.9511 190.5659 89.0648)" display="inline" fill="#00FFFF" font-family="'GiddyupStd'" font-size="12.6175" letter-spacing="1.051"> </text>
	
		<text transform="matrix(1.3128 0.0227 -0.6351 1.8467 193.5828 91.2159)" display="inline" fill="#00FFFF" font-family="'GiddyupStd'" font-size="12.6175">E</text>
	
		<text transform="matrix(0.9511 0 -0.309 0.9511 202.7261 89.0648)" display="inline" fill="#00FFFF" font-family="'GiddyupStd'" font-size="12.6175">dition</text>
	<g display="inline">
		<defs>
			<path id="SVGID_1_" d="M199.759,137.803c-1.135,0-2.055-0.921-2.055-2.056c0-1.136,0.92-2.057,2.055-2.057
				c1.136,0,2.056,0.921,2.056,2.057C201.815,136.883,200.895,137.803,199.759,137.803 M199.759,133.983
				c-0.973,0-1.762,0.79-1.762,1.764c0,0.974,0.789,1.764,1.762,1.764c0.974,0,1.763-0.79,1.763-1.764
				C201.522,134.773,200.733,133.983,199.759,133.983"/>
		</defs>
		<clipPath id="SVGID_2_">
			<use xlink:href="#SVGID_1_"  overflow="visible"/>
		</clipPath>
		<g clip-path="url(#SVGID_2_)">
			<defs>
				<rect id="SVGID_3_" x="197.704" y="133.69" width="4.111" height="4.113"/>
			</defs>
			<clipPath id="SVGID_4_">
				<use xlink:href="#SVGID_3_"  overflow="visible"/>
			</clipPath>
			<g clip-path="url(#SVGID_4_)">
				
					<image overflow="visible" width="44" height="43" xlink:href="2768EB19848024D4.jpg"  transform="matrix(0.1062 0 0 -0.1062 197.4706 138.1082)">
				</image>
			</g>
		</g>
	</g>
	<g display="inline">
		<defs>
			<path id="SVGID_5_" d="M199.759,137.51c-0.973,0-1.762-0.79-1.762-1.764c0-0.974,0.789-1.764,1.762-1.764
				c0.974,0,1.763,0.79,1.763,1.764C201.522,136.721,200.733,137.51,199.759,137.51 M199.759,134.276
				c-0.811,0-1.469,0.659-1.469,1.471c0,0.812,0.658,1.47,1.469,1.47c0.812,0,1.47-0.658,1.47-1.47
				C201.229,134.934,200.571,134.276,199.759,134.276"/>
		</defs>
		<clipPath id="SVGID_6_">
			<use xlink:href="#SVGID_5_"  overflow="visible"/>
		</clipPath>
		<g clip-path="url(#SVGID_6_)">
			<defs>
				<rect id="SVGID_7_" x="197.997" y="133.983" width="3.525" height="3.527"/>
			</defs>
			<clipPath id="SVGID_8_">
				<use xlink:href="#SVGID_7_"  overflow="visible"/>
			</clipPath>
			<g clip-path="url(#SVGID_8_)">
				
					<image overflow="visible" width="40" height="37" xlink:href="2768EB19848024D5.jpg"  transform="matrix(0.1062 0 0 -0.1062 197.683 137.7896)">
				</image>
			</g>
		</g>
	</g>
	<g display="inline">
		<defs>
			<path id="SVGID_9_" d="M199.759,137.217c-0.811,0-1.469-0.658-1.469-1.47c0-0.812,0.658-1.471,1.469-1.471
				c0.812,0,1.47,0.659,1.47,1.471C201.229,136.559,200.571,137.217,199.759,137.217 M199.759,134.569
				c-0.649,0-1.176,0.527-1.176,1.178c0,0.65,0.527,1.177,1.176,1.177c0.65,0,1.177-0.527,1.177-1.177
				C200.936,135.096,200.409,134.569,199.759,134.569"/>
		</defs>
		<clipPath id="SVGID_10_">
			<use xlink:href="#SVGID_9_"  overflow="visible"/>
		</clipPath>
		<g clip-path="url(#SVGID_10_)">
			<defs>
				<rect id="SVGID_11_" x="198.29" y="134.276" width="2.939" height="2.941"/>
			</defs>
			<clipPath id="SVGID_12_">
				<use xlink:href="#SVGID_11_"  overflow="visible"/>
			</clipPath>
			<g clip-path="url(#SVGID_12_)">
				
					<image overflow="visible" width="36" height="32" xlink:href="2768EB19848024D3.jpg"  transform="matrix(0.1062 0 0 -0.1062 198.0015 137.471)">
				</image>
			</g>
		</g>
	</g>
	<g display="inline">
		<defs>
			<path id="SVGID_13_" d="M199.759,136.924c-0.649,0-1.176-0.527-1.176-1.177c0-0.651,0.527-1.178,1.176-1.178
				c0.65,0,1.177,0.527,1.177,1.178C200.936,136.397,200.409,136.924,199.759,136.924 M199.759,134.862
				c-0.487,0-0.883,0.396-0.883,0.885c0,0.488,0.395,0.885,0.883,0.885c0.488,0,0.884-0.396,0.884-0.885
				C200.643,135.258,200.248,134.862,199.759,134.862"/>
		</defs>
		<clipPath id="SVGID_14_">
			<use xlink:href="#SVGID_13_"  overflow="visible"/>
		</clipPath>
		<g clip-path="url(#SVGID_14_)">
			<defs>
				<rect id="SVGID_15_" x="198.583" y="134.569" width="2.353" height="2.355"/>
			</defs>
			<clipPath id="SVGID_16_">
				<use xlink:href="#SVGID_15_"  overflow="visible"/>
			</clipPath>
			<g clip-path="url(#SVGID_16_)">
				
					<image overflow="visible" width="28" height="26" xlink:href="2768EB19848024DC.jpg"  transform="matrix(0.1062 0 0 -0.1062 198.3202 137.1525)">
				</image>
			</g>
		</g>
	</g>
	<g display="inline">
		<defs>
			<path id="SVGID_17_" d="M199.759,136.631c-0.487,0-0.883-0.396-0.883-0.885c0-0.489,0.395-0.885,0.883-0.885
				c0.488,0,0.884,0.396,0.884,0.885C200.643,136.235,200.248,136.631,199.759,136.631"/>
		</defs>
		<clipPath id="SVGID_18_">
			<use xlink:href="#SVGID_17_"  overflow="visible"/>
		</clipPath>
		<g clip-path="url(#SVGID_18_)">
			<defs>
				<rect id="SVGID_19_" x="198.876" y="134.862" width="1.767" height="1.769"/>
			</defs>
			<clipPath id="SVGID_20_">
				<use xlink:href="#SVGID_19_"  overflow="visible"/>
			</clipPath>
			<g clip-path="url(#SVGID_20_)">
				
					<image overflow="visible" width="24" height="21" xlink:href="2768EB19848024DF.jpg"  transform="matrix(0.1062 0 0 -0.1062 198.6388 136.9401)">
				</image>
			</g>
		</g>
	</g>
	<path display="inline" fill="#FFFFFF" d="M200.35,135.747c0,0.326-0.264,0.592-0.591,0.592c-0.325,0-0.59-0.265-0.59-0.592
		c0-0.327,0.264-0.592,0.59-0.592C200.086,135.155,200.35,135.42,200.35,135.747L200.35,135.747z"/>
	<path display="inline" fill="#FFFFFF" d="M343.394,111.935c0,28.524,0.754,29.902,10.839,19.818
		c-10.085,10.084-8.707,10.837,19.816,10.837c-28.523,0-29.901,0.753-19.816,10.837c-10.085-10.084-10.839-8.706-10.839,19.818
		c0-28.524-0.753-29.902-10.837-19.818c10.084-10.084,8.706-10.837-19.818-10.837c28.524,0,29.902-0.753,19.818-10.837
		C342.641,141.837,343.394,140.459,343.394,111.935L343.394,111.935z"/>
	<path display="inline" fill="#F7931E" d="M-1.863,93.802c0,0,0.403,0.047,1.185,0.138c0.781,0.094,1.943,0.206,3.447,0.466
		c3.003,0.489,7.43,1.33,12.788,3.328c5.342,1.993,11.595,5.219,17.855,10.178c3.122,2.478,6.278,5.332,9.365,8.563
		c3.112,3.209,6.14,6.799,9.228,10.582c3.086,3.784,6.203,7.793,9.547,11.817c3.348,4.015,6.92,8.069,11.015,11.743
		c4.088,3.663,8.748,6.915,14.019,9.096c5.26,2.196,11.073,3.277,17.014,3.286c5.948,0.041,12.001-0.942,17.973-2.499
		c1.5-0.363,2.98-0.842,4.475-1.268c1.476-0.498,2.974-0.934,4.444-1.485l2.214-0.798l0.278-0.1
		c0.066-0.023-0.081,0.036,0.046-0.019l0.135-0.062l0.544-0.246l1.087-0.493c1.431-0.667,2.809-1.345,4.213-2.086
		c11.199-5.859,21.344-13.997,32.256-21.217c5.465-3.597,11.183-6.931,17.265-9.502c3.037-1.285,6.162-2.373,9.345-3.218
		c0.796-0.21,1.591-0.425,2.397-0.588l1.205-0.264l0.302-0.067l0.184-0.036l0.148-0.026l0.594-0.103
		c0.792-0.136,1.567-0.286,2.414-0.377c0.831-0.106,1.662-0.216,2.479-0.264c6.567-0.548,13.123,0.218,19.306,1.812
		c6.197,1.588,12.053,3.945,17.589,6.627c11.09,5.362,20.895,12.089,30.214,18.14c9.371,5.964,18.689,10.903,27.736,14.33
		c9.034,3.43,17.797,5.341,25.643,5.494c3.919,0.083,7.592-0.268,10.923-0.929c3.329-0.673,6.313-1.647,8.906-2.765
		c5.193-2.246,8.847-4.888,11.201-6.795c0.592-0.476,1.107-0.908,1.539-1.295c0.44-0.378,0.805-0.704,1.088-0.975
		c0.576-0.537,0.873-0.813,0.873-0.813s-0.287,0.287-0.845,0.843c-0.274,0.283-0.627,0.621-1.054,1.015
		c-0.419,0.403-0.918,0.855-1.497,1.352c-2.299,1.984-5.855,4.81-11.066,7.21c-2.596,1.2-5.6,2.271-8.97,3.045
		c-3.371,0.763-7.107,1.22-11.107,1.241c-3.999,0.026-8.256-0.38-12.661-1.217c-4.405-0.842-8.95-2.137-13.567-3.807
		c-9.245-3.333-18.758-8.184-28.317-14.053c-9.494-5.945-19.295-12.414-30.195-17.613c-5.44-2.581-11.154-4.82-17.123-6.296
		c-5.958-1.471-12.183-2.166-18.374-1.638c-0.781,0.048-1.535,0.151-2.294,0.25c-0.746,0.077-1.547,0.232-2.336,0.37l-0.592,0.105
		l-0.148,0.027l-0.111,0.023l-0.287,0.064l-1.149,0.255c-0.77,0.158-1.527,0.366-2.287,0.568c-3.038,0.814-6.026,1.864-8.943,3.108
		c-5.845,2.482-11.387,5.747-16.77,9.283c-10.767,7.072-21.028,15.271-32.563,21.275c-1.424,0.748-2.915,1.475-4.371,2.15
		l-1.088,0.488l-0.544,0.245l-0.136,0.061l-0.23,0.093l-0.284,0.099l-2.27,0.797c-1.503,0.551-3.046,0.989-4.561,1.485
		c-1.539,0.426-3.059,0.904-4.608,1.266c-6.158,1.551-12.445,2.528-18.691,2.437c-6.231-0.058-12.418-1.242-17.946-3.676
		c-5.548-2.398-10.372-5.894-14.527-9.737c-4.163-3.856-7.725-8.036-11.037-12.137c-3.308-4.11-6.36-8.166-9.373-11.982
		c-6-7.641-11.903-14.323-17.977-19.336c-6.042-5.043-12.127-8.385-17.37-10.498c-5.26-2.095-9.623-3.132-12.603-3.709
		c-1.489-0.311-2.648-0.463-3.426-0.584C-1.461,93.863-1.863,93.802-1.863,93.802L-1.863,93.802z"/>
	<path display="inline" fill="#F7931E" d="M0.429,44.899c0,0,1.217-0.122,3.499-0.349c2.287-0.154,5.649-0.451,9.941-0.365
		c2.144,0.065,4.522,0.154,7.095,0.46c2.575,0.273,5.351,0.732,8.259,1.481c5.79,1.477,12.255,4.165,17.932,9.032
		c0.73,0.579,1.393,1.246,2.102,1.878c0.662,0.679,1.367,1.332,2.006,2.059c1.327,1.41,2.555,2.953,3.75,4.558
		c2.374,3.227,4.473,6.8,6.386,10.579c3.814,7.575,6.892,15.941,10.166,24.487c3.28,8.536,6.843,17.313,11.855,25.417
		c2.506,4.041,5.361,7.905,8.646,11.395c1.626,1.76,3.388,3.393,5.217,4.946l0.692,0.575l0.346,0.287l0.174,0.144
		c-0.002,0.001,0.126,0.099,0.018,0.02l0.095,0.064c0.505,0.338,1.019,0.7,1.507,0.987c0.979,0.615,2.038,1.177,3.1,1.676
		c4.278,2.003,9.003,2.969,13.74,3.063c4.746,0.097,9.492-0.645,14.067-1.857c9.168-2.464,17.678-6.694,25.408-11.463
		c1.933-1.201,3.818-2.443,5.649-3.722c1.819-1.283,3.634-2.614,5.458-3.861c3.684-2.519,7.394-4.784,11.162-6.743
		c7.513-3.925,15.277-6.508,22.676-7.291c7.404-0.838,14.277,0.22,20,1.977c2.871,0.883,5.478,1.93,7.843,2.99
		c2.344,1.1,4.465,2.178,6.318,3.262c3.728,2.125,6.484,4.07,8.361,5.386c1.849,1.357,2.836,2.08,2.836,2.08
		s-1.01-0.689-2.904-1.981c-1.915-1.259-4.749-3.073-8.505-5.105c-1.87-1.03-4.004-2.047-6.357-3.078
		c-2.369-0.99-4.974-1.958-7.825-2.755c-5.689-1.584-12.421-2.423-19.624-1.522c-7.201,0.878-14.738,3.512-22.054,7.481
		c-3.662,1.976-7.3,4.278-10.864,6.797c-1.786,1.299-3.592,2.611-5.415,3.935c-1.854,1.312-3.759,2.584-5.715,3.815
		c-7.825,4.889-16.449,9.255-25.896,11.857c-4.716,1.279-9.65,2.087-14.658,2.016c-2.501-0.041-5.014-0.297-7.484-0.824
		c-2.466-0.537-4.881-1.353-7.168-2.441c-1.146-0.549-2.249-1.139-3.336-1.831c-0.563-0.339-1.046-0.686-1.555-1.031l-0.095-0.065
		c-0.168-0.126-0.098-0.077-0.159-0.125l-0.179-0.15l-0.358-0.3l-0.715-0.599c-1.886-1.619-3.703-3.319-5.374-5.147
		c-3.38-3.625-6.299-7.622-8.846-11.774c-5.092-8.33-8.646-17.238-11.895-25.816c-3.248-8.588-6.116-16.967-9.78-24.471
		c-1.828-3.748-3.832-7.278-6.1-10.461c-1.143-1.582-2.317-3.105-3.586-4.495c-0.61-0.718-1.286-1.361-1.92-2.032
		c-0.679-0.623-1.316-1.283-2.016-1.855c-5.455-4.782-11.659-7.604-17.338-9.193c-2.847-0.808-5.579-1.331-8.125-1.664
		c-2.543-0.366-4.903-0.513-7.035-0.63c-4.268-0.18-7.629-0.029-9.918,0.059C1.65,44.818,0.429,44.899,0.429,44.899L0.429,44.899z"
		/>
</g>
<g id="outlines">
	<g>
		<path fill="#FFFFFF" d="M103.935,35.522c3.63,0,5.445-2.164,5.445-6.496c0-2.458-1.875-4.777-5.625-6.957
			c-2.346-1.369-3.88-2.416-4.602-3.143c-1.564-1.592-2.347-3.591-2.347-5.994c0-2.096,0.642-3.716,1.926-4.862
			c1.103-0.978,2.447-1.467,4.031-1.467c0.783,0,1.614,0.168,2.497,0.504c1.002,0.363,1.775,0.838,2.316,1.424l0.692-1.341h1.444
			v7.837h-1.354c-0.02-0.39-0.161-0.963-0.421-1.718c-1.223-3.52-2.898-5.281-5.024-5.281c-2.526,0-3.79,1.44-3.79,4.316
			c0,1.733,1.092,3.242,3.278,4.526c3.85,2.292,5.876,3.536,6.077,3.73c2.185,1.873,3.278,4.374,3.278,7.502
			c0,2.794-0.812,5.029-2.436,6.705c-1.465,1.481-3.24,2.221-5.325,2.221c-2.106,0-3.771-0.67-4.994-2.011l-0.692,1.342h-1.444
			v-7.838h1.354c0,0.754,0.151,1.607,0.451,2.557C99.593,34.042,101.348,35.522,103.935,35.522z"/>
		<path fill="#FFFFFF" d="M126.71,26.597h-8.188v7.393c0,1.289,0.697,1.934,2.093,1.934v0.953h-6.438v-0.953
			c1.394-0.018,2.093-0.662,2.093-1.932V20.766c0-1.27-0.698-1.914-2.093-1.931V17.88h6.438v0.955c-1.396,0-2.093,0.644-2.093,1.934
			v4.875h8.188v-4.875c0-1.29-0.698-1.934-2.093-1.934V17.88h6.438v0.955c-1.377,0.018-2.066,0.661-2.066,1.931v13.228
			c0,1.288,0.69,1.932,2.066,1.932v0.953h-6.438v-0.953c1.394,0,2.093-0.646,2.093-1.934V26.597z"/>
		<path fill="#FFFFFF" d="M137.701,31.685c-0.494,1.44-0.741,2.213-0.741,2.318c0,0.596,0.194,1.054,0.583,1.369
			c0.459,0.368,0.909,0.553,1.352,0.553v0.953h-5.485v-0.953c1.131-0.195,1.908-0.891,2.333-2.091L140.564,20
			c0.016-0.053,0.026-0.106,0.026-0.159c0-0.3-0.217-0.583-0.65-0.848c-0.432-0.265-0.807-0.397-1.126-0.397V17.88h3.816
			l5.564,15.979c0.335,0.977,1.104,1.665,2.306,2.066v0.953h-6.227v-0.953c0.441-0.018,0.843-0.167,1.205-0.448
			c0.362-0.282,0.543-0.632,0.543-1.054c0-0.316-0.115-0.782-0.344-1.396c-0.195-0.439-0.381-0.886-0.556-1.344H137.701z
			 M144.777,30.731l-3.399-9.602l-3.313,9.602H144.777z"/>
		<path fill="#FFFFFF" d="M168.035,32.745h0.398c-0.195,0.99-0.486,1.873-0.874,2.65c-0.565,1.095-1.22,1.642-1.961,1.642
			c-0.884,0-1.573-0.308-2.068-0.927c-0.353-0.477-0.627-1.192-0.82-2.146c-0.142-0.76-0.275-1.529-0.398-2.306
			c-0.353-1.784-1.617-2.676-3.789-2.676h-1.643v5.015c0,1.215,0.697,1.857,2.093,1.928v0.953h-6.439v-0.953
			c1.396-0.07,2.094-0.715,2.094-1.932V20.764c0-1.253-0.698-1.896-2.094-1.931V17.88h8.798c0.636,0,1.333,0.107,2.093,0.319
			c0.848,0.247,1.457,0.556,1.829,0.927c1.201,1.183,1.801,2.632,1.801,4.345c0,1.625-0.534,2.959-1.603,4.001
			c-1.069,1.043-2.415,1.537-4.04,1.485c0.777,0.318,1.227,0.512,1.352,0.583c0.441,0.247,0.795,0.574,1.06,0.98
			c0.194,0.301,0.423,0.893,0.688,1.776c0.283,0.936,0.512,1.58,0.688,1.933c0.319,0.602,0.707,0.902,1.167,0.902
			C167.055,35.13,167.612,34.335,168.035,32.745z M156.88,28.028h3.683c1.131,0,2.11-0.523,2.941-1.572
			c0.778-0.995,1.167-2.07,1.167-3.226c0-1.172-0.42-2.198-1.259-3.077c-0.839-0.88-1.833-1.32-2.981-1.32h-3.55V28.028z"/>
		<path fill="#FFFFFF" d="M174.548,34.013c0,0.646,0.186,1.117,0.556,1.414c0.318,0.244,0.83,0.41,1.536,0.498v0.953h-6.438v-0.953
			c1.394-0.054,2.093-0.697,2.093-1.932V20.764c0-0.652-0.186-1.129-0.556-1.429c-0.318-0.247-0.83-0.415-1.536-0.503V17.88h8.797
			c0.636,0,1.333,0.107,2.093,0.319c0.848,0.247,1.457,0.556,1.829,0.927c1.183,1.183,1.775,2.632,1.775,4.345
			c0,1.678-0.592,3.083-1.775,4.213c-0.955,0.919-2.862,1.378-5.724,1.378c-0.388,0-0.879,0-1.47,0c-0.592,0-0.984,0-1.179,0V34.013
			z M174.548,28.028h3.127c1.325,0,2.434-0.446,3.326-1.342c0.892-0.894,1.338-2.006,1.338-3.335c0-1.239-0.468-2.302-1.404-3.188
			c-0.937-0.885-2.023-1.328-3.26-1.328h-3.127V28.028z"/>
		<path fill="#FFFFFF" d="M194.505,35.432c1.59-0.136,2.386-1.133,2.386-2.99V11.968c0-1.037-0.212-1.787-0.635-2.252
			c-0.342-0.382-0.926-0.64-1.752-0.778V7.464h9.272c0.704,0,1.605,0.245,2.702,0.737s1.897,1.024,2.401,1.597
			c2.336,2.702,3.504,6.674,3.504,11.916c0,3.932-0.675,7.317-2.024,10.155c-1.57,3.331-3.725,4.996-6.463,4.996h-9.392V35.432z
			 M203.777,35.39c1.831,0,3.261-1.746,4.288-5.241c0.764-2.675,1.147-5.487,1.147-8.435c0-2.811-0.422-5.472-1.268-7.985
			c-1.068-3.194-2.506-4.79-4.319-4.79c-0.041,0-1.43,0.014-4.167,0.041v26.37C202.035,35.377,203.475,35.39,203.777,35.39z"/>
		<path fill="#FFFFFF" d="M231.113,32.745h0.398c-0.195,0.99-0.486,1.873-0.874,2.65c-0.565,1.095-1.22,1.642-1.961,1.642
			c-0.884,0-1.573-0.308-2.067-0.927c-0.353-0.477-0.627-1.192-0.82-2.146c-0.142-0.76-0.275-1.529-0.398-2.306
			c-0.353-1.784-1.617-2.676-3.789-2.676h-1.643v5.015c0,1.215,0.697,1.857,2.093,1.928v0.953h-6.439v-0.953
			c1.396-0.07,2.094-0.715,2.094-1.932V20.764c0-1.253-0.698-1.896-2.094-1.931V17.88h8.798c0.636,0,1.333,0.107,2.093,0.319
			c0.848,0.247,1.457,0.556,1.829,0.927c1.201,1.183,1.801,2.632,1.801,4.345c0,1.625-0.534,2.959-1.603,4.001
			c-1.069,1.043-2.415,1.537-4.04,1.485c0.778,0.318,1.227,0.512,1.352,0.583c0.441,0.247,0.795,0.574,1.06,0.98
			c0.194,0.301,0.423,0.893,0.688,1.776c0.283,0.936,0.512,1.58,0.688,1.933c0.319,0.602,0.707,0.902,1.167,0.902
			C230.133,35.13,230.69,34.335,231.113,32.745z M219.959,28.028h3.683c1.131,0,2.11-0.523,2.941-1.572
			c0.778-0.995,1.167-2.07,1.167-3.226c0-1.172-0.42-2.198-1.259-3.077c-0.839-0.88-1.833-1.32-2.981-1.32h-3.55V28.028z"/>
		<path fill="#FFFFFF" d="M237.493,31.685c-0.494,1.44-0.741,2.213-0.741,2.318c0,0.596,0.194,1.054,0.583,1.369
			c0.459,0.368,0.909,0.553,1.352,0.553v0.953h-5.485v-0.953c1.131-0.195,1.908-0.891,2.333-2.091L240.355,20
			c0.016-0.053,0.026-0.106,0.026-0.159c0-0.3-0.217-0.583-0.65-0.848c-0.432-0.265-0.807-0.397-1.126-0.397V17.88h3.816
			l5.564,15.979c0.335,0.977,1.104,1.665,2.306,2.066v0.953h-6.227v-0.953c0.441-0.018,0.843-0.167,1.205-0.448
			c0.362-0.282,0.543-0.632,0.543-1.054c0-0.316-0.115-0.782-0.344-1.396c-0.195-0.439-0.381-0.886-0.556-1.344H237.493z
			 M244.569,30.731l-3.399-9.602l-3.313,9.602H244.569z"/>
		<path fill="#FFFFFF" d="M261.718,20.292c0,0.23,0.062,0.565,0.186,1.007l3.167,12.012l3.244-12.41
			c0.054-0.194,0.08-0.379,0.08-0.556c0-0.918-0.636-1.422-1.908-1.51V17.88h5.617v0.955c-0.442,0.035-0.911,0.278-1.404,0.728
			c-0.495,0.451-0.804,0.897-0.927,1.338l-4.425,15.978l-1.31-0.003l-3.61-12.652l-3.544,12.652l-1.313,0.003l-4.451-15.978
			c-0.283-0.989-1.06-1.678-2.333-2.066V17.88h6.439v0.955c-1.29,0.123-1.934,0.609-1.934,1.457c0,0.194,0.027,0.397,0.082,0.608
			l3.253,12.467l2.997-11.405c0.247-0.953,0.372-1.501,0.372-1.643c0-0.971-0.654-1.466-1.961-1.484V17.88h5.644v0.955
			C262.371,18.834,261.718,19.321,261.718,20.292z"/>
		<path fill="#FFFFFF" d="M279.617,9.072c2.052-0.343,3.956,0.243,5.71,1.758c1.754,1.517,2.838,3.511,3.252,5.985
			c0.414,2.474,0.036,4.713-1.129,6.717s-2.775,3.177-4.827,3.52c-2.053,0.343-3.957-0.243-5.71-1.76
			c-1.755-1.515-2.838-3.51-3.252-5.985c-0.413-2.473-0.037-4.712,1.128-6.716C275.955,10.589,277.565,9.415,279.617,9.072z
			 M274.396,19.172c0.376,2.245,1.348,4.04,2.918,5.386c1.57,1.347,3.287,1.865,5.152,1.553c1.85-0.309,3.297-1.359,4.343-3.153
			c1.045-1.793,1.381-3.803,1.01-6.029c-0.375-2.245-1.345-4.045-2.909-5.402c-1.564-1.356-3.278-1.879-5.143-1.567
			c-1.864,0.311-3.319,1.364-4.365,3.156C274.356,14.911,274.02,16.929,274.396,19.172z M284.469,19.033l0.152-0.025
			c0.01,1.305-0.231,1.999-0.721,2.082c-0.507,0.085-0.884-0.175-1.134-0.778c-0.194-0.541-0.39-1.09-0.587-1.648
			c-0.321-0.591-0.815-0.83-1.479-0.719l-0.607,0.101l0.381,2.281c0.086,0.514,0.387,0.762,0.905,0.749l0.072,0.423l-2.363,0.395
			l-0.07-0.42c0.494-0.155,0.698-0.486,0.614-0.995l-0.989-5.919c-0.095-0.561-0.396-0.808-0.904-0.741l-0.07-0.418l3.231-0.54
			c0.636-0.107,1.186,0.03,1.651,0.409c0.464,0.379,0.761,0.952,0.889,1.719c0.12,0.715,0.022,1.331-0.293,1.849
			c-0.315,0.518-0.775,0.828-1.382,0.929c0.28,0.079,0.461,0.139,0.542,0.178c0.179,0.096,0.334,0.222,0.464,0.379
			c0.003,0.018,0.186,0.398,0.548,1.144c0.25,0.514,0.483,0.752,0.699,0.716C284.275,20.141,284.426,19.757,284.469,19.033z
			 M280.022,17.628l1.344-0.225c0.405-0.067,0.723-0.344,0.953-0.83s0.305-0.982,0.22-1.488c-0.088-0.522-0.317-0.958-0.687-1.309
			c-0.371-0.35-0.772-0.488-1.206-0.417l-1.305,0.191L280.022,17.628z"/>
	</g>
	<g>
		<path fill="#FFFFFF" d="M141.806,69.617c1.951-0.128,2.927-1.067,2.927-2.818V47.503c0-0.978-0.26-1.685-0.779-2.124
			c-0.42-0.36-1.136-0.604-2.149-0.732v-1.39h11.376c0.864,0,1.97,0.232,3.316,0.695s2.328,0.964,2.946,1.506
			c2.865,2.547,4.298,6.29,4.298,11.232c0,3.704-0.828,6.895-2.482,9.572c-1.927,3.139-4.57,4.707-7.93,4.707h-11.523V69.617z
			 M153.181,69.58c2.247,0,4.002-1.647,5.261-4.94c0.938-2.523,1.408-5.173,1.408-7.951c0-2.65-0.518-5.159-1.556-7.527
			c-1.31-3.011-3.075-4.515-5.299-4.515c-0.049,0-1.754,0.013-5.113,0.038V69.54C151.044,69.567,152.811,69.58,153.181,69.58z"/>
		<path fill="#FFFFFF" d="M175.083,48.505v5.723h-0.768c-0.319-1.271-0.606-1.973-0.861-2.106c-0.257-0.132-1.25-0.225-2.981-0.278
			v9.141h4.743c0.848,0,1.528-0.211,2.04-0.636c0.176-0.141,0.406-0.6,0.688-1.377c0.283-0.779,0.416-1.3,0.398-1.564h1.299
			l-1.034,4.531h-12.48v-0.955c1.394-0.053,2.093-0.697,2.093-1.931V45.825c0-0.652-0.186-1.129-0.556-1.429
			c-0.318-0.247-0.83-0.415-1.536-0.503V42.94h12.294v4.558h-1.298c0.017-0.267-0.115-0.787-0.398-1.562
			c-0.283-0.774-0.512-1.242-0.688-1.402c-0.512-0.427-1.193-0.64-2.041-0.64h-3.524v6.969c1.731-0.054,2.711-0.142,2.941-0.265
			c0.159-0.089,0.345-0.407,0.556-0.955c0.195-0.494,0.309-0.874,0.345-1.139H175.083z"/>
		<path fill="#FFFFFF" d="M194.473,70.572c1.143,0,2.059-0.326,2.749-0.974c0.238-0.216,0.547-0.928,0.928-2.131
			c0.381-1.205,0.559-1.997,0.536-2.375h1.75l-1.39,6.944h-16.784v-1.423c1.856-0.026,2.785-1.014,2.785-2.963V47.347
			c0-1.922-0.928-2.91-2.785-2.965V42.92h8.676v1.462c-1.905,0.081-2.856,1.07-2.856,2.965v23.225H194.473z"/>
		<path fill="#FFFFFF" d="M202.051,62.045c-2.809,0-4.699-1.148-5.67-3.444c-0.318-0.741-0.477-1.421-0.477-2.041V46.04
			c0-1.377-0.698-2.093-2.093-2.146V42.94h6.438v0.955c-1.396,0.053-2.093,0.769-2.093,2.146v10.44c0,1.219,0.335,2.27,1.007,3.154
			c0.741,0.972,1.703,1.456,2.888,1.456c1.289,0,2.384-0.444,3.285-1.337c0.902-0.891,1.352-1.982,1.352-3.273V46.04
			c0-0.724-0.158-1.249-0.476-1.576c-0.319-0.327-0.858-0.517-1.617-0.57V42.94h5.644v0.955c-1.396,0.053-2.094,0.769-2.094,2.146
			v10.519c0,0.62-0.141,1.291-0.423,2.015C206.803,60.888,204.913,62.045,202.051,62.045z"/>
		<path fill="#FFFFFF" d="M222.185,56.909l-6.481-9.89c-0.823-1.267-2.082-2.274-3.779-3.024v-1.397h9.371v1.397
			c-0.026,0-0.077,0-0.154,0c-0.617,0-1.17,0.142-1.658,0.427c-0.592,0.335-0.887,0.787-0.887,1.356c0,0.414,0.129,0.828,0.386,1.24
			l4.888,7.531l5.174-7.531c0.207-0.285,0.311-0.595,0.311-0.93c0-1.214-0.964-1.912-2.892-2.093v-1.397h8.291v1.397
			c-1.183,0.334-2.366,1.339-3.548,3.012l-6.328,9l6.575,9.964c0.332,0.512,0.908,1.106,1.728,1.786
			c0.819,0.677,1.485,1.095,1.997,1.249V70.4h-9.449v-1.394c0.669-0.026,1.273-0.167,1.813-0.422
			c0.642-0.356,0.963-0.829,0.963-1.416c0-0.407-0.129-0.803-0.385-1.186l-4.972-7.48l-5.094,7.478
			c-0.18,0.282-0.269,0.651-0.269,1.111c0,0.614,0.301,1.104,0.906,1.476c0.604,0.372,1.227,0.517,1.871,0.44V70.4h-8.214v-1.394
			c1.286-0.433,2.482-1.441,3.59-3.022L222.185,56.909z"/>
	</g>
	<g>
		<path fill="#FFFFFF" d="M243.061,65.026c-0.343,0.131-0.559,0.359-0.648,0.682l-1.212,4.521h-0.348l-1.146-4.521
			c-0.089-0.355-0.304-0.582-0.648-0.682v-0.324h1.793v0.324c-0.012,0-0.022,0-0.033,0c-0.127,0-0.238,0.035-0.332,0.103
			c-0.117,0.084-0.174,0.203-0.174,0.356c0,0.084,0.012,0.157,0.035,0.218l0.844,3.368l0.839-3.363
			c0.016-0.069,0.024-0.135,0.024-0.197c0-0.154-0.064-0.282-0.191-0.382c-0.127-0.1-0.243-0.135-0.348-0.104v-0.324h1.544V65.026z"
			/>
		<path fill="#FFFFFF" d="M245.21,62.91l-0.797,0.243l-0.058-0.22c0.083-0.031,0.36-0.189,0.83-0.474
			c0.442-0.27,0.677-0.405,0.705-0.405c0.017,0,0.025,0.008,0.025,0.023v6.893c0,0.562,0.249,0.843,0.747,0.843v0.416h-2.199v-0.416
			c0.498,0,0.747-0.281,0.747-0.843V62.91z"/>
		<path fill="#FFFFFF" d="M249.235,69.478c0,0.069-0.057,0.231-0.17,0.485c-0.113,0.255-0.187,0.382-0.22,0.382
			c-0.061,0-0.187-0.087-0.377-0.26c-0.191-0.174-0.286-0.291-0.286-0.353c0-0.077,0.054-0.231,0.162-0.462s0.186-0.347,0.237-0.347
			c0.05,0,0.171,0.079,0.365,0.237S249.235,69.424,249.235,69.478z"/>
		<path fill="#FFFFFF" d="M251.982,61.939c0.664,0,1.175,0.497,1.535,1.492c0.277,0.786,0.415,1.696,0.415,2.729
			c0,1.025-0.138,1.931-0.415,2.717c-0.36,0.994-0.871,1.492-1.535,1.492c-0.664,0-1.176-0.497-1.535-1.492
			c-0.282-0.786-0.424-1.692-0.424-2.717c0-1.033,0.141-1.943,0.424-2.729C250.806,62.436,251.319,61.939,251.982,61.939z
			 M251.982,69.952c0.442,0,0.772-0.509,0.987-1.529c0.144-0.695,0.216-1.451,0.216-2.27c0-0.818-0.072-1.575-0.216-2.27
			c-0.215-1.019-0.545-1.529-0.987-1.529c-0.443,0-0.772,0.51-0.988,1.529c-0.149,0.695-0.224,1.452-0.224,2.27
			c0,0.819,0.075,1.575,0.224,2.27C251.211,69.443,251.539,69.952,251.982,69.952z"/>
		<path fill="#FFFFFF" d="M257.751,62.876c-0.199,0.139-0.398,0.277-0.597,0.416c-0.238,0.17-0.448,0.254-0.631,0.254
			c-0.149,0-0.36-0.096-0.631-0.289c-0.271-0.192-0.482-0.289-0.631-0.289c-0.199,0-0.386,0.135-0.56,0.405
			c-0.174,0.27-0.256,0.404-0.245,0.404c-0.033,0-0.05-0.062-0.05-0.187c0-0.468,0.123-0.859,0.369-1.171
			c0.246-0.312,0.535-0.468,0.867-0.468c0.26,0,0.547,0.114,0.859,0.341c0.313,0.228,0.491,0.341,0.535,0.341
			c0.149,0,0.385-0.114,0.706-0.341c0.32-0.227,0.545-0.341,0.672-0.341c0.039,0,0.072,0.004,0.1,0.012
			c-0.592,1.21-1.041,2.301-1.345,3.272c-0.249,0.786-0.414,1.438-0.494,1.954s-0.129,1.206-0.145,2.07
			c-0.005,0.331-0.019,0.547-0.042,0.647c-0.05,0.224-0.163,0.335-0.34,0.335c-0.338,0-0.507-0.297-0.507-0.89
			c0-0.902,0.255-2.027,0.764-3.377C256.589,65.489,257.037,64.456,257.751,62.876z"/>
	</g>
	<g>
		<g>
			<path fill="#00FFFF" d="M152.113,135.072c1.431-0.609,3.419-1.373,5.532-2.542c2.422-6.568,5.233-11.804,8.041-11.801
				c1.838,0,2.427,1.761,2.073,3.784c-0.691,3.946-4.758,7.052-8.959,9.44c-0.549,1.425-1.093,2.954-1.604,4.478
				c-1.026,3.731-4.547,13.831,0.385,14.957c0.388,0.1,0.653,0.301,0.363,0.851c-0.342,0.648-0.982,1.146-1.422,1.146
				c-4.074,0-4.643-6.108-0.926-17.005c0.392-1.171,0.826-2.441,1.211-3.51c-1.745,0.814-3.363,1.527-4.771,2.136
				c-0.656,0.289-1.313,0.578-1.972,0.866c-0.634,0.253-1.271,0.508-1.925,0.814c-4.185,8.659-10.981,15.459-15.149,15.452
				c-1.771-0.001-2.414-1.644-1.039-4.563c3.062-6.654,9.27-9.927,15.271-12.466c1.092-2.492,2.065-5.344,2.691-8.136
				c0.627-2.792,0.545-4.765-0.271-5.873c-1.196,4.341-4.47,7.704-7.109,7.702c-1.588,0-2.415-1.475-1.922-3.909
				c0.674-3.198,3.666-7.223,7.837-6.817c-0.036-1.208-0.339-2.258-0.915-2.81c-0.161-0.249-0.279-0.599-0.251-0.949
				c0.047-0.598,0.447-1.095,0.925-1.095c0.612,0.002,2.063,1.786,1.819,5.459c2.186,1.356,2.346,4.787,1.544,8.292
				c-0.546,2.438-1.379,4.98-2.31,7.272c0.29-0.103,0.594-0.255,0.883-0.358C150.8,135.615,151.457,135.343,152.113,135.072z
				 M146.057,139.499c-5.206,2.232-10.159,5.137-12.45,10.076c-0.756,1.611-0.57,2.611,0.387,2.612
				C136.838,152.189,142.253,146.774,146.057,139.499z M148.258,122.292c-0.177-0.052-0.354-0.102-0.611-0.102
				c-3.224-0.002-5.043,3.129-5.381,4.703c-0.204,1.013,0.186,1.726,0.85,1.726C145.587,128.619,147.547,125.216,148.258,122.292z
				 M159.763,131.309c3.226-1.982,5.987-4.522,6.379-6.797c0.183-1.062-0.059-1.666-0.837-1.617
				C163.853,122.999,162.005,125.463,159.763,131.309z"/>
			<path fill="#00FFFF" d="M167.855,142.123c-1.172,3.146-4.413,6.506-7.174,6.505c-1.872,0-2.277-1.779-1.175-4.51
				c0.329-0.821,0.732-1.585,1.3-2.377c0.181-0.267,0.501-0.471,0.743-0.471c0.324,0,0.449,0.323,0.327,0.646
				c-0.044,0.118-0.104,0.207-0.166,0.294c-0.327,0.441-0.727,1.264-0.975,1.88c-0.608,1.527-0.828,3.313,0.549,3.313
				c1.95,0.001,4.422-2.78,5.354-5.28c0.45-1.175,0.571-2.766-0.73-2.766c-1.025,0-1.704,0.941-1.963,1.649
				c-0.433,1.175,0.371,1.175,0.833,1.175c0.352,0,0.512,0.295,0.375,0.648c-0.068,0.175-0.306,0.645-0.982,0.645
				c-1.568,0-1.937-1.116-1.443-2.468c0.518-1.413,1.924-2.886,3.654-2.886C168.16,138.12,168.743,139.772,167.855,142.123z"/>
			<path fill="#00FFFF" d="M166.381,147.927c0.13-0.291,0.671-1.081,1.17-1.872c0.964-1.494,2.16-3.492,2.726-5.049
				c0.12-0.325,0.486-1.354,0.228-1.796c-0.032-0.146-0.034-0.295,0.025-0.47c0.12-0.356,0.488-0.649,0.838-0.649
				c0.566,0,0.81,1.267-0.097,3.149c1.641-2.206,2.944-2.942,4.031-2.942c0.938,0,1.863,0.737,0.997,3.384
				c1.541-2.264,2.992-3.444,4.459-3.443c1.194,0.029,1.868,1.24,0.663,4.413c-0.806,2.118-2.32,4.487-3.043,5.538
				c-0.228,0.264-0.536,0.467-0.807,0.467c-0.352,0-0.475-0.321-0.317-0.671c0.026-0.058,0.053-0.117,0.105-0.176
				c0.719-0.992,2.123-3.188,2.851-5.099c0.626-1.616,0.883-3.148-0.038-3.148c-1.515-0.001-4.005,3.184-5.993,6.611
				c-1.154,1.989-1.308,2.222-1.789,2.223c-0.352,0-0.448-0.321-0.293-0.672c0.053-0.118,0.576-0.996,0.945-1.611
				c0.739-1.289,1.395-2.521,1.833-3.667c0.257-0.647,1.023-2.854-0.147-2.854c-1.424-0.003-4.118,3.422-7.276,8.483
				c-0.198,0.321-0.508,0.524-0.805,0.524C166.295,148.599,166.21,148.308,166.381,147.927z"/>
			<path fill="#00FFFF" d="M189.187,140.624c0.212-0.59-0.024-1.002-0.726-1.002c-1.362-0.001-3.9,1.886-5.175,5.027
				c-0.401,0.997-0.88,2.782,1.063,2.781c0.702,0,1.589-0.351,2.314-0.965c0.171-0.147,0.343-0.234,0.532-0.233
				c0.324,0,0.417,0.293,0.251,0.673c-0.238,0.555-2.066,1.725-3.717,1.724c-2.059,0-2.681-1.488-1.658-3.98
				c1.506-3.697,4.704-6.293,6.848-6.292c1.623,0,1.908,1.089,1.484,2.267c-0.842,2.322-3.568,3.466-5.159,3.466
				c-0.324,0-0.501-0.234-0.35-0.616c0.126-0.323,0.484-0.615,0.846-0.645C187.022,142.799,188.71,141.947,189.187,140.624z"/>
			<path fill="#00FFFF" d="M213.327,150.338c-1.049,2.151-3.712,5.048-7.849,4.972c-3.396-0.068-5.921-1.749-6.114-5.465
				c-1.364,1.175-2.644,2.805-3.64,4.487c-0.407,0.674-1.028,1.172-1.473,1.162c-0.446-0.008-0.502-0.575-0.135-1.249
				c1.355-2.471,3.457-5.003,5.369-6.628c0.274-1.656,0.709-3.428,1.523-5.482c1.632-4.111,3.93-7.698,6.439-9.949
				c0.048-0.975,0.2-2.124,0.476-3.262c0.797-3.257,2.386-6.535,4.483-8.647c-0.278-1.197-0.376-2.557-0.25-3.848
				c0.07-0.73,0.49-1.283,0.977-1.274c0.414,0.008,0.742,0.575,0.671,1.305c-0.091,0.957-0.01,1.861,0.151,2.656
				c0.576-0.386,1.171-0.657,1.791-0.814c0.626-0.214,1.315-0.314,1.989-0.301c2.962,0.054,4.43,2.114,3.991,4.667
				c-0.366,2.156-1.92,3.731-3.638,3.7c-1.839-0.036-3.857-1.565-5.042-4.146c-1.707,1.73-2.851,4.336-3.44,6.735
				c-0.152,0.628-0.261,1.2-0.299,1.774c1.453-0.95,3.124-1.491,4.619-1.461c3.324,0.061,5.239,2.334,4.247,5.541
				c-0.31,1.085-1.861,4.685-5.761,4.609c-2.99-0.057-4.572-2.043-4.926-4.929c-2.032,1.975-3.577,4.596-4.8,7.679
				c-0.564,1.425-0.92,2.797-1.153,3.998c2.458-1.56,5.123-2.488,7.922-2.433C213.098,143.8,215.285,146.376,213.327,150.338z
				 M208.455,146.068c-2.498-0.048-5.106,0.935-7.128,2.271c0.207,2.979,2.281,4.664,5.379,4.723
				c2.194,0.04,4.161-1.173,4.946-2.755C212.803,147.988,211.099,146.118,208.455,146.068z M213.264,131.665
				c-1.271-0.023-3.105,0.515-4.082,1.417c0.361,2.136,1.622,3.944,4.012,3.989c1.717,0.032,2.872-0.809,3.319-2.238
				C217.011,133.23,215.658,131.71,213.264,131.665z M214.621,121.054c0.94,1.723,2.571,3.01,3.921,3.035
				c0.599,0.011,1.373-0.487,1.538-1.453c0.231-1.361-0.921-2.29-2.643-2.323C216.536,120.296,215.327,120.614,214.621,121.054z"/>
			<path fill="#00FFFF" d="M217.946,144.003c1.107-2.73,3.502-5.705,5.742-5.705c1.137,0,1.707,0.882,1.509,1.442
				c-0.124,0.353-0.499,0.647-0.823,0.647c-0.189,0-0.363-0.119-0.401-0.323c-0.051-0.235-0.331-0.442-0.736-0.442
				c-1.403,0-3.223,2.208-4.1,4.381c-0.8,1.994-0.693,3.37,0.42,3.37c2.272,0.003,5.621-5.034,7.348-10.401
				c-2.063-0.647-3.252-2.474-2.692-4.596c0.345-1.294,1.48-2.677,2.857-2.676c0.541,0,1.055,0.235,1.392,0.736
				c1.075,1.47,0.216,4.889-0.019,5.506c0.279,0.059,0.613,0.119,0.954,0.149c0.309,0.056,0.444,0.235,0.333,0.587
				c-0.102,0.325-0.494,0.618-0.683,0.618c-0.326,0-0.669-0.03-1.017-0.116c-1.229,3.773-3.733,8.412-6.482,10.397
				c-0.881,0.642-1.744,0.993-2.556,0.993C217.31,148.569,216.813,146.82,217.946,144.003z M225.438,132.348
				c-0.388,1.473,0.418,2.857,1.895,3.328c1.051-3.536,0.074-4.743-0.615-4.743C226.097,130.933,225.595,131.758,225.438,132.348z"
				/>
			<path fill="#00FFFF" d="M230.783,139.239c-0.01,0.03-0.031,0.09-0.077,0.149c-1.2,2.12-3.193,5.942-4.63,8.716
				c-0.183,0.351-0.548,0.613-0.871,0.613c-0.352,0-0.49-0.292-0.319-0.671c0.2-0.376,2.808-5.475,4.768-8.981
				c0.174-0.353,0.595-0.561,0.891-0.472C230.783,138.681,230.883,138.945,230.783,139.239z M233.45,134.763
				c-0.441,0.275-0.883,0.55-1.326,0.825c0.434,0.383,0.866,0.766,1.296,1.149c-0.63-0.118-1.26-0.236-1.891-0.354
				c-0.421,0.54-0.846,1.079-1.277,1.619c0.197-0.569,0.389-1.138,0.576-1.708c-0.438-0.04-0.877-0.079-1.315-0.119
				c0.525-0.274,1.049-0.549,1.572-0.823c0.09-0.452,0.177-0.904,0.261-1.356c0.178,0.324,0.355,0.649,0.529,0.973
				C232.399,134.901,232.925,134.832,233.45,134.763z"/>
			<path fill="#00FFFF" d="M231.681,148.629c-0.026,0-0.15-0.03-0.176-0.03c-1.251-0.233-1.336-1.429-0.402-3.687
				c0.575-1.407,1.389-3.052,2.685-5.289c-0.784,0-1.133,0.148-1.511,0.148c-0.19,0-0.316-0.178-0.205-0.502
				c0.282-0.824,1.424-0.854,2.408-0.884c0.542-0.97,1.297-2.325,1.938-3.503c0.16-0.267,0.426-0.442,0.677-0.472
				c0.352,0,0.557,0.235,0.452,0.589c-0.035,0.117-0.105,0.266-0.152,0.326c-0.526,0.882-1.378,2.444-1.735,3.091
				c0.379,0,0.91,0.03,1.632,0.059c0.277,0.06,0.497,0.295,0.385,0.621c-0.121,0.352-0.418,0.587-0.718,0.587
				c-0.513,0-1.411-0.059-1.916-0.089c-1.141,1.884-2.097,3.736-2.711,5.231c-0.964,2.316-0.271,2.461-0.019,2.52
				c0.297,0,0.41,0.293,0.267,0.614C232.421,148.308,232.018,148.599,231.681,148.629z"/>
			<path fill="#00FFFF" d="M240.658,139.239c-0.01,0.03-0.03,0.09-0.077,0.149c-1.2,2.12-3.193,5.942-4.63,8.716
				c-0.184,0.351-0.547,0.613-0.871,0.613c-0.352,0-0.49-0.292-0.319-0.671c0.2-0.376,2.808-5.475,4.768-8.981
				c0.174-0.353,0.595-0.561,0.889-0.472C240.659,138.681,240.758,138.945,240.658,139.239z M243.325,134.763
				c-0.441,0.275-0.883,0.55-1.326,0.825c0.434,0.383,0.866,0.766,1.296,1.149c-0.63-0.118-1.26-0.236-1.891-0.354
				c-0.421,0.54-0.846,1.079-1.277,1.619c0.197-0.569,0.389-1.138,0.575-1.708c-0.438-0.04-0.877-0.079-1.315-0.119
				c0.525-0.274,1.049-0.549,1.572-0.823c0.09-0.452,0.177-0.904,0.261-1.356c0.178,0.324,0.355,0.649,0.529,0.973
				C242.274,134.901,242.8,134.832,243.325,134.763z"/>
			<path fill="#00FFFF" d="M248.569,142.123c-1.172,3.146-4.413,6.506-7.174,6.505c-1.872,0-2.277-1.779-1.175-4.51
				c0.33-0.821,0.732-1.585,1.3-2.377c0.181-0.267,0.501-0.471,0.743-0.471c0.324,0,0.449,0.323,0.327,0.646
				c-0.044,0.118-0.104,0.207-0.166,0.294c-0.327,0.441-0.727,1.264-0.975,1.88c-0.608,1.527-0.828,3.313,0.549,3.313
				c1.95,0.001,4.422-2.78,5.354-5.28c0.45-1.175,0.571-2.766-0.73-2.766c-1.026,0-1.704,0.941-1.963,1.649
				c-0.433,1.175,0.371,1.175,0.833,1.175c0.352,0,0.512,0.295,0.375,0.648c-0.068,0.175-0.306,0.645-0.982,0.645
				c-1.568,0-1.937-1.116-1.443-2.468c0.518-1.413,1.924-2.886,3.654-2.886C248.874,138.12,249.457,139.772,248.569,142.123z"/>
			<path fill="#00FFFF" d="M256.778,142.446c-0.777,2.057-2.204,4.371-2.842,5.363c-0.344,0.586-0.777,0.586-0.858,0.586
				c-0.352,0-0.491-0.292-0.322-0.672c0.013-0.03,0.026-0.059,0.079-0.118c0.678-1.022,2.005-3.249,2.728-5.16
				c0.595-1.557,0.708-2.676,0.007-2.676c-1.477-0.002-4.291,3.333-7.312,8.157c-0.184,0.291-0.493,0.497-0.793,0.497
				c-0.35,0-0.434-0.291-0.264-0.67c0.166-0.35,1.571-2.489,1.862-2.96c0.839-1.318,1.576-2.612,1.971-3.611
				c0.295-0.883,0.359-1.383,0.141-1.765c-0.029-0.148-0.035-0.295,0.025-0.472c0.11-0.323,0.479-0.617,0.803-0.617
				c0.539,0,0.918,1.09,0.164,2.854c1.397-1.824,2.752-2.767,3.972-2.767C256.744,138.414,258.131,138.829,256.778,142.446z"/>
		</g>
	</g>
	<path fill="#FFFFFF" d="M324.313,59.971c0,24.585,0.708,25.773,10.182,17.081c-9.474,8.692-8.179,9.341,18.614,9.341
		c-26.793,0-28.087,0.649-18.614,9.341c-9.474-8.692-10.182-7.504-10.182,17.081c0-24.585-0.707-25.773-10.18-17.081
		c9.472-8.692,8.178-9.341-18.616-9.341c26.794,0,28.088-0.649,18.616-9.341C323.605,85.743,324.313,84.555,324.313,59.971
		L324.313,59.971z"/>
	<path fill="#FFFFFF" d="M96.998,0c0,8.353,0.241,8.757,3.459,5.803c-3.219,2.953-2.779,3.174,6.324,3.174
		c-9.103,0-9.543,0.221-6.324,3.174c-3.219-2.953-3.459-2.55-3.459,5.803c0-8.353-0.24-8.757-3.459-5.803
		c3.218-2.953,2.779-3.174-6.325-3.174c9.103,0,9.543-0.221,6.325-3.174C96.757,8.757,96.998,8.353,96.998,0L96.998,0z"/>
	<g>
		<path fill="#F7931E" d="M0,73.125c0,0,0.379,0.022,1.113,0.066c0.734,0.045,1.825,0.098,3.238,0.222
			C7.172,73.646,11.33,74.047,16.363,75c5.018,0.95,10.891,2.488,16.772,4.852c2.933,1.182,5.897,2.542,8.797,4.082
			c2.923,1.53,5.768,3.241,8.668,5.045c2.899,1.804,5.826,3.715,8.968,5.633c3.145,1.914,6.501,3.847,10.347,5.599
			c3.84,1.746,8.217,3.297,13.169,4.336c4.941,1.047,10.401,1.562,15.981,1.567c5.587,0.019,11.273-0.449,16.883-1.192
			c1.409-0.173,2.799-0.401,4.204-0.605c1.386-0.237,2.794-0.445,4.174-0.708l2.08-0.38l0.261-0.048
			c0.062-0.011-0.076,0.017,0.043-0.009l0.127-0.029l0.511-0.117l1.021-0.235c1.345-0.318,2.638-0.641,3.957-0.995
			c10.52-2.793,20.05-6.673,30.299-10.115c5.133-1.715,10.504-3.304,16.218-4.53c2.853-0.612,5.788-1.131,8.778-1.534
			c0.748-0.1,1.494-0.203,2.252-0.28l1.132-0.126l0.283-0.032l0.172-0.017l0.139-0.012l0.558-0.049
			c0.744-0.065,1.472-0.136,2.268-0.18c0.78-0.051,1.561-0.103,2.329-0.126c6.169-0.261,12.327,0.104,18.135,0.864
			c5.821,0.757,11.322,1.881,16.522,3.159c10.417,2.556,19.628,5.763,28.381,8.648c8.803,2.843,17.555,5.198,26.053,6.832
			c8.486,1.635,16.718,2.546,24.087,2.619c3.682,0.039,7.132-0.128,10.26-0.443c3.127-0.321,5.93-0.785,8.365-1.318
			c4.878-1.071,8.31-2.33,10.522-3.24c0.557-0.227,1.04-0.433,1.446-0.617c0.413-0.18,0.756-0.336,1.022-0.465
			c0.541-0.256,0.82-0.388,0.82-0.388s-0.27,0.137-0.793,0.402c-0.257,0.135-0.589,0.296-0.99,0.484
			c-0.394,0.192-0.862,0.407-1.406,0.645c-2.159,0.946-5.5,2.293-10.395,3.437c-2.439,0.572-5.261,1.083-8.426,1.452
			c-3.167,0.364-6.676,0.582-10.433,0.592c-3.757,0.012-7.755-0.181-11.893-0.58c-4.137-0.401-8.407-1.019-12.744-1.815
			c-8.684-1.589-17.62-3.902-26.599-6.7c-8.918-2.834-18.125-5.918-28.364-8.397c-5.11-1.23-10.478-2.298-16.084-3.001
			c-5.597-0.701-11.444-1.033-17.26-0.781c-0.734,0.023-1.442,0.072-2.155,0.119c-0.701,0.037-1.453,0.111-2.195,0.176l-0.557,0.05
			l-0.139,0.013l-0.104,0.011l-0.27,0.031l-1.079,0.122c-0.723,0.075-1.435,0.174-2.149,0.271c-2.854,0.388-5.66,0.889-8.401,1.482
			c-5.49,1.183-10.696,2.74-15.753,4.426c-10.114,3.372-19.752,7.28-30.587,10.143c-1.338,0.357-2.738,0.703-4.106,1.025
			l-1.022,0.233l-0.511,0.117l-0.128,0.029l-0.216,0.044l-0.267,0.047l-2.132,0.38c-1.412,0.262-2.861,0.471-4.284,0.708
			c-1.446,0.203-2.873,0.431-4.328,0.604c-5.785,0.74-11.69,1.205-17.557,1.162c-5.853-0.028-11.665-0.592-16.857-1.753
			c-5.212-1.143-9.743-2.81-13.646-4.642c-3.91-1.839-7.256-3.831-10.368-5.786c-3.107-1.959-5.974-3.893-8.804-5.712
			c-5.636-3.643-11.181-6.828-16.886-9.218c-5.675-2.404-11.391-3.998-16.316-5.005c-4.941-0.999-9.039-1.493-11.839-1.768
			c-1.399-0.148-2.488-0.221-3.218-0.278C0.377,73.154,0,73.125,0,73.125L0,73.125z"/>
		<path fill="#F7931E" d="M2.153,49.812c0,0,1.143-0.058,3.287-0.167c2.148-0.073,5.306-0.215,9.338-0.174
			c2.013,0.031,4.247,0.073,6.665,0.219c2.419,0.13,5.026,0.349,7.758,0.706c5.438,0.704,11.512,1.986,16.844,4.306
			c0.685,0.276,1.309,0.594,1.975,0.895c0.622,0.324,1.284,0.635,1.884,0.982c1.247,0.672,2.4,1.408,3.523,2.173
			c2.23,1.538,4.202,3.242,5.999,5.043c3.583,3.611,6.474,7.6,9.549,11.674c3.081,4.069,6.428,8.254,11.136,12.117
			c2.354,1.926,5.036,3.769,8.122,5.432c1.527,0.839,3.183,1.618,4.9,2.358l0.65,0.274l0.325,0.137l0.163,0.069
			c-0.002,0,0.119,0.047,0.017,0.01l0.089,0.031c0.474,0.161,0.957,0.334,1.415,0.47c0.919,0.293,1.915,0.561,2.912,0.799
			c4.018,0.955,8.457,1.416,12.906,1.46c4.458,0.046,8.916-0.308,13.214-0.886c8.612-1.175,16.606-3.191,23.867-5.465
			c1.816-0.572,3.586-1.165,5.306-1.774c1.708-0.612,3.413-1.246,5.127-1.841c3.46-1.201,6.945-2.281,10.485-3.214
			c7.057-1.871,14.35-3.102,21.3-3.476c6.955-0.399,13.411,0.105,18.787,0.942c2.697,0.421,5.146,0.92,7.367,1.426
			c2.202,0.524,4.195,1.038,5.935,1.555c3.502,1.013,6.091,1.94,7.854,2.568c1.737,0.647,2.664,0.992,2.664,0.992
			s-0.949-0.328-2.728-0.944c-1.799-0.6-4.461-1.465-7.989-2.434c-1.756-0.491-3.762-0.976-5.971-1.467
			c-2.226-0.472-4.672-0.934-7.35-1.313c-5.344-0.755-11.668-1.155-18.433-0.725c-6.764,0.418-13.844,1.674-20.716,3.567
			c-3.44,0.942-6.857,2.039-10.205,3.24c-1.678,0.619-3.374,1.245-5.086,1.876c-1.741,0.625-3.531,1.232-5.369,1.819
			c-7.35,2.331-15.451,4.412-24.325,5.652c-4.43,0.61-9.064,0.995-13.769,0.961c-2.35-0.019-4.709-0.142-7.03-0.393
			c-2.317-0.256-4.585-0.645-6.733-1.164c-1.077-0.262-2.113-0.543-3.134-0.873c-0.529-0.162-0.982-0.327-1.46-0.491l-0.089-0.031
			c-0.158-0.06-0.092-0.037-0.149-0.06L92.813,96.6l-0.336-0.143l-0.672-0.285c-1.772-0.772-3.478-1.582-5.048-2.454
			c-3.175-1.728-5.917-3.634-8.309-5.613c-4.783-3.971-8.121-8.218-11.173-12.307c-3.051-4.094-5.745-8.089-9.187-11.666
			c-1.717-1.787-3.599-3.47-5.73-4.987c-1.073-0.754-2.176-1.48-3.369-2.143c-0.573-0.342-1.208-0.649-1.803-0.969
			c-0.638-0.297-1.236-0.612-1.893-0.885c-5.124-2.28-10.951-3.625-16.286-4.382c-2.674-0.385-5.241-0.634-7.633-0.793
			c-2.389-0.174-4.606-0.244-6.608-0.3c-4.01-0.086-7.166-0.014-9.316,0.028C3.3,49.773,2.153,49.812,2.153,49.812L2.153,49.812z"/>
	</g>
</g>
</svg>
