<?xml version="1.0" encoding="utf-8"?>
<!-- Generator: Adobe Illustrator 17.0.0, SVG Export Plug-In . SVG Version: 6.00 Build 0)  -->
<!DOCTYPE svg PUBLIC "-//W3C//DTD SVG 1.1//EN" "http://www.w3.org/Graphics/SVG/1.1/DTD/svg11.dtd">
<svg version="1.1" xmlns="http://www.w3.org/2000/svg" xmlns:xlink="http://www.w3.org/1999/xlink" x="0px" y="0px"
	 width="46.824px" height="38.324px" viewBox="0 0 46.824 38.324" enable-background="new 0 0 46.824 38.324" xml:space="preserve">
<g id="Layer_2" display="none">
	<rect x="-476.5" y="-19.676" display="inline" width="584" height="98"/>
</g>
<g id="Layer_1" display="none">
	<rect x="0" y="11.435" display="inline" fill="none" width="404" height="23.663"/>
	
		<text transform="matrix(1 0 0 1 1.831452e-04 34.2946)" display="inline" fill="#969696" font-family="'RataczakRoman'" font-size="12">SAVED</text>
	<circle display="inline" fill="#FF1D25" cx="16.5" cy="14.991" r="4.5"/>
	<rect x="0" y="11.435" display="inline" fill="none" width="404" height="23.663"/>
	
		<text transform="matrix(1 0 0 1 1.831452e-04 34.2946)" display="inline" fill="#969696" font-family="'RataczakRoman'" font-size="12">SAVED</text>
	<circle display="inline" fill="#FF1D25" cx="16.5" cy="14.991" r="4.5"/>
</g>
<g id="outlines">
	<g>
		<path fill="#969696" d="M3.235,34.905c1.42,0,2.13-0.607,2.13-1.823c0-0.689-0.733-1.341-2.2-1.953
			c-0.918-0.384-1.518-0.678-1.8-0.882c-0.612-0.447-0.918-1.008-0.918-1.683c0-0.588,0.251-1.043,0.753-1.364
			c0.432-0.274,0.957-0.412,1.576-0.412c0.307,0,0.632,0.047,0.977,0.142c0.393,0.102,0.694,0.234,0.906,0.399l0.271-0.376h0.564
			v2.199H4.965c-0.008-0.109-0.062-0.271-0.165-0.481c-0.479-0.988-1.133-1.482-1.964-1.482c-0.988,0-1.482,0.403-1.482,1.211
			c0,0.486,0.427,0.91,1.282,1.271c1.506,0.643,2.298,0.992,2.376,1.047c0.855,0.525,1.282,1.228,1.282,2.105
			c0,0.784-0.317,1.412-0.952,1.883c-0.573,0.415-1.268,0.623-2.083,0.623c-0.823,0-1.475-0.188-1.953-0.564l-0.271,0.376H0.471
			v-2.199H1c0,0.211,0.059,0.451,0.177,0.717C1.537,34.49,2.224,34.905,3.235,34.905z"/>
		<path fill="#969696" d="M8.447,32.977c-0.22,0.639-0.329,0.981-0.329,1.028c0,0.266,0.086,0.468,0.259,0.608
			c0.203,0.163,0.403,0.245,0.6,0.245v0.424H6.541v-0.424c0.502-0.086,0.848-0.396,1.036-0.928l2.141-6.143
			c0.008-0.023,0.012-0.047,0.012-0.07c0-0.134-0.096-0.259-0.288-0.377c-0.192-0.117-0.358-0.177-0.5-0.177v-0.317h1.694
			l2.47,7.095c0.149,0.434,0.49,0.739,1.024,0.917v0.424h-2.765v-0.424c0.195-0.008,0.374-0.074,0.535-0.198
			c0.16-0.125,0.241-0.28,0.241-0.468c0-0.141-0.052-0.347-0.153-0.62c-0.086-0.194-0.169-0.394-0.247-0.596H8.447z M11.589,32.553
			l-1.51-4.263l-1.471,4.263H11.589z"/>
		<path fill="#969696" d="M19.965,27.271c-0.196,0.008-0.398,0.111-0.605,0.312c-0.208,0.2-0.348,0.402-0.418,0.606l-2.377,7.094
			h-0.588l-2.294-7.094c-0.157-0.479-0.502-0.784-1.035-0.918v-0.424h2.858v0.424h-0.035c-0.196-0.008-0.384,0.047-0.564,0.165
			s-0.271,0.271-0.271,0.461c0,0.094,0.013,0.192,0.037,0.295l1.822,5.596l1.813-5.599c0.021-0.078,0.033-0.156,0.033-0.235
			c0-0.204-0.099-0.373-0.295-0.506c-0.164-0.11-0.36-0.169-0.588-0.177v-0.424h2.506V27.271z"/>
		<path fill="#969696" d="M24.447,29.318v2.541h-0.341c-0.142-0.564-0.27-0.876-0.383-0.935c-0.114-0.06-0.555-0.101-1.323-0.124
			v4.059h2.105c0.377,0,0.679-0.094,0.906-0.282c0.078-0.062,0.18-0.267,0.306-0.611c0.125-0.346,0.185-0.577,0.177-0.694h0.576
			l-0.459,2.012h-5.541v-0.424c0.619-0.023,0.93-0.31,0.93-0.857v-5.874c0-0.289-0.083-0.501-0.247-0.634
			c-0.142-0.109-0.369-0.185-0.683-0.224v-0.423h5.459v2.023h-0.576c0.007-0.118-0.052-0.35-0.177-0.693
			c-0.126-0.344-0.228-0.551-0.306-0.622c-0.228-0.189-0.53-0.284-0.906-0.284H22.4v3.094c0.769-0.023,1.203-0.062,1.306-0.117
			c0.07-0.039,0.153-0.181,0.247-0.424c0.086-0.22,0.137-0.388,0.153-0.506H24.447z"/>
		<path fill="#969696" d="M26.977,34.87c0.619-0.039,0.93-0.325,0.93-0.858v-5.883c0-0.298-0.083-0.514-0.247-0.646
			c-0.134-0.11-0.361-0.185-0.683-0.224v-0.424h3.611c0.274,0,0.626,0.07,1.054,0.212c0.427,0.142,0.739,0.294,0.935,0.459
			c0.91,0.776,1.365,1.918,1.365,3.424c0,1.129-0.263,2.102-0.788,2.917c-0.612,0.957-1.451,1.436-2.518,1.436h-3.659V34.87z
			 M30.588,34.859c0.714,0,1.271-0.502,1.671-1.506c0.298-0.769,0.447-1.576,0.447-2.423c0-0.809-0.165-1.573-0.494-2.295
			c-0.416-0.917-0.977-1.376-1.683-1.376c-0.016,0-0.557,0.004-1.623,0.012v7.576C29.91,34.855,30.471,34.859,30.588,34.859z"/>
	</g>
	<circle fill="#FF1D25" cx="16.5" cy="15.991" r="4.5"/>
</g>
</svg>
