<?xml version="1.0" encoding="utf-8"?>
<!-- Generator: Adobe Illustrator 17.0.0, SVG Export Plug-In . SVG Version: 6.00 Build 0)  -->
<!DOCTYPE svg PUBLIC "-//W3C//DTD SVG 1.1//EN" "http://www.w3.org/Graphics/SVG/1.1/DTD/svg11.dtd">
<svg version="1.1" xmlns="http://www.w3.org/2000/svg" xmlns:xlink="http://www.w3.org/1999/xlink" x="0px" y="0px"
	 width="402.75px" height="38.333px" viewBox="0 0 402.75 38.333" enable-background="new 0 0 402.75 38.333" xml:space="preserve">
<g id="Layer_2" display="none">
	<rect x="-25" y="-19.667" display="inline" width="584" height="98"/>
</g>
<g id="Layer_1">
	<g>
		<path fill="#FFFFFF" d="M9.118,4.664V7.17c0,0.57,0.31,0.855,0.929,0.855v0.423H7.188V8.026c0.619-0.008,0.929-0.294,0.929-0.858
			V1.294c0-0.563-0.31-0.85-0.929-0.857V0.013h2.858v0.424c-0.62,0.008-0.929,0.294-0.929,0.859v2.788l3.294-2.729
			c0.086-0.07,0.129-0.169,0.129-0.294c0-0.361-0.247-0.569-0.741-0.624V0.013h2.765v0.424c-0.322,0.031-1.004,0.494-2.047,1.389
			C12.016,2.281,11.51,2.739,11,3.201l2.506,3.906c0.306,0.465,0.678,0.771,1.118,0.918v0.423h-2.882V8.026l0.035,0.012
			c0.22,0.016,0.41-0.03,0.571-0.136c0.161-0.106,0.241-0.27,0.241-0.49c0-0.102-0.03-0.204-0.091-0.307l-2.14-3.422L9.118,4.664z"
			/>
		<path fill="#FFFFFF" d="M19.223,2.484v2.542h-0.341C18.741,4.46,18.613,4.149,18.5,4.09c-0.114-0.059-0.555-0.101-1.324-0.124
			v4.06h2.106c0.376,0,0.678-0.095,0.906-0.283c0.078-0.062,0.18-0.267,0.306-0.611s0.185-0.576,0.177-0.694h0.577l-0.459,2.012
			h-5.541V8.026c0.619-0.024,0.929-0.31,0.929-0.858V1.294c0-0.29-0.083-0.502-0.247-0.635c-0.141-0.109-0.369-0.184-0.682-0.223
			V0.013h5.458v2.024h-0.576c0.007-0.119-0.051-0.35-0.177-0.693s-0.228-0.552-0.306-0.623c-0.228-0.189-0.53-0.284-0.906-0.284
			h-1.564v3.095c0.769-0.024,1.204-0.063,1.306-0.118c0.071-0.039,0.153-0.181,0.247-0.424c0.086-0.219,0.137-0.388,0.153-0.506
			H19.223z"/>
		<path fill="#FFFFFF" d="M28.812,0.437c-0.33,0.095-0.67,0.4-1.023,0.918l-2.106,3.117v2.706c0,0.564,0.31,0.852,0.929,0.859v0.411
			h-2.858V8.037c0.611,0,0.917-0.287,0.917-0.859V4.567l-1.93-3.212c-0.329-0.541-0.674-0.848-1.035-0.918V0.013h2.859v0.424h-0.035
			c-0.235-0.016-0.428,0.035-0.577,0.153c-0.172,0.117-0.259,0.29-0.259,0.518c0,0.117,0.016,0.2,0.047,0.247l1.683,2.658
			l1.706-2.658c0.055-0.086,0.082-0.169,0.082-0.247c0-0.212-0.106-0.381-0.317-0.506c-0.181-0.11-0.385-0.165-0.612-0.165V0.013
			h2.529V0.437z"/>
		<path fill="#FFFFFF" d="M34.505,4.096c0,0.926,0.165,1.772,0.494,2.541c0.431,0.996,1.051,1.494,1.858,1.494
			c0.588,0,1.118-0.301,1.588-0.902c0.431-0.546,0.674-1.124,0.729-1.733h0.553c-0.274,0.98-0.564,1.683-0.871,2.106
			c-0.478,0.635-1.141,0.953-1.988,0.953c-1.129,0-2.02-0.459-2.671-1.377c-0.588-0.823-0.882-1.823-0.882-3
			c0-1.16,0.29-2.141,0.871-2.941c0.643-0.894,1.521-1.341,2.635-1.341c0.267,0,0.592,0.047,0.977,0.142
			c0.431,0.109,0.726,0.234,0.882,0.376l0.282-0.353h0.565V2.26h-0.541c-0.134-0.48-0.4-0.915-0.8-1.302
			c-0.439-0.426-0.886-0.639-1.341-0.639c-0.792,0-1.404,0.459-1.835,1.376C34.674,2.41,34.505,3.209,34.505,4.096z"/>
		<path fill="#FFFFFF" d="M44.035-0.104c1.129,0,2.023,0.455,2.682,1.364c0.596,0.809,0.894,1.797,0.894,2.965
			c0,1.169-0.298,2.161-0.894,2.977c-0.659,0.902-1.553,1.354-2.682,1.354c-1.122,0-2.012-0.451-2.671-1.354
			c-0.596-0.815-0.894-1.808-0.894-2.977c0-1.168,0.298-2.156,0.894-2.965C42.023,0.351,42.913-0.104,44.035-0.104z M44.011,8.131
			c0.847,0,1.486-0.487,1.918-1.461c0.329-0.746,0.494-1.603,0.494-2.568c0-0.872-0.185-1.678-0.553-2.416
			c-0.463-0.911-1.09-1.366-1.882-1.366c-0.784,0-1.392,0.459-1.823,1.378c-0.337,0.715-0.506,1.517-0.506,2.404
			c0,0.974,0.157,1.826,0.47,2.557C42.544,7.64,43.172,8.131,44.011,8.131z"/>
		<path fill="#FFFFFF" d="M56.193,0.013h1.924v0.424c-0.62,0.016-0.929,0.302-0.929,0.857v5.873c0,0.557,0.31,0.843,0.929,0.858
			v0.423h-2.859V8.026c0.62-0.016,0.93-0.302,0.93-0.857V1.413l-2.906,7.035h-0.376l-2.906-7.035v5.755
			c0,0.556,0.31,0.842,0.93,0.857v0.423h-2.506V8.026c0.619-0.016,0.929-0.302,0.929-0.858V1.294c0-0.266-0.086-0.481-0.259-0.646
			c-0.173-0.165-0.396-0.235-0.67-0.212V0.013h1.939l2.941,6.935L56.193,0.013z"/>
		<path fill="#FFFFFF" d="M66.534,0.013h1.924v0.424c-0.62,0.016-0.929,0.302-0.929,0.857v5.873c0,0.557,0.31,0.843,0.929,0.858
			v0.423h-2.859V8.026c0.62-0.016,0.93-0.302,0.93-0.857V1.413l-2.906,7.035h-0.376L60.34,1.413v5.755
			c0,0.556,0.31,0.842,0.93,0.857v0.423h-2.506V8.026c0.619-0.016,0.929-0.302,0.929-0.858V1.294c0-0.266-0.086-0.481-0.259-0.646
			c-0.173-0.165-0.396-0.235-0.67-0.212V0.013h1.939l2.941,6.935L66.534,0.013z"/>
		<path fill="#FFFFFF" d="M70.975,6.143c-0.219,0.639-0.329,0.982-0.329,1.029c0,0.265,0.086,0.468,0.259,0.607
			c0.204,0.164,0.404,0.246,0.6,0.246v0.423h-2.436V8.026c0.502-0.087,0.847-0.396,1.036-0.929l2.141-6.143
			c0.007-0.023,0.012-0.047,0.012-0.07c0-0.134-0.096-0.259-0.289-0.377c-0.192-0.117-0.358-0.176-0.5-0.176V0.013h1.694l2.47,7.095
			c0.149,0.434,0.49,0.739,1.024,0.918v0.423h-2.765V8.026c0.196-0.008,0.375-0.074,0.535-0.199s0.241-0.28,0.241-0.468
			c0-0.14-0.051-0.347-0.153-0.619c-0.086-0.195-0.169-0.394-0.247-0.597H70.975z M74.117,5.719l-1.509-4.263l-1.471,4.263H74.117z"
			/>
		<path fill="#FFFFFF" d="M82.963,1.296c0-0.549-0.31-0.836-0.929-0.859V0.013h2.494v0.424c-0.314,0.039-0.537,0.114-0.67,0.224
			c-0.165,0.134-0.247,0.346-0.247,0.636v7.152h-0.665l-4.277-7.107v5.828c0,0.289,0.066,0.492,0.2,0.609
			c0.07,0.062,0.186,0.122,0.347,0.177c0.161,0.055,0.285,0.078,0.371,0.07l0.012,0.423h-2.506l-0.012-0.423
			c0.627-0.008,0.941-0.294,0.941-0.858V1.294c0-0.548-0.31-0.834-0.929-0.857V0.013h1.929l3.941,6.53V1.296z"/>
		<path fill="#FFFFFF" d="M85.128,8.037c0.619-0.04,0.929-0.326,0.929-0.859V1.296c0-0.299-0.083-0.514-0.247-0.647
			c-0.133-0.109-0.361-0.185-0.682-0.224V0.001h3.611c0.274,0,0.625,0.071,1.053,0.212c0.427,0.142,0.739,0.294,0.935,0.459
			c0.91,0.776,1.365,1.918,1.365,3.424c0,1.129-0.263,2.102-0.788,2.917c-0.612,0.957-1.451,1.436-2.518,1.436h-3.659V8.037z
			 M88.74,8.026c0.714,0,1.271-0.502,1.671-1.507c0.298-0.769,0.447-1.576,0.447-2.423c0-0.808-0.165-1.572-0.494-2.294
			c-0.416-0.918-0.976-1.377-1.682-1.377c-0.016,0-0.557,0.004-1.624,0.012v7.576C88.062,8.022,88.622,8.026,88.74,8.026z"/>
		<path fill="#FFFFFF" d="M95.952,8.073c1.419,0,2.129-0.608,2.129-1.824c0-0.689-0.733-1.341-2.2-1.952
			c-0.917-0.385-1.518-0.679-1.8-0.883c-0.612-0.447-0.917-1.008-0.917-1.683c0-0.588,0.25-1.043,0.753-1.364
			c0.431-0.274,0.957-0.412,1.576-0.412c0.306,0,0.631,0.047,0.977,0.142c0.392,0.102,0.694,0.235,0.906,0.399l0.271-0.376h0.565
			v2.2h-0.529c-0.008-0.11-0.063-0.271-0.165-0.482c-0.479-0.988-1.133-1.482-1.964-1.482c-0.988,0-1.482,0.404-1.482,1.212
			c0,0.486,0.427,0.909,1.282,1.271c1.506,0.643,2.298,0.992,2.376,1.047C98.583,4.41,99.01,5.112,99.01,5.99
			c0,0.785-0.317,1.412-0.953,1.883c-0.573,0.416-1.267,0.623-2.083,0.623c-0.824,0-1.475-0.188-1.953-0.564l-0.271,0.377h-0.564
			v-2.2h0.529c0,0.212,0.059,0.451,0.176,0.718C94.253,7.657,94.94,8.073,95.952,8.073z"/>
		<path fill="#FFFFFF" d="M101.775,3.59c0,0.07-0.081,0.235-0.241,0.494c-0.161,0.259-0.265,0.388-0.312,0.388
			c-0.086,0-0.265-0.086-0.535-0.259c-0.271-0.172-0.406-0.294-0.406-0.364c0-0.078,0.076-0.235,0.229-0.471
			c0.153-0.235,0.265-0.353,0.335-0.353c0.071,0,0.243,0.08,0.518,0.24C101.638,3.427,101.775,3.535,101.775,3.59z M101.775,7.684
			c0,0.07-0.081,0.235-0.241,0.494c-0.161,0.259-0.265,0.389-0.312,0.389c-0.086,0-0.265-0.089-0.535-0.265
			c-0.271-0.177-0.406-0.296-0.406-0.359c0-0.078,0.076-0.235,0.229-0.471c0.153-0.235,0.265-0.353,0.335-0.353
			c0.071,0,0.243,0.08,0.518,0.241C101.638,7.522,101.775,7.629,101.775,7.684z"/>
		<path fill="#FFFFFF" d="M113.492,6.614h0.177c-0.086,0.439-0.216,0.831-0.388,1.177c-0.251,0.486-0.542,0.729-0.871,0.729
			c-0.393,0-0.698-0.137-0.918-0.411c-0.157-0.212-0.278-0.529-0.364-0.953c-0.063-0.337-0.122-0.679-0.177-1.023
			c-0.157-0.792-0.718-1.188-1.682-1.188h-0.729v2.227c0,0.54,0.31,0.825,0.929,0.856v0.423h-2.859V8.026
			c0.62-0.031,0.93-0.317,0.93-0.858V1.294c0-0.557-0.31-0.842-0.93-0.857V0.013h3.906c0.282,0,0.592,0.048,0.929,0.142
			c0.376,0.11,0.647,0.247,0.812,0.412c0.533,0.525,0.8,1.168,0.8,1.929c0,0.722-0.237,1.314-0.712,1.776
			c-0.475,0.463-1.072,0.683-1.794,0.659c0.345,0.142,0.545,0.228,0.6,0.259c0.196,0.11,0.353,0.255,0.471,0.436
			c0.086,0.134,0.188,0.396,0.306,0.788c0.125,0.416,0.228,0.702,0.306,0.858c0.142,0.268,0.314,0.4,0.518,0.4
			C113.057,7.672,113.304,7.32,113.492,6.614z M108.54,4.519h1.635c0.502,0,0.937-0.232,1.306-0.697
			c0.345-0.442,0.518-0.919,0.518-1.433c0-0.521-0.187-0.976-0.559-1.366s-0.814-0.586-1.324-0.586h-1.576V4.519z"/>
		<path fill="#969696" d="M124.61,6.614h0.177c-0.086,0.439-0.216,0.831-0.388,1.177c-0.251,0.486-0.542,0.729-0.871,0.729
			c-0.393,0-0.698-0.137-0.918-0.411c-0.157-0.212-0.278-0.529-0.364-0.953c-0.063-0.337-0.122-0.679-0.177-1.023
			c-0.157-0.792-0.718-1.188-1.682-1.188h-0.729v2.227c0,0.54,0.31,0.825,0.929,0.856v0.423h-2.859V8.026
			c0.62-0.031,0.93-0.317,0.93-0.858V1.294c0-0.557-0.31-0.842-0.93-0.857V0.013h3.906c0.282,0,0.592,0.048,0.929,0.142
			c0.376,0.11,0.647,0.247,0.812,0.412c0.533,0.525,0.8,1.168,0.8,1.929c0,0.722-0.237,1.314-0.712,1.776
			c-0.475,0.463-1.072,0.683-1.794,0.659c0.345,0.142,0.545,0.228,0.6,0.259c0.196,0.11,0.353,0.255,0.471,0.436
			c0.086,0.134,0.188,0.396,0.306,0.788c0.125,0.416,0.228,0.702,0.306,0.858c0.142,0.268,0.314,0.4,0.518,0.4
			C124.175,7.672,124.422,7.32,124.61,6.614z M119.657,4.519h1.635c0.502,0,0.937-0.232,1.306-0.697
			c0.345-0.442,0.518-0.919,0.518-1.433c0-0.521-0.187-0.976-0.559-1.366s-0.814-0.586-1.324-0.586h-1.576V4.519z"/>
		<path fill="#969696" d="M129.068,2.484v2.542h-0.341c-0.142-0.565-0.269-0.877-0.382-0.936c-0.114-0.059-0.555-0.101-1.324-0.124
			v4.06h2.106c0.376,0,0.678-0.095,0.906-0.283c0.078-0.062,0.18-0.267,0.306-0.611s0.185-0.576,0.177-0.694h0.577l-0.459,2.012
			h-5.541V8.026c0.619-0.024,0.929-0.31,0.929-0.858V1.294c0-0.29-0.083-0.502-0.247-0.635c-0.141-0.109-0.369-0.184-0.682-0.223
			V0.013h5.458v2.024h-0.576c0.007-0.119-0.051-0.35-0.177-0.693s-0.228-0.552-0.306-0.623c-0.228-0.189-0.53-0.284-0.906-0.284
			h-1.564v3.095c0.769-0.024,1.204-0.063,1.306-0.118c0.071-0.039,0.153-0.181,0.247-0.424c0.086-0.219,0.137-0.388,0.153-0.506
			H129.068z"/>
		<path fill="#969696" d="M131.598,8.037c0.619-0.04,0.929-0.326,0.929-0.859V1.296c0-0.299-0.083-0.514-0.247-0.647
			c-0.133-0.109-0.361-0.185-0.682-0.224V0.001h3.611c0.274,0,0.625,0.071,1.053,0.212c0.427,0.142,0.739,0.294,0.935,0.459
			c0.91,0.776,1.365,1.918,1.365,3.424c0,1.129-0.263,2.102-0.788,2.917c-0.612,0.957-1.451,1.436-2.518,1.436h-3.659V8.037z
			 M135.209,8.026c0.714,0,1.271-0.502,1.671-1.507c0.298-0.769,0.447-1.576,0.447-2.423c0-0.808-0.165-1.572-0.494-2.294
			c-0.416-0.918-0.976-1.377-1.682-1.377c-0.016,0-0.557,0.004-1.624,0.012v7.576C134.531,8.022,135.092,8.026,135.209,8.026z"/>
		<path fill="#FFFFFF" d="M146.774,8.555c-1.129,0-2.02-0.459-2.671-1.377c-0.588-0.823-0.882-1.823-0.882-3
			c0-1.16,0.29-2.141,0.871-2.941c0.643-0.894,1.521-1.341,2.635-1.341c0.259,0,0.584,0.047,0.977,0.142
			c0.439,0.109,0.733,0.234,0.882,0.376l0.282-0.353h0.565V2.26h-0.541c-0.024-0.103-0.094-0.264-0.212-0.484
			c-0.525-0.971-1.169-1.456-1.93-1.456c-0.8,0-1.412,0.455-1.835,1.364c-0.337,0.714-0.506,1.518-0.506,2.412
			c0,0.917,0.168,1.761,0.506,2.529c0.439,1.004,1.059,1.506,1.859,1.506c0.572,0,1.086-0.297,1.541-0.892
			c0.423-0.555,0.635-1.13,0.635-1.724c0-0.438-0.314-0.665-0.941-0.681V4.402h2.859v0.424c-0.023,0-0.051,0-0.082,0
			c-0.549,0-0.824,0.286-0.824,0.858V8.46h-0.612l-0.259-0.953c-0.063,0.103-0.172,0.256-0.33,0.459
			C148.339,8.359,147.676,8.555,146.774,8.555z"/>
		<path fill="#969696" d="M158.774,8.555c-1.129,0-2.02-0.459-2.671-1.377c-0.588-0.823-0.882-1.823-0.882-3
			c0-1.16,0.29-2.141,0.871-2.941c0.643-0.894,1.521-1.341,2.635-1.341c0.259,0,0.584,0.047,0.977,0.142
			c0.439,0.109,0.733,0.234,0.882,0.376l0.282-0.353h0.565V2.26h-0.541c-0.024-0.103-0.094-0.264-0.212-0.484
			c-0.525-0.971-1.169-1.456-1.93-1.456c-0.8,0-1.412,0.455-1.835,1.364c-0.337,0.714-0.506,1.518-0.506,2.412
			c0,0.917,0.168,1.761,0.506,2.529c0.439,1.004,1.059,1.506,1.859,1.506c0.572,0,1.086-0.297,1.541-0.892
			c0.423-0.555,0.635-1.13,0.635-1.724c0-0.438-0.314-0.665-0.941-0.681V4.402h2.859v0.424c-0.023,0-0.051,0-0.082,0
			c-0.549,0-0.824,0.286-0.824,0.858V8.46h-0.612l-0.259-0.953c-0.063,0.103-0.172,0.256-0.33,0.459
			C160.339,8.359,159.676,8.555,158.774,8.555z"/>
		<path fill="#969696" d="M169.962,6.614h0.177c-0.086,0.439-0.216,0.831-0.388,1.177c-0.251,0.486-0.542,0.729-0.871,0.729
			c-0.393,0-0.698-0.137-0.918-0.411c-0.157-0.212-0.278-0.529-0.364-0.953c-0.063-0.337-0.122-0.679-0.177-1.023
			c-0.157-0.792-0.718-1.188-1.682-1.188h-0.729v2.227c0,0.54,0.31,0.825,0.929,0.856v0.423h-2.859V8.026
			c0.62-0.031,0.93-0.317,0.93-0.858V1.294c0-0.557-0.31-0.842-0.93-0.857V0.013h3.906c0.282,0,0.592,0.048,0.929,0.142
			c0.376,0.11,0.647,0.247,0.812,0.412c0.533,0.525,0.8,1.168,0.8,1.929c0,0.722-0.237,1.314-0.712,1.776
			c-0.475,0.463-1.072,0.683-1.794,0.659c0.345,0.142,0.545,0.228,0.6,0.259c0.196,0.11,0.353,0.255,0.471,0.436
			c0.086,0.134,0.188,0.396,0.306,0.788c0.125,0.416,0.228,0.702,0.306,0.858c0.142,0.268,0.314,0.4,0.518,0.4
			C169.527,7.672,169.774,7.32,169.962,6.614z M165.01,4.519h1.635c0.502,0,0.937-0.232,1.306-0.697
			c0.345-0.442,0.518-0.919,0.518-1.433c0-0.521-0.187-0.976-0.559-1.366s-0.814-0.586-1.324-0.586h-1.576V4.519z"/>
		<path fill="#969696" d="M174.421,2.484v2.542h-0.341c-0.142-0.565-0.269-0.877-0.382-0.936c-0.114-0.059-0.555-0.101-1.324-0.124
			v4.06h2.106c0.376,0,0.678-0.095,0.906-0.283c0.078-0.062,0.18-0.267,0.306-0.611s0.185-0.576,0.177-0.694h0.577l-0.459,2.012
			h-5.541V8.026c0.619-0.024,0.929-0.31,0.929-0.858V1.294c0-0.29-0.083-0.502-0.247-0.635c-0.141-0.109-0.369-0.184-0.682-0.223
			V0.013h5.458v2.024h-0.576c0.007-0.119-0.051-0.35-0.177-0.693s-0.228-0.552-0.306-0.623c-0.228-0.189-0.53-0.284-0.906-0.284
			h-1.564v3.095c0.769-0.024,1.204-0.063,1.306-0.118c0.071-0.039,0.153-0.181,0.247-0.424c0.086-0.219,0.137-0.388,0.153-0.506
			H174.421z"/>
		<path fill="#969696" d="M180.927,2.484v2.542h-0.341c-0.142-0.565-0.269-0.877-0.382-0.936c-0.114-0.059-0.555-0.101-1.324-0.124
			v4.06h2.106c0.376,0,0.678-0.095,0.906-0.283c0.078-0.062,0.18-0.267,0.306-0.611s0.185-0.576,0.177-0.694h0.577l-0.459,2.012
			h-5.541V8.026c0.619-0.024,0.929-0.31,0.929-0.858V1.294c0-0.29-0.083-0.502-0.247-0.635c-0.141-0.109-0.369-0.184-0.682-0.223
			V0.013h5.458v2.024h-0.576c0.007-0.119-0.051-0.35-0.177-0.693s-0.228-0.552-0.306-0.623c-0.228-0.189-0.53-0.284-0.906-0.284
			h-1.564v3.095c0.769-0.024,1.204-0.063,1.306-0.118c0.071-0.039,0.153-0.181,0.247-0.424c0.086-0.219,0.137-0.388,0.153-0.506
			H180.927z"/>
		<path fill="#969696" d="M189.327,1.296c0-0.549-0.31-0.836-0.929-0.859V0.013h2.494v0.424c-0.314,0.039-0.537,0.114-0.67,0.224
			c-0.165,0.134-0.247,0.346-0.247,0.636v7.152h-0.665l-4.277-7.107v5.828c0,0.289,0.066,0.492,0.2,0.609
			c0.07,0.062,0.186,0.122,0.347,0.177c0.161,0.055,0.285,0.078,0.371,0.07l0.012,0.423h-2.506l-0.012-0.423
			c0.627-0.008,0.941-0.294,0.941-0.858V1.294c0-0.548-0.31-0.834-0.929-0.857V0.013h1.929l3.941,6.53V1.296z"/>
		<path fill="#FFFFFF" d="M202.315,0.437c-0.33,0.095-0.67,0.4-1.023,0.918l-2.106,3.117v2.706c0,0.564,0.31,0.852,0.929,0.859
			v0.411h-2.858V8.037c0.611,0,0.917-0.287,0.917-0.859V4.567l-1.93-3.212c-0.329-0.541-0.674-0.848-1.035-0.918V0.013h2.859v0.424
			h-0.035c-0.235-0.016-0.428,0.035-0.577,0.153c-0.172,0.117-0.259,0.29-0.259,0.518c0,0.117,0.016,0.2,0.047,0.247l1.683,2.658
			l1.706-2.658c0.055-0.086,0.082-0.169,0.082-0.247c0-0.212-0.106-0.381-0.317-0.506c-0.181-0.11-0.385-0.165-0.612-0.165V0.013
			h2.529V0.437z"/>
		<path fill="#969696" d="M213.797,0.437c-0.33,0.095-0.67,0.4-1.023,0.918l-2.106,3.117v2.706c0,0.564,0.31,0.852,0.929,0.859
			v0.411h-2.858V8.037c0.611,0,0.917-0.287,0.917-0.859V4.567l-1.93-3.212c-0.329-0.541-0.674-0.848-1.035-0.918V0.013h2.859v0.424
			h-0.035c-0.235-0.016-0.428,0.035-0.577,0.153c-0.172,0.117-0.259,0.29-0.259,0.518c0,0.117,0.016,0.2,0.047,0.247l1.683,2.658
			l1.706-2.658c0.055-0.086,0.082-0.169,0.082-0.247c0-0.212-0.106-0.381-0.317-0.506c-0.181-0.11-0.385-0.165-0.612-0.165V0.013
			h2.529V0.437z"/>
		<path fill="#969696" d="M218.433,2.484v2.542h-0.341c-0.142-0.565-0.269-0.877-0.382-0.936c-0.114-0.059-0.555-0.101-1.324-0.124
			v4.06h2.106c0.376,0,0.678-0.095,0.906-0.283c0.078-0.062,0.18-0.267,0.306-0.611s0.185-0.576,0.177-0.694h0.577l-0.459,2.012
			h-5.541V8.026c0.619-0.024,0.929-0.31,0.929-0.858V1.294c0-0.29-0.083-0.502-0.247-0.635c-0.141-0.109-0.369-0.184-0.682-0.223
			V0.013h5.458v2.024h-0.576c0.007-0.119-0.051-0.35-0.177-0.693s-0.228-0.552-0.306-0.623c-0.228-0.189-0.53-0.284-0.906-0.284
			h-1.564v3.095c0.769-0.024,1.204-0.063,1.306-0.118c0.071-0.039,0.153-0.181,0.247-0.424c0.086-0.219,0.137-0.388,0.153-0.506
			H218.433z"/>
		<path fill="#969696" d="M224.998,8.026c0.376,0,0.678-0.095,0.906-0.283c0.078-0.062,0.18-0.269,0.306-0.617
			s0.185-0.578,0.177-0.688h0.577l-0.458,2.012h-5.53V8.037c0.611-0.008,0.917-0.295,0.917-0.859V1.296
			c0-0.558-0.306-0.844-0.917-0.859V0.013h2.858v0.424c-0.627,0.023-0.941,0.311-0.941,0.859v6.729H224.998z"/>
		<path fill="#969696" d="M231.503,8.026c0.376,0,0.678-0.095,0.906-0.283c0.078-0.062,0.18-0.269,0.306-0.617
			s0.185-0.578,0.177-0.688h0.577l-0.458,2.012h-5.53V8.037c0.611-0.008,0.917-0.295,0.917-0.859V1.296
			c0-0.558-0.306-0.844-0.917-0.859V0.013h2.858v0.424c-0.627,0.023-0.941,0.311-0.941,0.859v6.729H231.503z"/>
		<path fill="#969696" d="M237.233-0.104c1.129,0,2.023,0.455,2.682,1.364c0.596,0.809,0.894,1.797,0.894,2.965
			c0,1.169-0.298,2.161-0.894,2.977c-0.659,0.902-1.553,1.354-2.682,1.354c-1.122,0-2.012-0.451-2.671-1.354
			c-0.596-0.815-0.894-1.808-0.894-2.977c0-1.168,0.298-2.156,0.894-2.965C235.221,0.351,236.111-0.104,237.233-0.104z
			 M237.209,8.131c0.847,0,1.486-0.487,1.918-1.461c0.329-0.746,0.494-1.603,0.494-2.568c0-0.872-0.185-1.678-0.553-2.416
			c-0.463-0.911-1.09-1.366-1.882-1.366c-0.784,0-1.392,0.459-1.823,1.378c-0.337,0.715-0.506,1.517-0.506,2.404
			c0,0.974,0.157,1.826,0.47,2.557C235.743,7.64,236.37,8.131,237.209,8.131z"/>
		<path fill="#969696" d="M246.786,1.084c0,0.102,0.027,0.251,0.083,0.447l1.406,5.333l1.44-5.51
			c0.024-0.086,0.036-0.169,0.036-0.247c0-0.408-0.282-0.632-0.847-0.671V0.013h2.494v0.424c-0.196,0.016-0.404,0.124-0.624,0.323
			c-0.22,0.2-0.357,0.398-0.412,0.595l-1.965,7.094l-0.582-0.001l-1.603-5.618l-1.574,5.618l-0.583,0.001l-1.976-7.094
			c-0.125-0.439-0.471-0.745-1.036-0.918V0.013h2.859v0.424c-0.573,0.055-0.859,0.271-0.859,0.647c0,0.086,0.012,0.176,0.037,0.27
			l1.444,5.535l1.331-5.063c0.11-0.424,0.165-0.667,0.165-0.729c0-0.432-0.291-0.651-0.871-0.659V0.013h2.506v0.424
			C247.076,0.437,246.786,0.653,246.786,1.084z"/>
		<path fill="#FFFFFF" d="M262.609,5.884c0,0.879-0.313,1.549-0.941,2.012c-0.188,0.142-0.479,0.269-0.871,0.383
			c-0.393,0.113-0.718,0.17-0.977,0.17h-4.188V8.026c0.619-0.031,0.929-0.317,0.929-0.858V1.294c0-0.541-0.31-0.826-0.929-0.857
			V0.013h3.906c0.596,0,1.141,0.165,1.635,0.494c0.557,0.361,0.835,0.824,0.835,1.389c0,0.369-0.099,0.714-0.294,1.035
			c-0.204,0.354-0.471,0.581-0.8,0.683c0.518,0.134,0.929,0.412,1.235,0.835C262.456,4.872,262.609,5.351,262.609,5.884z
			 M257.562,3.437h1.882c0.471,0,0.851-0.12,1.141-0.36c0.29-0.239,0.436-0.592,0.436-1.057c0-0.417-0.159-0.785-0.477-1.104
			c-0.318-0.318-0.685-0.479-1.1-0.479h-1.882V3.437z M257.562,8.026h1.859c0.572,0,1.072-0.21,1.5-0.63
			c0.427-0.42,0.641-0.92,0.641-1.5c0-0.557-0.212-1.031-0.635-1.424c-0.424-0.392-0.917-0.588-1.482-0.588h-1.882V8.026z"/>
		<path fill="#969696" d="M274.021,5.884c0,0.879-0.313,1.549-0.941,2.012c-0.188,0.142-0.479,0.269-0.871,0.383
			c-0.393,0.113-0.718,0.17-0.977,0.17h-4.188V8.026c0.619-0.031,0.929-0.317,0.929-0.858V1.294c0-0.541-0.31-0.826-0.929-0.857
			V0.013h3.906c0.596,0,1.141,0.165,1.635,0.494c0.557,0.361,0.835,0.824,0.835,1.389c0,0.369-0.099,0.714-0.294,1.035
			c-0.204,0.354-0.471,0.581-0.8,0.683c0.518,0.134,0.929,0.412,1.235,0.835C273.868,4.872,274.021,5.351,274.021,5.884z
			 M268.974,3.437h1.882c0.471,0,0.851-0.12,1.141-0.36c0.29-0.239,0.436-0.592,0.436-1.057c0-0.417-0.159-0.785-0.477-1.104
			c-0.318-0.318-0.685-0.479-1.1-0.479h-1.882V3.437z M268.974,8.026h1.859c0.572,0,1.072-0.21,1.5-0.63
			c0.427-0.42,0.641-0.92,0.641-1.5c0-0.557-0.212-1.031-0.635-1.424c-0.424-0.392-0.917-0.588-1.482-0.588h-1.882V8.026z"/>
		<path fill="#969696" d="M278.727,8.026c0.376,0,0.678-0.095,0.906-0.283c0.078-0.062,0.18-0.269,0.306-0.617
			s0.185-0.578,0.177-0.688h0.577l-0.458,2.012h-5.53V8.037c0.611-0.008,0.917-0.295,0.917-0.859V1.296
			c0-0.558-0.306-0.844-0.917-0.859V0.013h2.858v0.424c-0.627,0.023-0.941,0.311-0.941,0.859v6.729H278.727z"/>
		<path fill="#969696" d="M284.468,8.495c-1.247,0-2.086-0.51-2.518-1.529c-0.141-0.329-0.212-0.631-0.212-0.905V1.39
			c0-0.611-0.31-0.93-0.929-0.953V0.013h2.858v0.424c-0.62,0.023-0.929,0.342-0.929,0.953v4.636c0,0.541,0.149,1.008,0.447,1.399
			c0.329,0.432,0.756,0.647,1.282,0.647c0.572,0,1.059-0.198,1.458-0.595c0.4-0.396,0.6-0.88,0.6-1.452V1.39
			c0-0.321-0.07-0.555-0.211-0.7c-0.142-0.145-0.381-0.229-0.718-0.253V0.013h2.506v0.424c-0.62,0.023-0.93,0.342-0.93,0.953v4.671
			c0,0.274-0.062,0.572-0.188,0.894C286.578,7.982,285.738,8.495,284.468,8.495z"/>
		<path fill="#969696" d="M292.679,2.484v2.542h-0.341c-0.142-0.565-0.269-0.877-0.382-0.936c-0.114-0.059-0.555-0.101-1.324-0.124
			v4.06h2.106c0.376,0,0.678-0.095,0.906-0.283c0.078-0.062,0.18-0.267,0.306-0.611s0.185-0.576,0.177-0.694h0.577l-0.459,2.012
			h-5.541V8.026c0.619-0.024,0.929-0.31,0.929-0.858V1.294c0-0.29-0.083-0.502-0.247-0.635c-0.141-0.109-0.369-0.184-0.682-0.223
			V0.013h5.458v2.024h-0.576c0.007-0.119-0.051-0.35-0.177-0.693s-0.228-0.552-0.306-0.623c-0.228-0.189-0.53-0.284-0.906-0.284
			h-1.564v3.095c0.769-0.024,1.204-0.063,1.306-0.118c0.071-0.039,0.153-0.181,0.247-0.424c0.086-0.219,0.137-0.388,0.153-0.506
			H292.679z"/>
		<path fill="#FFFFFF" d="M302.056,4.356l-1.977-3.001c-0.251-0.385-0.635-0.69-1.153-0.918V0.013h2.859v0.424
			c-0.008,0-0.023,0-0.047,0c-0.188,0-0.357,0.043-0.506,0.13c-0.181,0.102-0.271,0.239-0.271,0.411c0,0.126,0.04,0.251,0.118,0.377
			l1.491,2.284l1.579-2.285c0.063-0.086,0.095-0.18,0.095-0.281c0-0.369-0.294-0.581-0.882-0.636V0.013h2.529v0.424
			c-0.361,0.102-0.722,0.406-1.083,0.914l-1.93,2.73l2.006,3.022c0.102,0.156,0.277,0.337,0.527,0.543
			c0.25,0.205,0.453,0.332,0.609,0.379v0.423h-2.882V8.026c0.204-0.008,0.388-0.051,0.553-0.128c0.196-0.108,0.294-0.252,0.294-0.43
			c0-0.124-0.04-0.244-0.118-0.36l-1.517-2.27l-1.554,2.27c-0.055,0.085-0.083,0.197-0.083,0.337c0,0.186,0.092,0.335,0.277,0.447
			c0.184,0.112,0.375,0.157,0.57,0.134v0.423h-2.506V8.026c0.393-0.132,0.758-0.437,1.095-0.917L302.056,4.356z"/>
		<path fill="#969696" d="M317.373,5.884c0,0.879-0.313,1.549-0.941,2.012c-0.188,0.142-0.479,0.269-0.871,0.383
			c-0.393,0.113-0.718,0.17-0.977,0.17h-4.188V8.026c0.619-0.031,0.929-0.317,0.929-0.858V1.294c0-0.541-0.31-0.826-0.929-0.857
			V0.013h3.906c0.596,0,1.141,0.165,1.635,0.494c0.557,0.361,0.835,0.824,0.835,1.389c0,0.369-0.099,0.714-0.294,1.035
			c-0.204,0.354-0.471,0.581-0.8,0.683c0.518,0.134,0.929,0.412,1.235,0.835C317.22,4.872,317.373,5.351,317.373,5.884z
			 M312.326,3.437h1.882c0.471,0,0.851-0.12,1.141-0.36c0.29-0.239,0.436-0.592,0.436-1.057c0-0.417-0.159-0.785-0.477-1.104
			c-0.318-0.318-0.685-0.479-1.1-0.479h-1.882V3.437z M312.326,8.026h1.859c0.572,0,1.072-0.21,1.5-0.63
			c0.427-0.42,0.641-0.92,0.641-1.5c0-0.557-0.212-1.031-0.635-1.424c-0.424-0.392-0.917-0.588-1.482-0.588h-1.882V8.026z"/>
		<path fill="#969696" d="M322.079,8.026c0.376,0,0.678-0.095,0.906-0.283c0.078-0.062,0.18-0.269,0.306-0.617
			s0.185-0.578,0.177-0.688h0.577l-0.458,2.012h-5.53V8.037c0.611-0.008,0.917-0.295,0.917-0.859V1.296
			c0-0.558-0.306-0.844-0.917-0.859V0.013h2.858v0.424c-0.627,0.023-0.941,0.311-0.941,0.859v6.729H322.079z"/>
		<path fill="#969696" d="M326.42,6.143c-0.219,0.639-0.329,0.982-0.329,1.029c0,0.265,0.086,0.468,0.259,0.607
			c0.204,0.164,0.404,0.246,0.6,0.246v0.423h-2.436V8.026c0.502-0.087,0.847-0.396,1.036-0.929l2.141-6.143
			c0.007-0.023,0.012-0.047,0.012-0.07c0-0.134-0.096-0.259-0.289-0.377c-0.192-0.117-0.358-0.176-0.5-0.176V0.013h1.694l2.47,7.095
			c0.149,0.434,0.49,0.739,1.024,0.918v0.423h-2.765V8.026c0.196-0.008,0.375-0.074,0.535-0.199s0.241-0.28,0.241-0.468
			c0-0.14-0.051-0.347-0.153-0.619c-0.086-0.195-0.169-0.394-0.247-0.597H326.42z M329.562,5.719l-1.509-4.263l-1.471,4.263H329.562
			z"/>
		<path fill="#969696" d="M333.42,4.096c0,0.926,0.165,1.772,0.494,2.541c0.431,0.996,1.051,1.494,1.858,1.494
			c0.588,0,1.118-0.301,1.588-0.902c0.431-0.546,0.674-1.124,0.729-1.733h0.553c-0.274,0.98-0.564,1.683-0.871,2.106
			c-0.478,0.635-1.141,0.953-1.988,0.953c-1.129,0-2.02-0.459-2.671-1.377c-0.588-0.823-0.882-1.823-0.882-3
			c0-1.16,0.29-2.141,0.871-2.941c0.643-0.894,1.521-1.341,2.635-1.341c0.267,0,0.592,0.047,0.977,0.142
			c0.431,0.109,0.726,0.234,0.882,0.376l0.282-0.353h0.565V2.26h-0.541c-0.134-0.48-0.4-0.915-0.8-1.302
			c-0.439-0.426-0.886-0.639-1.341-0.639c-0.792,0-1.404,0.459-1.835,1.376C333.589,2.41,333.42,3.209,333.42,4.096z"/>
		<path fill="#969696" d="M341.232,4.664V7.17c0,0.57,0.31,0.855,0.929,0.855v0.423h-2.858V8.026
			c0.619-0.008,0.929-0.294,0.929-0.858V1.294c0-0.563-0.31-0.85-0.929-0.857V0.013h2.858v0.424
			c-0.62,0.008-0.929,0.294-0.929,0.859v2.788l3.294-2.729c0.086-0.07,0.129-0.169,0.129-0.294c0-0.361-0.247-0.569-0.741-0.624
			V0.013h2.765v0.424c-0.322,0.031-1.004,0.494-2.047,1.389c-0.502,0.455-1.008,0.913-1.518,1.376l2.506,3.906
			c0.306,0.465,0.678,0.771,1.118,0.918v0.423h-2.882V8.026l0.035,0.012c0.22,0.016,0.41-0.03,0.571-0.136
			c0.161-0.106,0.241-0.27,0.241-0.49c0-0.102-0.03-0.204-0.091-0.307l-2.14-3.422L341.232,4.664z"/>
		<path fill="#FFFFFF" d="M356.82,1.084c0,0.102,0.027,0.251,0.083,0.447l1.406,5.333l1.44-5.51
			c0.024-0.086,0.036-0.169,0.036-0.247c0-0.408-0.282-0.632-0.847-0.671V0.013h2.494v0.424c-0.196,0.016-0.404,0.124-0.624,0.323
			c-0.22,0.2-0.357,0.398-0.412,0.595l-1.965,7.094l-0.582-0.001l-1.603-5.618l-1.574,5.618l-0.583,0.001l-1.976-7.094
			c-0.125-0.439-0.471-0.745-1.036-0.918V0.013h2.859v0.424c-0.573,0.055-0.859,0.271-0.859,0.647c0,0.086,0.012,0.176,0.037,0.27
			l1.444,5.535l1.331-5.063c0.11-0.424,0.165-0.667,0.165-0.729c0-0.432-0.291-0.651-0.871-0.659V0.013h2.506v0.424
			C357.11,0.437,356.82,0.653,356.82,1.084z"/>
		<path fill="#969696" d="M371.361,1.084c0,0.102,0.027,0.251,0.083,0.447l1.406,5.333l1.44-5.51
			c0.024-0.086,0.036-0.169,0.036-0.247c0-0.408-0.282-0.632-0.847-0.671V0.013h2.494v0.424c-0.196,0.016-0.404,0.124-0.624,0.323
			c-0.22,0.2-0.357,0.398-0.412,0.595l-1.965,7.094l-0.582-0.001l-1.603-5.618l-1.574,5.618l-0.583,0.001l-1.976-7.094
			c-0.125-0.439-0.471-0.745-1.036-0.918V0.013h2.859v0.424c-0.573,0.055-0.859,0.271-0.859,0.647c0,0.086,0.012,0.176,0.037,0.27
			l1.444,5.535l1.331-5.063c0.11-0.424,0.165-0.667,0.165-0.729c0-0.432-0.291-0.651-0.871-0.659V0.013h2.506v0.424
			C371.651,0.437,371.361,0.653,371.361,1.084z"/>
		<path fill="#969696" d="M382.008,3.884h-3.636v3.282c0,0.572,0.31,0.859,0.929,0.859v0.423h-2.858V8.026
			c0.619-0.008,0.929-0.294,0.929-0.858V1.294c0-0.563-0.31-0.85-0.929-0.857V0.013h2.858v0.424c-0.62,0-0.929,0.286-0.929,0.859
			V3.46h3.636V1.296c0-0.573-0.311-0.859-0.93-0.859V0.013h2.859v0.424c-0.613,0.008-0.918,0.294-0.918,0.857v5.873
			c0,0.572,0.305,0.858,0.918,0.858v0.423h-2.859V8.026c0.619,0,0.93-0.287,0.93-0.859V3.884z"/>
		<path fill="#969696" d="M385.525,1.294c0-0.281-0.071-0.485-0.212-0.61c-0.22-0.188-0.459-0.271-0.718-0.247V0.013h2.858v0.424
			c-0.619,0.008-0.929,0.294-0.929,0.857v5.873c0,0.557,0.31,0.843,0.929,0.858v0.423h-2.858V8.026
			c0.619-0.008,0.93-0.294,0.93-0.858V1.294z"/>
		<path fill="#969696" d="M390.254,0.437c-0.126,0-0.286,0.031-0.482,0.095c-0.196,0.062-0.335,0.127-0.418,0.193
			c-0.082,0.067-0.187,0.275-0.312,0.624c-0.126,0.349-0.185,0.578-0.177,0.688h-0.576V0.013h6.4v2.024h-0.577
			c0.008-0.11-0.051-0.34-0.176-0.688c-0.126-0.349-0.229-0.557-0.312-0.624c-0.082-0.066-0.224-0.131-0.423-0.193
			c-0.2-0.063-0.359-0.095-0.477-0.095h-0.729v6.73c0,0.557,0.31,0.843,0.93,0.858v0.423h-2.859V8.026
			c0.313-0.04,0.537-0.114,0.671-0.224c0.164-0.133,0.247-0.345,0.247-0.635v-6.73H390.254z"/>
		<path fill="#969696" d="M399.373,2.484v2.542h-0.342c-0.141-0.565-0.269-0.877-0.382-0.936c-0.114-0.059-0.556-0.101-1.324-0.124
			v4.06h2.106c0.376,0,0.678-0.095,0.906-0.283c0.078-0.062,0.18-0.267,0.306-0.611c0.125-0.345,0.184-0.576,0.176-0.694h0.578
			l-0.459,2.012h-5.541V8.026c0.619-0.024,0.929-0.31,0.929-0.858V1.294c0-0.29-0.082-0.502-0.247-0.635
			c-0.141-0.109-0.368-0.184-0.682-0.223V0.013h5.459v2.024h-0.577c0.008-0.119-0.051-0.35-0.176-0.693
			c-0.126-0.344-0.228-0.552-0.307-0.623c-0.228-0.189-0.529-0.284-0.905-0.284h-1.565v3.095c0.769-0.024,1.204-0.063,1.307-0.118
			c0.07-0.039,0.152-0.181,0.247-0.424c0.086-0.219,0.137-0.388,0.152-0.506H399.373z"/>
		<path fill="#FFFFFF" d="M11.165,16.884v2.541h-0.341c-0.142-0.564-0.269-0.876-0.382-0.936c-0.114-0.059-0.555-0.1-1.324-0.123
			v4.059h2.106c0.376,0,0.678-0.094,0.906-0.282c0.078-0.062,0.18-0.267,0.306-0.612c0.125-0.345,0.185-0.576,0.177-0.693h0.577
			l-0.459,2.012H7.188v-0.424c0.619-0.023,0.929-0.31,0.929-0.857v-5.874c0-0.289-0.083-0.501-0.247-0.634
			c-0.141-0.11-0.369-0.185-0.682-0.224v-0.423h5.458v2.023h-0.576c0.007-0.118-0.051-0.35-0.177-0.693
			c-0.125-0.344-0.228-0.551-0.306-0.622c-0.228-0.189-0.53-0.284-0.906-0.284H9.118v3.094c0.769-0.023,1.204-0.062,1.306-0.117
			c0.071-0.04,0.153-0.181,0.247-0.424c0.086-0.22,0.137-0.389,0.153-0.506H11.165z"/>
		<path fill="#FFFFFF" d="M19.564,15.696c0-0.549-0.31-0.835-0.929-0.858v-0.424h2.494v0.424c-0.314,0.039-0.537,0.113-0.67,0.224
			c-0.165,0.133-0.247,0.345-0.247,0.635v7.153h-0.665l-4.277-7.108v5.828c0,0.29,0.066,0.493,0.2,0.61
			c0.07,0.062,0.186,0.121,0.347,0.176c0.161,0.055,0.285,0.078,0.371,0.07l0.012,0.424h-2.506l-0.012-0.424
			c0.627-0.008,0.941-0.294,0.941-0.857v-5.873c0-0.549-0.31-0.834-0.929-0.857v-0.424h1.929l3.941,6.529V15.696z"/>
		<path fill="#FFFFFF" d="M23.765,14.837c-0.125,0-0.287,0.031-0.482,0.094c-0.196,0.062-0.335,0.128-0.417,0.194
			c-0.083,0.066-0.187,0.274-0.312,0.623c-0.125,0.35-0.185,0.579-0.176,0.688H21.8v-2.023h6.4v2.023h-0.576
			c0.007-0.109-0.051-0.339-0.177-0.688c-0.125-0.349-0.229-0.557-0.312-0.623c-0.083-0.066-0.224-0.132-0.424-0.194
			c-0.2-0.062-0.359-0.094-0.476-0.094h-0.729v6.73c0,0.556,0.31,0.842,0.929,0.857v0.424h-2.859v-0.424
			c0.314-0.039,0.537-0.113,0.671-0.224c0.165-0.133,0.247-0.344,0.247-0.634v-6.73H23.765z"/>
		<path fill="#FFFFFF" d="M32.882,16.884v2.541h-0.341c-0.142-0.564-0.269-0.876-0.382-0.936c-0.114-0.059-0.555-0.1-1.324-0.123
			v4.059h2.106c0.376,0,0.678-0.094,0.906-0.282c0.078-0.062,0.18-0.267,0.306-0.612c0.125-0.345,0.185-0.576,0.177-0.693h0.577
			l-0.459,2.012h-5.541v-0.424c0.619-0.023,0.929-0.31,0.929-0.857v-5.874c0-0.289-0.083-0.501-0.247-0.634
			c-0.141-0.11-0.369-0.185-0.682-0.224v-0.423h5.458v2.023h-0.576c0.007-0.118-0.051-0.35-0.177-0.693
			c-0.125-0.344-0.228-0.551-0.306-0.622c-0.228-0.189-0.53-0.284-0.906-0.284h-1.564v3.094c0.769-0.023,1.204-0.062,1.306-0.117
			c0.071-0.04,0.153-0.181,0.247-0.424c0.086-0.22,0.137-0.389,0.153-0.506H32.882z"/>
		<path fill="#FFFFFF" d="M42.282,21.013h0.177c-0.086,0.439-0.216,0.832-0.388,1.177c-0.251,0.486-0.542,0.729-0.871,0.729
			c-0.393,0-0.698-0.137-0.918-0.412c-0.157-0.212-0.278-0.529-0.364-0.952c-0.063-0.338-0.122-0.679-0.177-1.024
			c-0.157-0.792-0.718-1.188-1.682-1.188h-0.729v2.227c0,0.539,0.31,0.824,0.929,0.855v0.424h-2.859v-0.424
			c0.62-0.031,0.93-0.317,0.93-0.857v-5.874c0-0.556-0.31-0.842-0.93-0.857v-0.423h3.906c0.282,0,0.592,0.047,0.929,0.142
			c0.376,0.109,0.647,0.247,0.812,0.411c0.533,0.525,0.8,1.169,0.8,1.93c0,0.722-0.237,1.313-0.712,1.776s-1.072,0.683-1.794,0.659
			c0.345,0.141,0.545,0.228,0.6,0.259c0.196,0.109,0.353,0.255,0.471,0.435c0.086,0.134,0.188,0.396,0.306,0.789
			c0.125,0.415,0.228,0.701,0.306,0.858c0.142,0.267,0.314,0.4,0.518,0.4C41.847,22.073,42.094,21.719,42.282,21.013z
			 M37.329,18.919h1.635c0.502,0,0.937-0.232,1.306-0.698c0.345-0.441,0.518-0.919,0.518-1.432c0-0.521-0.187-0.977-0.559-1.366
			c-0.373-0.391-0.814-0.586-1.324-0.586h-1.576V18.919z"/>
		<path fill="#969696" d="M49.576,22.472c1.419,0,2.129-0.607,2.129-1.823c0-0.69-0.733-1.341-2.2-1.953
			c-0.917-0.384-1.518-0.678-1.8-0.882c-0.612-0.447-0.917-1.008-0.917-1.683c0-0.589,0.25-1.043,0.753-1.365
			c0.431-0.274,0.957-0.411,1.576-0.411c0.306,0,0.631,0.047,0.977,0.141c0.392,0.103,0.694,0.235,0.906,0.4l0.271-0.377h0.565v2.2
			h-0.529c-0.008-0.109-0.063-0.271-0.165-0.482c-0.479-0.988-1.133-1.482-1.964-1.482c-0.988,0-1.482,0.404-1.482,1.212
			c0,0.486,0.427,0.91,1.282,1.271c1.506,0.644,2.298,0.992,2.376,1.047c0.855,0.526,1.282,1.228,1.282,2.106
			c0,0.784-0.317,1.412-0.953,1.882c-0.573,0.416-1.267,0.624-2.083,0.624c-0.824,0-1.475-0.188-1.953-0.564l-0.271,0.376h-0.564
			v-2.2h0.529c0,0.212,0.059,0.451,0.176,0.718C47.877,22.057,48.564,22.472,49.576,22.472z"/>
		<path fill="#969696" d="M54.787,20.542c-0.219,0.64-0.329,0.982-0.329,1.029c0,0.265,0.086,0.468,0.259,0.608
			c0.204,0.163,0.404,0.245,0.6,0.245v0.424h-2.436v-0.424c0.502-0.086,0.847-0.396,1.036-0.928l2.141-6.143
			c0.007-0.023,0.012-0.047,0.012-0.071c0-0.133-0.096-0.259-0.289-0.376c-0.192-0.118-0.358-0.177-0.5-0.177v-0.317h1.694
			l2.47,7.095c0.149,0.434,0.49,0.739,1.024,0.917v0.424h-2.765v-0.424c0.196-0.008,0.375-0.074,0.535-0.198
			c0.161-0.125,0.241-0.281,0.241-0.468c0-0.141-0.051-0.348-0.153-0.62c-0.086-0.194-0.169-0.394-0.247-0.597H54.787z
			 M57.929,20.119l-1.509-4.264l-1.471,4.264H57.929z"/>
		<path fill="#969696" d="M66.305,14.837c-0.196,0.008-0.398,0.111-0.606,0.312c-0.208,0.2-0.347,0.402-0.418,0.605l-2.376,7.095
			h-0.588l-2.294-7.095c-0.157-0.478-0.502-0.784-1.035-0.917v-0.424h2.859v0.424h-0.035c-0.196-0.008-0.384,0.047-0.565,0.165
			c-0.18,0.118-0.271,0.271-0.271,0.46c0,0.095,0.013,0.193,0.038,0.296l1.822,5.596l1.813-5.599
			c0.022-0.078,0.033-0.157,0.033-0.235c0-0.204-0.098-0.373-0.294-0.506c-0.165-0.11-0.361-0.169-0.588-0.177v-0.424h2.506V14.837z
			"/>
		<path fill="#969696" d="M70.787,16.884v2.541h-0.341c-0.142-0.564-0.269-0.876-0.382-0.936c-0.114-0.059-0.555-0.1-1.324-0.123
			v4.059h2.106c0.376,0,0.678-0.094,0.906-0.282c0.078-0.062,0.18-0.267,0.306-0.612c0.125-0.345,0.185-0.576,0.177-0.693h0.577
			l-0.459,2.012h-5.541v-0.424c0.619-0.023,0.929-0.31,0.929-0.857v-5.874c0-0.289-0.083-0.501-0.247-0.634
			c-0.141-0.11-0.369-0.185-0.682-0.224v-0.423h5.458v2.023h-0.576c0.007-0.118-0.051-0.35-0.177-0.693
			c-0.125-0.344-0.228-0.551-0.306-0.622c-0.228-0.189-0.53-0.284-0.906-0.284H68.74v3.094c0.769-0.023,1.204-0.062,1.306-0.117
			c0.071-0.04,0.153-0.181,0.247-0.424c0.086-0.22,0.137-0.389,0.153-0.506H70.787z"/>
		<path fill="#969696" d="M79.011,21.569c0,0.289,0.086,0.501,0.259,0.634c0.141,0.109,0.369,0.184,0.682,0.223v0.424h-2.858v-0.424
			c0.611-0.016,0.917-0.302,0.917-0.857v-5.873c0-0.549-0.306-0.834-0.917-0.857v-0.424h5.447v2.023h-0.576
			c0.007-0.117-0.051-0.347-0.177-0.688c-0.125-0.341-0.228-0.547-0.306-0.617c-0.228-0.188-0.53-0.282-0.906-0.282l-1.564-0.012
			v3.094c0.769-0.023,1.204-0.062,1.306-0.117c0.071-0.04,0.151-0.177,0.241-0.412s0.143-0.408,0.159-0.518h0.341v2.541h-0.341
			c-0.142-0.564-0.269-0.876-0.382-0.936c-0.114-0.059-0.555-0.1-1.324-0.123V21.569z"/>
		<path fill="#969696" d="M90.046,21.013h0.177c-0.086,0.439-0.216,0.832-0.388,1.177c-0.251,0.486-0.542,0.729-0.871,0.729
			c-0.393,0-0.698-0.137-0.918-0.412c-0.157-0.212-0.278-0.529-0.364-0.952c-0.063-0.338-0.122-0.679-0.177-1.024
			c-0.157-0.792-0.718-1.188-1.682-1.188h-0.729v2.227c0,0.539,0.31,0.824,0.929,0.855v0.424h-2.859v-0.424
			c0.62-0.031,0.93-0.317,0.93-0.857v-5.874c0-0.556-0.31-0.842-0.93-0.857v-0.423h3.906c0.282,0,0.592,0.047,0.929,0.142
			c0.376,0.109,0.647,0.247,0.812,0.411c0.533,0.525,0.8,1.169,0.8,1.93c0,0.722-0.237,1.313-0.712,1.776s-1.072,0.683-1.794,0.659
			c0.345,0.141,0.545,0.228,0.6,0.259c0.196,0.109,0.353,0.255,0.471,0.435c0.086,0.134,0.188,0.396,0.306,0.789
			c0.125,0.415,0.228,0.701,0.306,0.858c0.142,0.267,0.314,0.4,0.518,0.4C89.611,22.073,89.858,21.719,90.046,21.013z
			 M85.093,18.919h1.635c0.502,0,0.937-0.232,1.306-0.698c0.345-0.441,0.518-0.919,0.518-1.432c0-0.521-0.187-0.977-0.559-1.366
			c-0.373-0.391-0.814-0.586-1.324-0.586h-1.576V18.919z"/>
		<path fill="#969696" d="M92.399,20.542c-0.219,0.64-0.329,0.982-0.329,1.029c0,0.265,0.086,0.468,0.259,0.608
			c0.204,0.163,0.404,0.245,0.6,0.245v0.424h-2.436v-0.424c0.502-0.086,0.847-0.396,1.036-0.928l2.141-6.143
			c0.007-0.023,0.012-0.047,0.012-0.071c0-0.133-0.096-0.259-0.289-0.376c-0.192-0.118-0.358-0.177-0.5-0.177v-0.317h1.694
			l2.47,7.095c0.149,0.434,0.49,0.739,1.024,0.917v0.424h-2.765v-0.424c0.196-0.008,0.375-0.074,0.535-0.198
			c0.161-0.125,0.241-0.281,0.241-0.468c0-0.141-0.051-0.348-0.153-0.62c-0.086-0.194-0.169-0.394-0.247-0.597H92.399z
			 M95.541,20.119l-1.509-4.264l-1.471,4.264H95.541z"/>
		<path fill="#969696" d="M106.287,14.413h1.924v0.424c-0.62,0.016-0.929,0.302-0.929,0.857v5.873c0,0.556,0.31,0.842,0.929,0.857
			v0.424h-2.859v-0.424c0.62-0.016,0.93-0.302,0.93-0.857v-5.754l-2.906,7.035h-0.376l-2.906-7.035v5.754
			c0,0.556,0.31,0.842,0.93,0.857v0.424h-2.506v-0.424c0.619-0.016,0.929-0.302,0.929-0.857v-5.873c0-0.267-0.086-0.481-0.259-0.646
			c-0.173-0.164-0.396-0.234-0.67-0.211v-0.424h1.939l2.941,6.935L106.287,14.413z"/>
		<path fill="#969696" d="M112.834,16.884v2.541h-0.341c-0.142-0.564-0.269-0.876-0.382-0.936c-0.114-0.059-0.555-0.1-1.324-0.123
			v4.059h2.106c0.376,0,0.678-0.094,0.906-0.282c0.078-0.062,0.18-0.267,0.306-0.612c0.125-0.345,0.185-0.576,0.177-0.693h0.577
			l-0.459,2.012h-5.541v-0.424c0.619-0.023,0.929-0.31,0.929-0.857v-5.874c0-0.289-0.083-0.501-0.247-0.634
			c-0.141-0.11-0.369-0.185-0.682-0.224v-0.423h5.458v2.023h-0.576c0.007-0.118-0.051-0.35-0.177-0.693
			c-0.125-0.344-0.228-0.551-0.306-0.622c-0.228-0.189-0.53-0.284-0.906-0.284h-1.564v3.094c0.769-0.023,1.204-0.062,1.306-0.117
			c0.071-0.04,0.153-0.181,0.247-0.424c0.086-0.22,0.137-0.389,0.153-0.506H112.834z"/>
		<path fill="#FFFFFF" d="M126.104,20.284c0,0.879-0.313,1.55-0.941,2.012c-0.188,0.142-0.479,0.27-0.871,0.383
			c-0.393,0.114-0.718,0.171-0.977,0.171h-4.188v-0.424c0.619-0.031,0.929-0.317,0.929-0.857v-5.874c0-0.54-0.31-0.826-0.929-0.857
			v-0.423h3.906c0.596,0,1.141,0.165,1.635,0.494c0.557,0.36,0.835,0.823,0.835,1.388c0,0.369-0.099,0.714-0.294,1.036
			c-0.204,0.353-0.471,0.58-0.8,0.682c0.518,0.134,0.929,0.412,1.235,0.836C125.952,19.272,126.104,19.75,126.104,20.284z
			 M121.058,17.837h1.882c0.471,0,0.851-0.12,1.141-0.36s0.436-0.593,0.436-1.058c0-0.417-0.159-0.785-0.477-1.104
			c-0.318-0.318-0.685-0.478-1.1-0.478h-1.882V17.837z M121.058,22.425h1.859c0.572,0,1.072-0.21,1.5-0.63
			c0.427-0.419,0.641-0.919,0.641-1.5c0-0.557-0.212-1.031-0.635-1.423c-0.424-0.393-0.917-0.589-1.482-0.589h-1.882V22.425z"/>
		<path fill="#FFFFFF" d="M128.128,20.542c-0.219,0.64-0.329,0.982-0.329,1.029c0,0.265,0.086,0.468,0.259,0.608
			c0.204,0.163,0.404,0.245,0.6,0.245v0.424h-2.436v-0.424c0.502-0.086,0.847-0.396,1.036-0.928l2.141-6.143
			c0.007-0.023,0.012-0.047,0.012-0.071c0-0.133-0.096-0.259-0.289-0.376c-0.192-0.118-0.358-0.177-0.5-0.177v-0.317h1.694
			l2.47,7.095c0.149,0.434,0.49,0.739,1.024,0.917v0.424h-2.765v-0.424c0.196-0.008,0.375-0.074,0.535-0.198
			c0.161-0.125,0.241-0.281,0.241-0.468c0-0.141-0.051-0.348-0.153-0.62c-0.086-0.194-0.169-0.394-0.247-0.597H128.128z
			 M131.27,20.119l-1.509-4.264l-1.471,4.264H131.27z"/>
		<path fill="#FFFFFF" d="M135.128,18.495c0,0.926,0.165,1.772,0.494,2.541c0.431,0.997,1.051,1.494,1.858,1.494
			c0.588,0,1.118-0.3,1.588-0.901c0.431-0.547,0.674-1.124,0.729-1.733h0.553c-0.274,0.98-0.564,1.683-0.871,2.105
			c-0.478,0.636-1.141,0.953-1.988,0.953c-1.129,0-2.02-0.459-2.671-1.376c-0.588-0.824-0.882-1.824-0.882-3
			c0-1.161,0.29-2.142,0.871-2.941c0.643-0.895,1.521-1.342,2.635-1.342c0.267,0,0.592,0.048,0.977,0.142
			c0.431,0.11,0.726,0.235,0.882,0.377l0.282-0.354h0.565v2.2h-0.541c-0.134-0.481-0.4-0.915-0.8-1.302
			c-0.439-0.427-0.886-0.64-1.341-0.64c-0.792,0-1.404,0.459-1.835,1.377C135.297,16.81,135.128,17.61,135.128,18.495z"/>
		<path fill="#FFFFFF" d="M142.94,19.065v2.506c0,0.569,0.31,0.854,0.929,0.854v0.424h-2.858v-0.424
			c0.619-0.008,0.929-0.294,0.929-0.857v-5.873c0-0.564-0.31-0.85-0.929-0.857v-0.424h2.858v0.424
			c-0.62,0.008-0.929,0.294-0.929,0.858v2.788l3.294-2.729c0.086-0.07,0.129-0.168,0.129-0.294c0-0.36-0.247-0.568-0.741-0.623
			v-0.424h2.765v0.424c-0.322,0.031-1.004,0.494-2.047,1.388c-0.502,0.455-1.008,0.914-1.518,1.377l2.506,3.906
			c0.306,0.464,0.678,0.77,1.118,0.917v0.424h-2.882v-0.424l0.035,0.012c0.22,0.016,0.41-0.029,0.571-0.136
			c0.161-0.105,0.241-0.27,0.241-0.489c0-0.103-0.03-0.204-0.091-0.307l-2.14-3.423L142.94,19.065z"/>
		<path fill="#FFFFFF" d="M152.116,22.472c1.419,0,2.129-0.607,2.129-1.823c0-0.69-0.733-1.341-2.2-1.953
			c-0.917-0.384-1.518-0.678-1.8-0.882c-0.612-0.447-0.917-1.008-0.917-1.683c0-0.589,0.25-1.043,0.753-1.365
			c0.431-0.274,0.957-0.411,1.576-0.411c0.306,0,0.631,0.047,0.977,0.141c0.392,0.103,0.694,0.235,0.906,0.4l0.271-0.377h0.565v2.2
			h-0.529c-0.008-0.109-0.063-0.271-0.165-0.482c-0.479-0.988-1.133-1.482-1.964-1.482c-0.988,0-1.482,0.404-1.482,1.212
			c0,0.486,0.427,0.91,1.282,1.271c1.506,0.644,2.298,0.992,2.376,1.047c0.855,0.526,1.282,1.228,1.282,2.106
			c0,0.784-0.317,1.412-0.953,1.882c-0.573,0.416-1.267,0.624-2.083,0.624c-0.824,0-1.475-0.188-1.953-0.564l-0.271,0.376h-0.564
			v-2.2h0.529c0,0.212,0.059,0.451,0.176,0.718C150.418,22.057,151.104,22.472,152.116,22.472z"/>
		<path fill="#FFFFFF" d="M157.833,21.576c0,0.286,0.083,0.496,0.247,0.628c0.141,0.108,0.369,0.182,0.682,0.221v0.424h-2.858
			v-0.424c0.619-0.023,0.929-0.31,0.929-0.857v-5.874c0-0.289-0.083-0.501-0.247-0.634c-0.141-0.11-0.369-0.185-0.682-0.224v-0.423
			h3.906c0.282,0,0.592,0.047,0.929,0.142c0.376,0.109,0.647,0.247,0.812,0.411c0.525,0.525,0.788,1.169,0.788,1.93
			c0,0.745-0.263,1.368-0.788,1.87c-0.424,0.408-1.271,0.612-2.542,0.612c-0.172,0-0.39,0-0.653,0s-0.437,0-0.523,0V21.576z
			 M157.833,18.919h1.388c0.588,0,1.081-0.198,1.477-0.596s0.594-0.891,0.594-1.481c0-0.55-0.208-1.021-0.624-1.415
			c-0.416-0.394-0.898-0.59-1.447-0.59h-1.388V18.919z"/>
		<path fill="#FFFFFF" d="M163.363,20.542c-0.219,0.64-0.329,0.982-0.329,1.029c0,0.265,0.086,0.468,0.259,0.608
			c0.204,0.163,0.404,0.245,0.6,0.245v0.424h-2.436v-0.424c0.502-0.086,0.847-0.396,1.036-0.928l2.141-6.143
			c0.007-0.023,0.012-0.047,0.012-0.071c0-0.133-0.096-0.259-0.289-0.376c-0.192-0.118-0.358-0.177-0.5-0.177v-0.317h1.694
			l2.47,7.095c0.149,0.434,0.49,0.739,1.024,0.917v0.424h-2.765v-0.424c0.196-0.008,0.375-0.074,0.535-0.198
			c0.161-0.125,0.241-0.281,0.241-0.468c0-0.141-0.051-0.348-0.153-0.62c-0.086-0.194-0.169-0.394-0.247-0.597H163.363z
			 M166.504,20.119l-1.509-4.264l-1.471,4.264H166.504z"/>
		<path fill="#FFFFFF" d="M170.363,18.495c0,0.926,0.165,1.772,0.494,2.541c0.431,0.997,1.051,1.494,1.858,1.494
			c0.588,0,1.118-0.3,1.588-0.901c0.431-0.547,0.674-1.124,0.729-1.733h0.553c-0.274,0.98-0.564,1.683-0.871,2.105
			c-0.478,0.636-1.141,0.953-1.988,0.953c-1.129,0-2.02-0.459-2.671-1.376c-0.588-0.824-0.882-1.824-0.882-3
			c0-1.161,0.29-2.142,0.871-2.941c0.643-0.895,1.521-1.342,2.635-1.342c0.267,0,0.592,0.048,0.977,0.142
			c0.431,0.11,0.726,0.235,0.882,0.377l0.282-0.354h0.565v2.2h-0.541c-0.134-0.481-0.4-0.915-0.8-1.302
			c-0.439-0.427-0.886-0.64-1.341-0.64c-0.792,0-1.404,0.459-1.835,1.377C170.532,16.81,170.363,17.61,170.363,18.495z"/>
		<path fill="#FFFFFF" d="M180.222,16.884v2.541h-0.341c-0.142-0.564-0.269-0.876-0.382-0.936c-0.114-0.059-0.555-0.1-1.324-0.123
			v4.059h2.106c0.376,0,0.678-0.094,0.906-0.282c0.078-0.062,0.18-0.267,0.306-0.612c0.125-0.345,0.185-0.576,0.177-0.693h0.577
			l-0.459,2.012h-5.541v-0.424c0.619-0.023,0.929-0.31,0.929-0.857v-5.874c0-0.289-0.083-0.501-0.247-0.634
			c-0.141-0.11-0.369-0.185-0.682-0.224v-0.423h5.458v2.023h-0.576c0.007-0.118-0.051-0.35-0.177-0.693
			c-0.125-0.344-0.228-0.551-0.306-0.622c-0.228-0.189-0.53-0.284-0.906-0.284h-1.564v3.094c0.769-0.023,1.204-0.062,1.306-0.117
			c0.071-0.04,0.153-0.181,0.247-0.424c0.086-0.22,0.137-0.389,0.153-0.506H180.222z"/>
		<path fill="#969696" d="M187.787,18.495c0,0.926,0.165,1.772,0.494,2.541c0.431,0.997,1.051,1.494,1.858,1.494
			c0.588,0,1.118-0.3,1.588-0.901c0.431-0.547,0.674-1.124,0.729-1.733h0.553c-0.274,0.98-0.564,1.683-0.871,2.105
			c-0.478,0.636-1.141,0.953-1.988,0.953c-1.129,0-2.02-0.459-2.671-1.376c-0.588-0.824-0.882-1.824-0.882-3
			c0-1.161,0.29-2.142,0.871-2.941c0.643-0.895,1.521-1.342,2.635-1.342c0.267,0,0.592,0.048,0.977,0.142
			c0.431,0.11,0.726,0.235,0.882,0.377l0.282-0.354h0.565v2.2h-0.541c-0.134-0.481-0.4-0.915-0.8-1.302
			c-0.439-0.427-0.886-0.64-1.341-0.64c-0.792,0-1.404,0.459-1.835,1.377C187.955,16.81,187.787,17.61,187.787,18.495z"/>
		<path fill="#969696" d="M197.704,22.425c0.376,0,0.678-0.094,0.906-0.282c0.078-0.062,0.18-0.269,0.306-0.618
			c0.125-0.349,0.185-0.578,0.177-0.688h0.577l-0.458,2.012h-5.53v-0.412c0.611-0.008,0.917-0.294,0.917-0.858v-5.883
			c0-0.557-0.306-0.843-0.917-0.858v-0.424h2.858v0.424c-0.627,0.023-0.941,0.31-0.941,0.858v6.729H197.704z"/>
		<path fill="#969696" d="M204.151,16.884v2.541h-0.341c-0.142-0.564-0.269-0.876-0.382-0.936c-0.114-0.059-0.555-0.1-1.324-0.123
			v4.059h2.106c0.376,0,0.678-0.094,0.906-0.282c0.078-0.062,0.18-0.267,0.306-0.612c0.125-0.345,0.185-0.576,0.177-0.693h0.577
			l-0.459,2.012h-5.541v-0.424c0.619-0.023,0.929-0.31,0.929-0.857v-5.874c0-0.289-0.083-0.501-0.247-0.634
			c-0.141-0.11-0.369-0.185-0.682-0.224v-0.423h5.458v2.023h-0.576c0.007-0.118-0.051-0.35-0.177-0.693
			c-0.125-0.344-0.228-0.551-0.306-0.622c-0.228-0.189-0.53-0.284-0.906-0.284h-1.564v3.094c0.769-0.023,1.204-0.062,1.306-0.117
			c0.071-0.04,0.153-0.181,0.247-0.424c0.086-0.22,0.137-0.389,0.153-0.506H204.151z"/>
		<path fill="#969696" d="M208.551,20.542c-0.219,0.64-0.329,0.982-0.329,1.029c0,0.265,0.086,0.468,0.259,0.608
			c0.204,0.163,0.404,0.245,0.6,0.245v0.424h-2.436v-0.424c0.502-0.086,0.847-0.396,1.036-0.928l2.141-6.143
			c0.007-0.023,0.012-0.047,0.012-0.071c0-0.133-0.096-0.259-0.289-0.376c-0.192-0.118-0.358-0.177-0.5-0.177v-0.317h1.694
			l2.47,7.095c0.149,0.434,0.49,0.739,1.024,0.917v0.424h-2.765v-0.424c0.196-0.008,0.375-0.074,0.535-0.198
			c0.161-0.125,0.241-0.281,0.241-0.468c0-0.141-0.051-0.348-0.153-0.62c-0.086-0.194-0.169-0.394-0.247-0.597H208.551z
			 M211.692,20.119l-1.509-4.264l-1.471,4.264H211.692z"/>
		<path fill="#969696" d="M221.539,21.013h0.177c-0.086,0.439-0.216,0.832-0.388,1.177c-0.251,0.486-0.542,0.729-0.871,0.729
			c-0.393,0-0.698-0.137-0.918-0.412c-0.157-0.212-0.278-0.529-0.364-0.952c-0.063-0.338-0.122-0.679-0.177-1.024
			c-0.157-0.792-0.718-1.188-1.682-1.188h-0.729v2.227c0,0.539,0.31,0.824,0.929,0.855v0.424h-2.859v-0.424
			c0.62-0.031,0.93-0.317,0.93-0.857v-5.874c0-0.556-0.31-0.842-0.93-0.857v-0.423h3.906c0.282,0,0.592,0.047,0.929,0.142
			c0.376,0.109,0.647,0.247,0.812,0.411c0.533,0.525,0.8,1.169,0.8,1.93c0,0.722-0.237,1.313-0.712,1.776s-1.072,0.683-1.794,0.659
			c0.345,0.141,0.545,0.228,0.6,0.259c0.196,0.109,0.353,0.255,0.471,0.435c0.086,0.134,0.188,0.396,0.306,0.789
			c0.125,0.415,0.228,0.701,0.306,0.858c0.142,0.267,0.314,0.4,0.518,0.4C221.104,22.073,221.351,21.719,221.539,21.013z
			 M216.586,18.919h1.635c0.502,0,0.937-0.232,1.306-0.698c0.345-0.441,0.518-0.919,0.518-1.432c0-0.521-0.187-0.977-0.559-1.366
			c-0.373-0.391-0.814-0.586-1.324-0.586h-1.576V18.919z"/>
		<path fill="#969696" d="M227.656,20.542c-0.219,0.64-0.329,0.982-0.329,1.029c0,0.265,0.086,0.468,0.259,0.608
			c0.204,0.163,0.404,0.245,0.6,0.245v0.424h-2.436v-0.424c0.502-0.086,0.847-0.396,1.036-0.928l2.141-6.143
			c0.007-0.023,0.012-0.047,0.012-0.071c0-0.133-0.096-0.259-0.289-0.376c-0.192-0.118-0.358-0.177-0.5-0.177v-0.317h1.694
			l2.47,7.095c0.149,0.434,0.49,0.739,1.024,0.917v0.424h-2.765v-0.424c0.196-0.008,0.375-0.074,0.535-0.198
			c0.161-0.125,0.241-0.281,0.241-0.468c0-0.141-0.051-0.348-0.153-0.62c-0.086-0.194-0.169-0.394-0.247-0.597H227.656z
			 M230.798,20.119l-1.509-4.264l-1.471,4.264H230.798z"/>
		<path fill="#969696" d="M237.81,22.425c0.376,0,0.678-0.094,0.906-0.282c0.078-0.062,0.18-0.269,0.306-0.618
			c0.125-0.349,0.185-0.578,0.177-0.688h0.577l-0.458,2.012h-5.53v-0.412c0.611-0.008,0.917-0.294,0.917-0.858v-5.883
			c0-0.557-0.306-0.843-0.917-0.858v-0.424h2.858v0.424c-0.627,0.023-0.941,0.31-0.941,0.858v6.729H237.81z"/>
		<path fill="#969696" d="M244.315,22.425c0.376,0,0.678-0.094,0.906-0.282c0.078-0.062,0.18-0.269,0.306-0.618
			c0.125-0.349,0.185-0.578,0.177-0.688h0.577l-0.458,2.012h-5.53v-0.412c0.611-0.008,0.917-0.294,0.917-0.858v-5.883
			c0-0.557-0.306-0.843-0.917-0.858v-0.424h2.858v0.424c-0.627,0.023-0.941,0.31-0.941,0.858v6.729H244.315z"/>
	</g>
</g>
</svg>
