<?xml version="1.0" encoding="utf-8"?>
<!-- Generator: Adobe Illustrator 17.0.0, SVG Export Plug-In . SVG Version: 6.00 Build 0)  -->
<!DOCTYPE svg PUBLIC "-//W3C//DTD SVG 1.1//EN" "http://www.w3.org/Graphics/SVG/1.1/DTD/svg11.dtd">
<svg version="1.1" id="Layer_1" xmlns="http://www.w3.org/2000/svg" xmlns:xlink="http://www.w3.org/1999/xlink" x="0px" y="0px"
	 width="272px" height="113.896px" viewBox="0 0 272 113.896" enable-background="new 0 0 272 113.896" xml:space="preserve">
<linearGradient id="SVGID_1_" gradientUnits="userSpaceOnUse" x1="35.6545" y1="13.18" x2="40.2386" y2="13.18">
	<stop  offset="0" style="stop-color:#E30B13"/>
	<stop  offset="0.1007" style="stop-color:#E30B13;stop-opacity:0"/>
	<stop  offset="0.2" style="stop-color:#E30B13"/>
	<stop  offset="0.3" style="stop-color:#E30B13;stop-opacity:0"/>
	<stop  offset="0.402" style="stop-color:#E30B13"/>
	<stop  offset="0.5" style="stop-color:#E30B13;stop-opacity:0"/>
	<stop  offset="0.6" style="stop-color:#E30B13"/>
	<stop  offset="0.7" style="stop-color:#E30B13;stop-opacity:0"/>
	<stop  offset="0.8" style="stop-color:#E30B13"/>
	<stop  offset="0.9" style="stop-color:#E30B13;stop-opacity:0"/>
	<stop  offset="1" style="stop-color:#E30B13"/>
</linearGradient>
<path fill-rule="evenodd" clip-rule="evenodd" fill="url(#SVGID_1_)" d="M37.014,21.776c-0.424-2.317-0.299-6.119,0.057-9.39
	c0.489-4.493,2.308-7.648,3.167-9.277c-0.734,0.931-1.781,2.564-2.842,5.641c-1.209,3.504-1.96,8.706-1.685,12.493
	c0.047,0.645,0.127,1.323,0.221,2.01C36.472,22.879,36.507,22.17,37.014,21.776z"/>
<linearGradient id="SVGID_2_" gradientUnits="userSpaceOnUse" x1="22.012" y1="51.2071" x2="50.5043" y2="51.2071">
	<stop  offset="0" style="stop-color:#E30B13"/>
	<stop  offset="0.1007" style="stop-color:#E30B13;stop-opacity:0"/>
	<stop  offset="0.2" style="stop-color:#E30B13"/>
	<stop  offset="0.3" style="stop-color:#E30B13;stop-opacity:0"/>
	<stop  offset="0.402" style="stop-color:#E30B13"/>
	<stop  offset="0.5" style="stop-color:#E30B13;stop-opacity:0"/>
	<stop  offset="0.6" style="stop-color:#E30B13"/>
	<stop  offset="0.7" style="stop-color:#E30B13;stop-opacity:0"/>
	<stop  offset="0.8" style="stop-color:#E30B13"/>
	<stop  offset="0.9" style="stop-color:#E30B13;stop-opacity:0"/>
	<stop  offset="1" style="stop-color:#E30B13"/>
</linearGradient>
<path fill-rule="evenodd" clip-rule="evenodd" fill="url(#SVGID_2_)" d="M46.183,53.871c0.685-1.366,0.768-2.568,1.562-3.408
	c2.224-2.352,2.669-4.634,2.752-7.94c0.097-3.82-0.908-9.291-1.646-10.828c0.87,4.554,0.798,7.883,0.622,10.615
	c-0.231,3.573-1.606,7.307-2.467,6.519c-2.311-2.103-1.348-10.292-0.684-14.387c0.96-5.898,0.823-10.098-1.394-13.919
	c0.599,1.958,2.696,8.068-0.836,13.853c-0.046,0.074-0.099,0.155-0.164,0.192c-0.18,0.103-0.405,0.172-0.53,0.052
	c-0.963-0.91-0.863-4.162-0.4-6.637c0.426-2.273,1.182-3.823,1.198-3.859c-3.72,5.8-1.607,12.579-3.673,14.452
	c-0.191,0.172-0.035,0.12-0.236,0.166c-0.121,0.03-0.262,0.081-0.339-0.005c-0.901-1.015-0.799-3.519,0.29-6.097
	c0.817-1.938,1.437-4.181,1.286-5.658c-0.24,1.189-0.915,2.903-1.408,3.843c-1.789,3.59-1.478,4.597-1.675,7.43
	c-0.097,1.435,0.285,4.265-1.14,5.972c-0.277,0.333-0.279,0.405-0.594,0.419c-0.197,0.009-0.465,0.105-0.554-0.096
	c-2.187-4.87,1.487-9.976,5.002-21.508c2.503-8.218-2.311-11.386,2.055-21.609c-2.662,4.677-3.868,11.851-3.175,14.999
	c0.714,3.247,0.496,6.251-1.153,7.285c-0.985,0.617-1.566-0.285-1.869-1.94c-0.507,0.394-0.542,1.104-1.082,1.476
	c0.548,4.006,1.637,8.384,0.258,9.227c-1.716,1.048-2.188-3.311-2.448-4.675c-1.067-5.544,0.45-16.433,3.066-20.831
	c-2.329,2.967-3.929,9.546-4.293,14.277c-0.628,8.125,1.647,10.277,2.14,15.859c0.303,3.408-0.441,7.254-1.231,11.459
	c-0.554,2.96-1.353,9.484-3.333,10.079c-0.626,0.189-1.645-0.043-1.979-0.937c-1.643-4.412,3.191-9.483,4.346-15.581
	c1.001-5.296,0.098-9.464-1.125-13.204c-0.42-1.48-0.982-2.863-1.263-4.45c-0.306-1.727-0.003-4.888,0.805-7.871
	c1.221-4.493,3.334-8.846,3.321-8.851c-4.802,8.825-5.51,14.161-4.928,20.601c0.565,6.261,5.133,12.762-0.426,18.091
	c-0.293,0.28-0.491,0.437-0.793,0.071c-2.274-2.761,0.071-8.775,0.07-13.635c-0.001-4.066-1.636-7.661-1.286-11.945
	c0.476-5.805,4.887-10.917,7.23-15.488c2.02-3.942,2.086-5.442,2.075-5.446c-1.335,3.955-4.858,9.017-7.148,12.535
	c-1.859,2.855-2.795,4.863-2.962,8.751c-0.172,3.949,1.188,8.575,0.978,13.504c-0.227,5.41-2.008,11.482-2.051,16.642
	c-0.078,9.717,2.419,18.158,5.298,25.803c1.765,4.685,3.546,8.772,4.332,14.112c0.199,1.368,0.97,4.876-0.577,6.466
	c-0.235,0.242-0.492,0.52-0.756,0.613c-4.929,1.747-1.898-10.974-2.228-15.098c-0.34-4.175-3.692-6.173-5.736-9.159
	c-2.133-3.12-3.214-10.858-1.798-16.369c-0.026-0.011-0.051-0.018-0.073-0.028c-2.857,8.66-0.953,15.284,2.194,19.814
	c1.079,1.549,4.804,4.953,2.53,8.251c-0.071,0.102-0.127,0.242-0.215,0.307c-2.985,2.186-1.092-4.158-3.285-6.589
	c-0.517,3.929,0.169,6.846,1.901,9.18c0.744,1.009,1.573,1.613,2.015,2.792c1.134,2.995,1.112,7.221,2.877,9.71
	c1.496,2.107,4.457,1.014,6.116-0.412c1.991-1.701,4.487-4.371,5.037-8.463c0.309-2.281-0.635-7.14,1.895-8.18
	c1.767-0.724,0.348,4.773-0.9,7.403c1.052-1.294,2.347-4.584,2.795-6.487c1.249-5.31,3.16-12.806,1.232-18.416
	c0.609,5.868-0.864,13.17-3.386,13.857c-2.421,0.661-3.027-6.259,0.13-9.783c-2.264,1.58-3.501,4.458-3.641,7.863
	c-0.183,4.443,1.541,8.298,1.156,11.646c-0.299,2.617-1.157,4.064-2.248,4.177c-2.031,0.209-2.077-1.612-3.735-6.528
	c-2.074-6.16-4.555-12.099-5.845-18.778c-0.397-2.06-2.295-5.667-0.372-7.905c0.14-0.164,0.334-0.148,0.5-0.194
	c2.532-0.702,2.232,3.226,2.236,4.982c0.01,3.65,0.198,9.1,2.522,11.013c-0.651-1.367-0.904-2.531-1.046-4.256
	c-0.476-5.728-0.032-12.426,1.463-19.49c0.591-2.793,2.785-9.209,4.715-9.776c0.141,0.011,0.28,0.022,0.414,0.034
	c0.036,1.549-1.428,3.89-1.888,5.934c-0.535,2.354-0.355,4.718,0.382,6.2c0.289-1.762,0.577-3.533,0.866-5.297
	c0.825-3.476,2.953-6.22,4.315-8.363c0.026,0.009,0.049,0.018,0.074,0.029c0.008,1.316,0.013,2.632,0.022,3.948
	c0.14,1.915,1.854,4.482,0.117,7.278c-0.448,0.608-0.822,0.831-1.406,0.742c-0.477-0.854-0.101-2.404,0.393-3.912
	c-0.026-0.009-0.049-0.02-0.072-0.03c-1.91,3.499-3.057,8.018-3.606,11.016c-0.298,1.618-0.397,3.488-1.276,5.264
	c-1.827-0.915-0.775-5,0.578-8.172c-2.235,1.368-3.486,7.599-3.747,9.905c-0.742,6.566,1.178,12.242,2.835,17.184
	c0.438,1.323,0.699,3.089,1.469,4.144c-0.377-4.298-1.825-7.634-1.829-12.306c0-1.364-0.215-3.954,1.095-5.861
	c0.873-1.27,2.224-0.901,3.793-2.028c1.773-1.274,2.55-3.582,3.908-6.933c-0.023-0.01-0.046-0.018-0.07-0.028
	c-0.984,2.475-2.806,5.06-4.886,4.717c-1.848-0.305-1.422-5.351,0.786-7.827C43.587,57.735,45.217,55.803,46.183,53.871z"/>
<g>
	<linearGradient id="SVGID_3_" gradientUnits="userSpaceOnUse" x1="35.7195" y1="76.9949" x2="35.7195" y2="39.7449">
		<stop  offset="0" style="stop-color:#FFEBA9"/>
		<stop  offset="0.5" style="stop-color:#FECC00"/>
		<stop  offset="1" style="stop-color:#F8AE00"/>
	</linearGradient>
	<path fill="url(#SVGID_3_)" d="M40.263,61.961C25.688,50.602,21.298,44.785,21.298,37.029c0-6.649,3.193-15.792,16.327-15.792
		c6.951,0,14.911,7.619,14.911,15.514c0,2.355,0,2.355,0.561,2.355c0.336,0,0.336-0.139,0.336-2.217c0-1.8-0.561-10.665-0.224-15.93
		c-4.372-2.908-8.297-4.708-14.574-4.708c-15.809,0-22.2,11.119-22.2,21.922c0,13.297,5.854,16.383,18.076,25.941
		C48.526,75.058,49.51,85.924,49.51,90.08c0,7.48-6.503,14.822-15.585,14.822c-10.763,0-16.929-6.787-16.929-17.037
		c0-1.662-0.336-1.802-0.672-1.802c-0.224,0-0.561,0.277-0.561,1.524c0,0.97,0.223,7.757,0.223,10.25
		c0,1.662-0.112,3.601-0.223,5.54c5.83,3.74,8.744,6.51,17.041,6.51c10.988,0,22.872-7.618,22.872-24.101
		C55.676,80.384,52.819,71.796,40.263,61.961z"/>
	<linearGradient id="SVGID_4_" gradientUnits="userSpaceOnUse" x1="67.8923" y1="76.9949" x2="67.8923" y2="39.7449">
		<stop  offset="0" style="stop-color:#FFEBA9"/>
		<stop  offset="0.5" style="stop-color:#FECC00"/>
		<stop  offset="1" style="stop-color:#F8AE00"/>
	</linearGradient>
	<path fill="url(#SVGID_4_)" d="M78.323,51.15c0,0.59,0.074,2.506,0.074,3.391c0,1.032-0.148,1.695-0.443,1.695
		s-0.295-0.221-0.295-0.515c0-0.738,0.074-1.327,0.074-2.064c0-2.506-2.58-5.602-8.772-5.602c-8.035,0-10.542,6.118-10.542,10.615
		c0,8.182,6.635,13.71,13.638,13.71c2.874,0,5.086-0.59,6.486-1.769c1.548-1.253,1.843-3.096,2.359-3.096
		c0.148,0,0.222,0.147,0.222,0.369c0,0.663-0.959,2.211-1.401,2.801c-2.138,2.875-5.381,5.307-10.762,5.307
		c-8.404,0-14.301-7.15-14.301-14.079c0-8.256,9.067-17.471,17.618-17.471c1.106,0,3.612,0.074,6.118,1.622
		C78.618,47.17,78.323,49.087,78.323,51.15z"/>
	<linearGradient id="SVGID_5_" gradientUnits="userSpaceOnUse" x1="91.1828" y1="76.9949" x2="91.1828" y2="39.7449">
		<stop  offset="0" style="stop-color:#FFEBA9"/>
		<stop  offset="0.5" style="stop-color:#FECC00"/>
		<stop  offset="1" style="stop-color:#F8AE00"/>
	</linearGradient>
	<path fill="url(#SVGID_5_)" d="M93.284,69.948c0,2.432,0.147,5.013,2.948,5.013c0.737,0,1.474-0.148,2.064-0.148
		c0.295,0,0.369,0.148,0.369,0.442c0,0.295-0.294,0.369-1.769,0.369c-0.515,0-1.843-0.073-3.022-0.148
		c-1.18,0-2.285-0.073-2.506-0.073c-0.442,0-1.769,0.073-3.023,0.073c-1.253,0.074-2.506,0.148-2.948,0.148
		c-1.401,0-1.695,0-1.695-0.221c0-0.369,0.073-0.516,0.442-0.516c0.443,0,1.106,0.074,1.401,0.074c3.833,0,3.464-1.769,3.464-5.455
		V52.035c0-1.548-0.073-2.727-1.401-2.727c-0.516,0-1.106,0.369-1.548,0.59c-0.369,0.222-0.516,0.295-0.737,0.295
		c-0.148,0-0.222-0.295-0.148-0.516c0.073-0.148,1.179-0.663,1.474-0.885c2.285-1.327,4.718-2.948,6.929-4.644
		c-0.294,3.169-0.294,3.685-0.294,5.897V69.948z M91.44,38.693c-0.884-0.811-2.285-2.211-3.244-3.096
		c0.443-0.59,2.728-2.875,3.17-3.391c0.811,0.664,1.179,1.032,3.464,3.169C94.242,36.039,92.178,37.292,91.44,38.693z"/>
	<linearGradient id="SVGID_6_" gradientUnits="userSpaceOnUse" x1="125.0895" y1="76.9949" x2="125.0895" y2="39.7449">
		<stop  offset="0" style="stop-color:#FFEBA9"/>
		<stop  offset="0.5" style="stop-color:#FECC00"/>
		<stop  offset="1" style="stop-color:#F8AE00"/>
	</linearGradient>
	<path fill="url(#SVGID_6_)" d="M110.383,69.727c0,3.244-0.221,5.16,2.064,5.16c0.369,0,1.179-0.073,1.474-0.073
		c0.294,0,0.369,0.148,0.369,0.442c0,0.221-0.295,0.221-0.811,0.221c-0.59,0-3.906-0.073-5.234-0.073
		c-0.737,0-4.348,0.073-5.676,0.073c-0.294,0-0.59-0.073-0.59-0.221c0-0.294,0.148-0.442,0.516-0.442
		c0.516,0,1.179,0.073,1.548,0.073c1.401,0,1.917-1.622,1.917-4.128V51.741c0-2.138-0.443-3.244-1.622-3.244
		c-0.516,0-1.622,0.369-2.359,0.737c-0.885,0.442-0.885,0.442-1.032,0.442c-0.148,0-0.294-0.073-0.294-0.442
		c0-0.221,2.285-1.18,3.39-1.622c2.506-1.032,5.086-2.211,6.561-3.539c-0.222,2.506-0.222,2.802-0.222,4.423
		c3.464-2.802,5.013-4.055,7.961-4.055c3.612,0,6.56,2.581,8.403,5.823c3.465-3.464,5.824-5.823,9.657-5.823
		c4.718,0,9.067,3.244,9.067,10.099v15.922c0,3.169,0.147,4.423,2.58,4.423c0.369,0,0.664-0.073,1.106-0.073
		c0.295,0,0.369,0.148,0.369,0.442c0,0.221-0.442,0.221-1.253,0.221c-0.737,0-3.243-0.073-5.234-0.073
		c-1.622,0-3.464,0.073-4.865,0.073c-0.59,0-1.031,0.074-1.031-0.147c0-0.148-0.074-0.59,0.221-0.59
		c0.369,0,1.401,0.148,1.695,0.148c1.401,0,2.138-1.622,2.138-4.644V56.311c0-3.318-1.474-7.593-7.077-7.593
		c-0.885,0-4.865,0.148-7.077,2.285c0.443,0.737,0.664,2.432,0.664,4.939v13.489c0,2.064-0.369,5.602,2.359,5.602
		c0.221,0,0.958-0.148,1.474-0.148c0.148,0,0.221,0.148,0.221,0.221c0,0.369-0.148,0.516-0.811,0.516
		c-0.516,0-1.401-0.073-2.359-0.148c-0.959,0-2.064-0.073-3.17-0.073c-0.885,0-1.99,0.073-3.023,0.073
		c-0.958,0.074-1.843,0.148-2.285,0.148c-0.369,0-0.737,0-0.737-0.148c0-0.294,0.148-0.59,0.369-0.59
		c0.442,0,1.106,0.148,1.253,0.148c2.432,0,2.432-2.138,2.432-3.244V57.416c0-7.003-3.022-9.288-7.887-9.288
		c-2.433,0-3.833,0.663-5.16,1.253V69.727z"/>
	<linearGradient id="SVGID_7_" gradientUnits="userSpaceOnUse" x1="159.5836" y1="76.9949" x2="159.5836" y2="39.7449">
		<stop  offset="0" style="stop-color:#FFEBA9"/>
		<stop  offset="0.5" style="stop-color:#FECC00"/>
		<stop  offset="1" style="stop-color:#F8AE00"/>
	</linearGradient>
	<path fill="url(#SVGID_7_)" d="M161.685,69.948c0,2.432,0.147,5.013,2.948,5.013c0.737,0,1.474-0.148,2.064-0.148
		c0.295,0,0.369,0.148,0.369,0.442c0,0.295-0.294,0.369-1.769,0.369c-0.515,0-1.843-0.073-3.022-0.148
		c-1.18,0-2.285-0.073-2.506-0.073c-0.442,0-1.769,0.073-3.023,0.073c-1.253,0.074-2.506,0.148-2.948,0.148
		c-1.401,0-1.695,0-1.695-0.221c0-0.369,0.073-0.516,0.442-0.516c0.443,0,1.106,0.074,1.401,0.074c3.833,0,3.464-1.769,3.464-5.455
		V52.035c0-1.548-0.073-2.727-1.401-2.727c-0.516,0-1.106,0.369-1.548,0.59c-0.369,0.222-0.516,0.295-0.737,0.295
		c-0.148,0-0.222-0.295-0.148-0.516c0.073-0.148,1.179-0.663,1.474-0.885c2.285-1.327,4.718-2.948,6.929-4.644
		c-0.294,3.169-0.294,3.685-0.294,5.897V69.948z M159.841,38.693c-0.885-0.811-2.285-2.211-3.243-3.096
		c0.442-0.59,2.727-2.875,3.169-3.391c0.811,0.664,1.179,1.032,3.464,3.169C162.643,36.039,160.578,37.292,159.841,38.693z"/>
	<linearGradient id="SVGID_8_" gradientUnits="userSpaceOnUse" x1="181.5118" y1="76.9949" x2="181.5118" y2="39.7449">
		<stop  offset="0" style="stop-color:#FFEBA9"/>
		<stop  offset="0.5" style="stop-color:#FECC00"/>
		<stop  offset="1" style="stop-color:#F8AE00"/>
	</linearGradient>
	<path fill="url(#SVGID_8_)" d="M178.416,63.535c0,5.233,0.148,8.919,6.118,8.919c3.833,0,5.676-1.696,6.266-2.654
		c0.369-0.664,0.958-1.474,1.252-1.474c0.295,0,0.295,0.148,0.295,0.442c0,0.811-4.423,7.224-10.32,7.224
		c-4.202,0-7.961-2.211-7.961-10.172v-16.88h-5.307l9.656-9.361v5.455h10.172c1.917,0,3.686-0.443,4.276-1.032
		c0.664-0.59,0.885-0.811,1.179-0.811c0.148,0,0.222,0,0.222,0.295c0,0.148-0.811,0.811-1.401,1.253l-4.644,4.128h-9.804V63.535z"/>
	<linearGradient id="SVGID_9_" gradientUnits="userSpaceOnUse" x1="208.157" y1="76.9949" x2="208.157" y2="39.7449">
		<stop  offset="0" style="stop-color:#FFEBA9"/>
		<stop  offset="0.5" style="stop-color:#FECC00"/>
		<stop  offset="1" style="stop-color:#F8AE00"/>
	</linearGradient>
	<path fill="url(#SVGID_9_)" d="M212.322,71.643c-3.244,2.211-5.971,4.349-8.919,4.349c-6.045,0-8.477-5.234-8.477-8.477
		c0-2.212,1.106-3.834,4.939-5.16c6.045-2.064,8.035-2.875,12.458-5.381v-1.769c0-2.802-1.106-6.56-6.339-6.56
		c-3.317,0-5.455,0.663-7.593,2.359c-0.885,0.737-1.548,1.621-1.843,2.137c-0.295,0.664-0.443,0.885-0.59,0.885
		c-0.222,0-0.222-0.148-0.222-0.221c0-2.138,5.456-9.362,11.573-9.362c5.455,0,9.435,3.76,9.435,10.468v15.996
		c0,2.654-0.148,3.907,2.506,3.907c0.737,0,1.327-0.148,1.769-0.148c0.221,0,0.369-0.073,0.369,0.369
		c0,0.148-3.612,0.369-4.128,0.369h-4.939V71.643z M212.322,57.711c-2.654,1.696-5.234,2.875-7.666,3.834
		c-4.571,1.843-5.013,2.874-5.013,4.939c0,3.833,3.981,7.298,6.929,7.298c1.917,0,3.685-1.622,5.75-2.948V57.711z"/>
	<linearGradient id="SVGID_10_" gradientUnits="userSpaceOnUse" x1="236.9401" y1="76.9949" x2="236.9401" y2="39.7449">
		<stop  offset="0" style="stop-color:#FFEBA9"/>
		<stop  offset="0.5" style="stop-color:#FECC00"/>
		<stop  offset="1" style="stop-color:#F8AE00"/>
	</linearGradient>
	<path fill="url(#SVGID_10_)" d="M232.296,68.399c0,5.529,1.18,6.487,3.76,6.487c0.885,0,2.359-0.294,3.317-0.221
		c0.148,0,0.369,0.369,0.369,0.442c0,0.443-0.737,0.443-1.769,0.443c-1.179,0-5.749-0.148-7.74-0.148
		c-1.253,0-5.308,0.073-6.708,0.073c-0.664,0-1.032,0-1.032-0.294c0-0.295,0-0.516,0.664-0.516c0.885,0,1.622,0.073,2.285,0.073
		c1.99,0,2.506-0.663,2.506-5.381V53.067c0-2.58-0.148-3.907-1.474-3.907c-0.442,0-0.958,0.222-1.401,0.516
		c-0.369,0.221-0.59,0.295-0.737,0.295c-0.294,0-0.294-0.074-0.294-0.295c0-0.294,1.106-0.737,1.695-1.106
		c2.727-1.695,4.939-3.023,6.929-4.57c-0.221,1.548-0.221,2.211-0.369,8.035c1.032-1.106,1.401-1.4,5.086-5.086
		c0.443-0.442,1.106-1.179,2.211-2.506l1.18,1.18c0.885,0.885,1.548,1.622,2.801,2.875c1.917,1.916,2.875,1.99,3.76,1.99
		c1.401,0,2.064-0.811,2.727-1.401c0.59-0.59,0.737-0.958,0.958-0.958c0.369,0,0.369,0.147,0.369,0.369
		c0,0.294-0.958,1.179-1.695,1.916l-5.234,5.455c-3.023-3.022-3.76-3.833-5.16-5.086c-0.811-0.737-1.401-1.474-2.433-1.474
		c-0.59,0-1.622,0.443-4.57,3.907V68.399z"/>
</g>
<g>
	<g>
		<path fill="#9DA39A" d="M247.719,86.168c-6.347,10.449-17.117,12.288-27.797,14.021c-9.036,1.466-18.197,1.601-27.345,1.547
			c-1.361-1.14-1.066-2.35-0.154-3.589c4.267-1.703,8.773-0.553,13.143-1.096c11.018-1.512,22.181-2.322,32.558-6.878
			C241.562,89.401,244.191,86.708,247.719,86.168z"/>
		<path fill="#81877B" d="M205.051,97.989c-4.129,2.021-8.58-0.217-12.772,0.968c-5.263,3.087-10.926,0.126-16.331,1.09
			c-2.972,0.168-5.92-0.86-8.909-0.161c-1.907-0.061-3.551-0.57-4.329-2.545c-0.048-1.181,0.122-2.204,1.635-2.248
			c13.736,0.235,27.472,0.47,41.208,0.704C206.572,96.8,206.58,97.571,205.051,97.989z"/>
		<path fill="#8E9384" d="M205.051,97.989c0.168-0.73,0.335-1.461,0.503-2.192c6.139-3.876,13.313-2.504,19.929-3.95
			c5.228-1.143,10.41-2.496,15.612-3.756c-0.039,2.125-2.863,1.907-3.189,3.79C227.405,96.346,216.49,98.579,205.051,97.989z"/>
		<path fill="#735F56" d="M84.965,95.097c2.814,0.457,5.896-0.803,8.536,1.885c-9.004,0.539-17.58,5.398-26.922,1.892
			c-0.952-0.15-1.183-0.64-0.692-1.469c4.084-1.447,8.264-1.88,12.55-1.194C80.648,96.044,83.094,97.258,84.965,95.097z"/>
		<path fill="#8E8166" d="M108.737,103.112c-1.365-4.041-4.464-4.962-8.288-4.659c-1.439,0.114-3.214-0.029-3.316-1.712
			c-0.141-2.334,1.963-1.968,3.509-2.084c2.053-0.154,4.104-0.333,6.155-0.501c1.373-0.155,2.663,0.241,3.968,0.574
			c2.421,0.678,4.773,1.432,4.291,4.736c-0.932,1.171-1.864,2.341-2.796,3.512C111.103,103.486,109.942,103.88,108.737,103.112z"/>
		<path fill="#BBBDBB" d="M175.728,98.805c5.517,0.05,11.035,0.099,16.551,0.15c0.099,0.928,0.198,1.855,0.297,2.781
			c-5.156-0.145-10.313-0.288-15.469-0.432C176.012,100.822,175.487,100.025,175.728,98.805z"/>
		<path fill="#EEEEEE" d="M157.294,101.164c-3.426-0.007-6.861-0.174-10.276,0.023c-3.604,0.208-0.823-2.124-1.386-3.094
			c0.706-2.46,2.64-1.586,4.259-1.574c3.409,0.038,7.023-0.846,9.775,2.164C159.861,100.451,159.141,101.347,157.294,101.164z"/>
		<path fill="#82877D" d="M159.085,98.602c-3-0.377-6-0.754-9.001-1.13c-0.919-0.464-1.214-1.183-0.884-2.158
			c5.04-0.65,10.078-1.411,15.144-0.22c-0.284,0.817-0.569,1.635-0.853,2.452C162.359,99.304,160.756,99.096,159.085,98.602z"/>
		<path fill="#656044" d="M115.056,99.467c-0.867-2.559-3.144-2.956-5.337-3.482c-0.064-2.137,1.037-4.428-0.838-6.324
			c0.428-2.221,1.411-3.171,3.082-0.985c1.28,1.674,2.225,3.605,3.32,5.421c1.488,0.419,3.314,0.57,3.446,2.578
			c0.107,1.633-1.078,2.275-2.608,2.298C115.857,99.335,115.503,99.5,115.056,99.467z"/>
		<path fill="#D3D4D2" d="M175.728,98.805c0.46,0.832,0.92,1.664,1.38,2.497c-3.163,0.106-6.326,0.21-9.489,0.314
			c-1.381-0.888-0.876-1.91-0.209-2.944C170.214,96.775,172.95,99.065,175.728,98.805z"/>
		<path fill="#DFDFE0" d="M167.41,98.672c0.069,0.982,0.139,1.964,0.209,2.945c-3.441-0.152-6.882-0.303-10.324-0.453
			c0.952-0.605,1.804-1.282,1.79-2.563c1.469-0.352,2.937-0.703,4.406-1.055C164.797,97.922,166.104,98.297,167.41,98.672z"/>
		<path fill="#5D573B" d="M108.881,89.661c4.217,1.586,5.212,3.6,0.838,6.324c-1.44,0.136-2.161-0.877-2.921-1.828
			C107.492,92.658,108.186,91.159,108.881,89.661z"/>
		<path fill="#81745F" d="M108.737,103.112c1.154-0.584,2.317-0.947,3.524-0.133c-0.289,2.569-0.577,5.137-0.911,8.111
			C109.009,108.537,108.824,105.84,108.737,103.112z"/>
		<path fill="#605C4C" d="M65.887,97.405c0.23,0.489,0.461,0.978,0.691,1.468c-0.567,2.565-1.824,4.126-4.766,3.404
			c-1.28-0.314-2.269-0.873-1.686-2.332C61.186,97.289,63.353,96.865,65.887,97.405z"/>
		<path fill="#62604B" d="M116.12,98.972c3.142-2.213,0.782-3.481-0.837-4.876c2.385-0.49,4.743-0.391,7.072,0.327
			c0.822,0.524,1.115,1.258,0.879,2.204C120.863,97.409,118.491,98.191,116.12,98.972z"/>
		<path fill="#84887F" d="M149.2,95.313c0.295,0.719,0.589,1.438,0.884,2.158c-1.484,0.208-2.968,0.415-4.451,0.622
			c-2.032-0.398-4.063-0.796-6.095-1.194c0.172-1.064,0.797-1.582,1.874-1.552C144.006,94.853,146.598,93.971,149.2,95.313z"/>
		<path fill="#89847A" d="M105.881,81.586c3.702-1.144,6.175-2.296,8.342-0.106c0.887,0.896-0.415,1.107-0.987,1.7
			C110.291,86.237,108.877,82.914,105.881,81.586z"/>
		<path fill="#7E8575" d="M237.905,91.883c0.084-2.086,2.063-2.577,3.188-3.789c2.188-1.165,4.281-2.99,6.587-3.316
			c2.544-0.36,0.211,0.86,0.038,1.391C244.448,88.073,241.176,89.978,237.905,91.883z"/>
		<path fill="#818580" d="M141.412,95.347c-0.625,0.517-1.249,1.034-1.874,1.552c-1.581,1.004-3.138,0.583-4.69-0.081
			c-0.901-0.855-2.841-0.428-2.887-2.338C135.272,93.019,138.31,94.535,141.412,95.347z"/>
		<path fill="#6B6D67" d="M123.234,96.628c-0.293-0.734-0.586-1.468-0.879-2.203c2.135,0.024,4.271,0.049,6.407,0.074
			c0.845,0.419,1.144,1.083,0.895,1.993C127.516,96.537,125.375,96.583,123.234,96.628z"/>
		<path fill="#727670" d="M129.657,96.492c-0.298-0.664-0.597-1.329-0.895-1.993c1.066-0.007,2.133-0.013,3.199-0.02
			c0.962,0.779,1.924,1.558,2.886,2.338C133.118,96.709,131.388,96.601,129.657,96.492z"/>
		<path fill="#342E2B" d="M84.965,95.097c-1.6,3.744-4.173,1.787-6.527,1.114C80.455,94.913,82.674,94.795,84.965,95.097z"/>
	</g>
</g>
<linearGradient id="SVGID_11_" gradientUnits="userSpaceOnUse" x1="40.6957" y1="80.3141" x2="48.427" y2="80.3141">
	<stop  offset="0" style="stop-color:#E30B13"/>
	<stop  offset="0.1007" style="stop-color:#E30B13;stop-opacity:0"/>
	<stop  offset="0.2" style="stop-color:#E30B13"/>
	<stop  offset="0.3" style="stop-color:#E30B13;stop-opacity:0"/>
	<stop  offset="0.402" style="stop-color:#E30B13"/>
	<stop  offset="0.5" style="stop-color:#E30B13;stop-opacity:0"/>
	<stop  offset="0.6" style="stop-color:#E30B13"/>
	<stop  offset="0.7" style="stop-color:#E30B13;stop-opacity:0"/>
	<stop  offset="0.8" style="stop-color:#E30B13"/>
	<stop  offset="0.9" style="stop-color:#E30B13;stop-opacity:0"/>
	<stop  offset="1" style="stop-color:#E30B13"/>
</linearGradient>
<path fill-rule="evenodd" clip-rule="evenodd" fill="url(#SVGID_11_)" d="M44.221,80.541c-2.421,0.661-3.027-6.259,0.13-9.783
	c-2.264,1.58-3.501,4.458-3.641,7.863c-0.183,4.443,1.541,8.298,1.156,11.646c-0.051,0.447-0.124,0.846-0.206,1.224l0.594,2.454
	c0.14-0.503,0.256-1.027,0.33-1.581c0.309-2.281-0.635-7.14,1.895-8.18c1.767-0.724,0.348,4.773-0.9,7.403
	c1.052-1.294,2.347-4.584,2.795-6.487c1.249-5.31,3.16-12.806,1.232-18.416C48.216,72.552,46.742,79.853,44.221,80.541z"/>
<linearGradient id="SVGID_12_" gradientUnits="userSpaceOnUse" x1="32.4053" y1="28.9932" x2="50.5043" y2="28.9932">
	<stop  offset="0" style="stop-color:#E30B13"/>
	<stop  offset="0.1007" style="stop-color:#E30B13;stop-opacity:0"/>
	<stop  offset="0.2" style="stop-color:#E30B13"/>
	<stop  offset="0.3" style="stop-color:#E30B13;stop-opacity:0"/>
	<stop  offset="0.402" style="stop-color:#E30B13"/>
	<stop  offset="0.5" style="stop-color:#E30B13;stop-opacity:0"/>
	<stop  offset="0.6" style="stop-color:#E30B13"/>
	<stop  offset="0.7" style="stop-color:#E30B13;stop-opacity:0"/>
	<stop  offset="0.8" style="stop-color:#E30B13"/>
	<stop  offset="0.9" style="stop-color:#E30B13;stop-opacity:0"/>
	<stop  offset="1" style="stop-color:#E30B13"/>
</linearGradient>
<path fill-rule="evenodd" clip-rule="evenodd" fill="url(#SVGID_12_)" d="M48.852,31.696c0.87,4.554,0.798,7.883,0.622,10.615
	c-0.231,3.573-1.606,7.307-2.467,6.519c-2.311-2.103-1.348-10.292-0.684-14.387c0.96-5.898,0.823-10.098-1.394-13.919
	c0.599,1.958,2.696,8.068-0.836,13.853c-0.046,0.074-0.099,0.155-0.164,0.192c-0.18,0.103-0.405,0.172-0.53,0.052
	c-0.963-0.91-0.863-4.162-0.4-6.637c0.426-2.273,1.182-3.823,1.198-3.859c-3.72,5.8-1.607,12.579-3.673,14.452
	c-0.191,0.172-0.035,0.12-0.236,0.166c-0.121,0.03-0.262,0.081-0.339-0.005c-0.901-1.015-0.799-3.519,0.29-6.097
	c0.817-1.938,1.437-4.181,1.286-5.658c-0.24,1.189-0.915,2.903-1.408,3.843c-1.789,3.59-1.478,4.597-1.675,7.43
	c-0.097,1.435,0.285,4.265-1.14,5.972c-0.277,0.333-0.279,0.405-0.594,0.419c-0.197,0.009-0.465,0.105-0.554-0.096
	c-2.187-4.87,1.487-9.976,5.002-21.508c2.503-8.218-2.311-11.386,2.055-21.609c-2.662,4.677-3.868,11.851-3.175,14.999
	c0.714,3.247,0.496,6.251-1.153,7.285c-0.985,0.617-1.566-0.285-1.869-1.94c-0.507,0.394-0.542,1.104-1.082,1.476
	c0.548,4.006,1.637,8.384,0.258,9.227c-1.716,1.048-2.188-3.311-2.448-4.675c-1.067-5.544,0.45-16.433,3.066-20.831
	c-2.329,2.967-3.929,9.546-4.293,14.277c-0.628,8.125,1.647,10.277,2.14,15.859c0.281,3.155-0.338,6.691-1.058,10.535l2.721,2.229
	c0.97-2.835,2.416-5.972,3.74-6.361c0.141,0.011,0.28,0.022,0.414,0.034c0.036,1.549-1.428,3.89-1.888,5.934
	c-0.155,0.68-0.243,1.358-0.282,2.019l1.188,0.973c0.114-0.697,0.228-1.393,0.341-2.089c0.825-3.476,2.953-6.22,4.315-8.363
	c0.026,0.009,0.049,0.018,0.074,0.029c0.008,1.316,0.013,2.632,0.022,3.948c0.14,1.915,1.854,4.482,0.117,7.278
	c-0.448,0.608-0.822,0.831-1.406,0.742c-0.477-0.854-0.101-2.404,0.393-3.912c-0.026-0.009-0.049-0.02-0.072-0.03
	c-0.687,1.258-1.271,2.648-1.768,4.051l2.968,2.431c0.644-0.858,1.251-1.769,1.708-2.682c0.685-1.366,0.768-2.568,1.562-3.408
	c2.224-2.352,2.669-4.634,2.752-7.94C50.594,38.704,49.59,33.232,48.852,31.696z"/>
</svg>
